/* XPM */
static char *result[] = {
/* columns rows colors chars-per-pixel */
"64 64 4 1 ",
"  c black",
". c #E45C10",
"X c #FCA044",
"o c #FCE0A8",
/* pixels */
"XXXXoooooooooooooooooooooooooooooooooooooooooooooooooooooooooooo",
"XXXXoooooooooooooooooooooooooooooooooooooooooooooooooooooooooooo",
"XXXXoooooooooooooooooooooooooooooooooooooooooooooooooooooooooooo",
"XXXXoooooooooooooooooooooooooooooooooooooooooooooooooooooooooooo",
"ooooXXXXoooooooooooooooooooooooooooooooooooooooooooooooooooo....",
"ooooXXXXoooooooooooooooooooooooooooooooooooooooooooooooooooo....",
"ooooXXXXoooooooooooooooooooooooooooooooooooooooooooooooooooo....",
"ooooXXXXoooooooooooooooooooooooooooooooooooooooooooooooooooo....",
"ooooooooXXXXoooooooooooooooooooooooooooooooooooooooooooo........",
"ooooooooXXXXoooooooooooooooooooooooooooooooooooooooooooo........",
"ooooooooXXXXoooooooooooooooooooooooooooooooooooooooooooo........",
"ooooooooXXXXoooooooooooooooooooooooooooooooooooooooooooo........",
"ooooooooooooXXXXoooooooooooooooooooooooooooooooooooo............",
"ooooooooooooXXXXoooooooooooooooooooooooooooooooooooo............",
"ooooooooooooXXXXoooooooooooooooooooooooooooooooooooo............",
"ooooooooooooXXXXoooooooooooooooooooooooooooooooooooo............",
"ooooooooooooooooXXXXXXXXXXXXXXXXXXXXXXXXXXXXXXXX................",
"ooooooooooooooooXXXXXXXXXXXXXXXXXXXXXXXXXXXXXXXX................",
"ooooooooooooooooXXXXXXXXXXXXXXXXXXXXXXXXXXXXXXXX................",
"ooooooooooooooooXXXXXXXXXXXXXXXXXXXXXXXXXXXXXXXX................",
"ooooooooooooooooXXXXXXXXXXXX        XXXXXXXXXXXX................",
"ooooooooooooooooXXXXXXXXXXXX        XXXXXXXXXXXX................",
"ooooooooooooooooXXXXXXXXXXXX        XXXXXXXXXXXX................",
"ooooooooooooooooXXXXXXXXXXXX        XXXXXXXXXXXX................",
"ooooooooooooooooXXXXXXXX                XXXXXXXX................",
"ooooooooooooooooXXXXXXXX                XXXXXXXX................",
"ooooooooooooooooXXXXXXXX                XXXXXXXX................",
"ooooooooooooooooXXXXXXXX                XXXXXXXX................",
"ooooooooooooooooXXXXXXXX                XXXXXXXX................",
"ooooooooooooooooXXXXXXXX                XXXXXXXX................",
"ooooooooooooooooXXXXXXXX                XXXXXXXX................",
"ooooooooooooooooXXXXXXXX                XXXXXXXX................",
"ooooooooooooooooXXXXXXXXXXXX        XXXXXXXXXXXX................",
"ooooooooooooooooXXXXXXXXXXXX        XXXXXXXXXXXX................",
"ooooooooooooooooXXXXXXXXXXXX        XXXXXXXXXXXX................",
"ooooooooooooooooXXXXXXXXXXXX        XXXXXXXXXXXX................",
"ooooooooooooooooXXXXXXXXXXXX        XXXXXXXXXXXX................",
"ooooooooooooooooXXXXXXXXXXXX        XXXXXXXXXXXX................",
"ooooooooooooooooXXXXXXXXXXXX        XXXXXXXXXXXX................",
"ooooooooooooooooXXXXXXXXXXXX        XXXXXXXXXXXX................",
"ooooooooooooooooXXXXXXXXXXXX        XXXXXXXXXXXX................",
"ooooooooooooooooXXXXXXXXXXXX        XXXXXXXXXXXX................",
"ooooooooooooooooXXXXXXXXXXXX        XXXXXXXXXXXX................",
"ooooooooooooooooXXXXXXXXXXXX        XXXXXXXXXXXX................",
"ooooooooooooooooXXXXXXXXXXXXXXXXXXXXXXXXXXXXXXXX................",
"ooooooooooooooooXXXXXXXXXXXXXXXXXXXXXXXXXXXXXXXX................",
"ooooooooooooooooXXXXXXXXXXXXXXXXXXXXXXXXXXXXXXXX................",
"ooooooooooooooooXXXXXXXXXXXXXXXXXXXXXXXXXXXXXXXX................",
"oooooooooooooooo................................XXXX............",
"oooooooooooooooo................................XXXX............",
"oooooooooooooooo................................XXXX............",
"oooooooooooooooo................................XXXX............",
"oooooooooooo........................................XXXX........",
"oooooooooooo........................................XXXX........",
"oooooooooooo........................................XXXX........",
"oooooooooooo........................................XXXX........",
"oooooooo................................................XXXX....",
"oooooooo................................................XXXX....",
"oooooooo................................................XXXX....",
"oooooooo................................................XXXX....",
"oooo........................................................XXXX",
"oooo........................................................XXXX",
"oooo........................................................XXXX",
"oooo........................................................XXXX"
};
