/* XPM */
static char *result[] = {
/* columns rows colors chars-per-pixel */
"64 64 4 1 ",
"  c #E45C10",
". c #FCA044",
"X c #FCE0A8",
"o c white",
/* pixels */
"XXXXXXXXXXXXXXXXXXXXXXXX............    XXXXXXXXXXXXXXXXXXXXXXXX",
"XXXXXXXXXXXXXXXXXXXXXXXX............    XXXXXXXXXXXXXXXXXXXXXXXX",
"XXXXXXXXXXXXXXXXXXXXXXXX............    XXXXXXXXXXXXXXXXXXXXXXXX",
"XXXXXXXXXXXXXXXXXXXXXXXX............    XXXXXXXXXXXXXXXXXXXXXXXX",
"XXXXXXXXXXXXXXXXXXXXoooo................    XXXXXXXXXXXXXXXXXXXX",
"XXXXXXXXXXXXXXXXXXXXoooo................    XXXXXXXXXXXXXXXXXXXX",
"XXXXXXXXXXXXXXXXXXXXoooo................    XXXXXXXXXXXXXXXXXXXX",
"XXXXXXXXXXXXXXXXXXXXoooo................    XXXXXXXXXXXXXXXXXXXX",
"XXXXXXXXXXXXXXXXoooo....    XXXXXXXX........    XXXXXXXXXXXXXXXX",
"XXXXXXXXXXXXXXXXoooo....    XXXXXXXX........    XXXXXXXXXXXXXXXX",
"XXXXXXXXXXXXXXXXoooo....    XXXXXXXX........    XXXXXXXXXXXXXXXX",
"XXXXXXXXXXXXXXXXoooo....    XXXXXXXX........    XXXXXXXXXXXXXXXX",
"XXXXXXXXXXXXXXXXoooo    XXXXXXXXXXXXXXXX....    XXXXXXXXXXXXXXXX",
"XXXXXXXXXXXXXXXXoooo    XXXXXXXXXXXXXXXX....    XXXXXXXXXXXXXXXX",
"XXXXXXXXXXXXXXXXoooo    XXXXXXXXXXXXXXXX....    XXXXXXXXXXXXXXXX",
"XXXXXXXXXXXXXXXXoooo    XXXXXXXXXXXXXXXX....    XXXXXXXXXXXXXXXX",
"XXXXXXXXXXXXXXXXoooo    XXXXXXXXXXXXXXXX....    XXXXXXXXXXXXXXXX",
"XXXXXXXXXXXXXXXXoooo    XXXXXXXXXXXXXXXX....    XXXXXXXXXXXXXXXX",
"XXXXXXXXXXXXXXXXoooo    XXXXXXXXXXXXXXXX....    XXXXXXXXXXXXXXXX",
"XXXXXXXXXXXXXXXXoooo    XXXXXXXXXXXXXXXX....    XXXXXXXXXXXXXXXX",
"XXXXXXXXXXXXXXXX............................    XXXXXXXXXXXXXXXX",
"XXXXXXXXXXXXXXXX............................    XXXXXXXXXXXXXXXX",
"XXXXXXXXXXXXXXXX............................    XXXXXXXXXXXXXXXX",
"XXXXXXXXXXXXXXXX............................    XXXXXXXXXXXXXXXX",
"XXXXXXXXXXXXXXXXoooo................            XXXXXXXXXXXXXXXX",
"XXXXXXXXXXXXXXXXoooo................            XXXXXXXXXXXXXXXX",
"XXXXXXXXXXXXXXXXoooo................            XXXXXXXXXXXXXXXX",
"XXXXXXXXXXXXXXXXoooo................            XXXXXXXXXXXXXXXX",
"XXXXXXXXXXXXXXXXXXXXXXXXXXXX....    XXXXXXXXXXXXXXXXXXXXXXXXXXXX",
"XXXXXXXXXXXXXXXXXXXXXXXXXXXX....    XXXXXXXXXXXXXXXXXXXXXXXXXXXX",
"XXXXXXXXXXXXXXXXXXXXXXXXXXXX....    XXXXXXXXXXXXXXXXXXXXXXXXXXXX",
"XXXXXXXXXXXXXXXXXXXXXXXXXXXX....    XXXXXXXXXXXXXXXXXXXXXXXXXXXX",
"XXXXXXXXXXXXXXXXXXXXXXXXXXXX....    XXXXXXXXXXXXXXXXXXXXXXXXXXXX",
"XXXXXXXXXXXXXXXXXXXXXXXXXXXX....    XXXXXXXXXXXXXXXXXXXXXXXXXXXX",
"XXXXXXXXXXXXXXXXXXXXXXXXXXXX....    XXXXXXXXXXXXXXXXXXXXXXXXXXXX",
"XXXXXXXXXXXXXXXXXXXXXXXXXXXX....    XXXXXXXXXXXXXXXXXXXXXXXXXXXX",
"XXXXXXXXXXXXXXXXXXXXXXXXXXXX....    XXXXXXXXXXXXXXXXXXXXXXXXXXXX",
"XXXXXXXXXXXXXXXXXXXXXXXXXXXX....    XXXXXXXXXXXXXXXXXXXXXXXXXXXX",
"XXXXXXXXXXXXXXXXXXXXXXXXXXXX....    XXXXXXXXXXXXXXXXXXXXXXXXXXXX",
"XXXXXXXXXXXXXXXXXXXXXXXXXXXX....    XXXXXXXXXXXXXXXXXXXXXXXXXXXX",
"XXXXXXXXXXXXXXXXXXXXXXXXXXXX....    XXXXXXXXXXXXXXXXXXXXXXXXXXXX",
"XXXXXXXXXXXXXXXXXXXXXXXXXXXX....    XXXXXXXXXXXXXXXXXXXXXXXXXXXX",
"XXXXXXXXXXXXXXXXXXXXXXXXXXXX....    XXXXXXXXXXXXXXXXXXXXXXXXXXXX",
"XXXXXXXXXXXXXXXXXXXXXXXXXXXX....    XXXXXXXXXXXXXXXXXXXXXXXXXXXX",
"XXXXXXXXXXXXXXXXXXXXoooo........    XXXXXXXXXXXXXXXXXXXXXXXXXXXX",
"XXXXXXXXXXXXXXXXXXXXoooo........    XXXXXXXXXXXXXXXXXXXXXXXXXXXX",
"XXXXXXXXXXXXXXXXXXXXoooo........    XXXXXXXXXXXXXXXXXXXXXXXXXXXX",
"XXXXXXXXXXXXXXXXXXXXoooo........    XXXXXXXXXXXXXXXXXXXXXXXXXXXX",
"XXXXXXXXXXXXXXXXXXXX............    XXXXXXXXXXXXXXXXXXXXXXXXXXXX",
"XXXXXXXXXXXXXXXXXXXX............    XXXXXXXXXXXXXXXXXXXXXXXXXXXX",
"XXXXXXXXXXXXXXXXXXXX............    XXXXXXXXXXXXXXXXXXXXXXXXXXXX",
"XXXXXXXXXXXXXXXXXXXX............    XXXXXXXXXXXXXXXXXXXXXXXXXXXX",
"XXXXXXXXXXXXXXXXXXXXXXXX........    XXXXXXXXXXXXXXXXXXXXXXXXXXXX",
"XXXXXXXXXXXXXXXXXXXXXXXX........    XXXXXXXXXXXXXXXXXXXXXXXXXXXX",
"XXXXXXXXXXXXXXXXXXXXXXXX........    XXXXXXXXXXXXXXXXXXXXXXXXXXXX",
"XXXXXXXXXXXXXXXXXXXXXXXX........    XXXXXXXXXXXXXXXXXXXXXXXXXXXX",
"XXXXXXXXXXXXXXXXXXXX............    XXXXXXXXXXXXXXXXXXXXXXXXXXXX",
"XXXXXXXXXXXXXXXXXXXX............    XXXXXXXXXXXXXXXXXXXXXXXXXXXX",
"XXXXXXXXXXXXXXXXXXXX............    XXXXXXXXXXXXXXXXXXXXXXXXXXXX",
"XXXXXXXXXXXXXXXXXXXX............    XXXXXXXXXXXXXXXXXXXXXXXXXXXX",
"XXXXXXXXXXXXXXXXXXXXXXXXXXXX....    XXXXXXXXXXXXXXXXXXXXXXXXXXXX",
"XXXXXXXXXXXXXXXXXXXXXXXXXXXX....    XXXXXXXXXXXXXXXXXXXXXXXXXXXX",
"XXXXXXXXXXXXXXXXXXXXXXXXXXXX....    XXXXXXXXXXXXXXXXXXXXXXXXXXXX",
"XXXXXXXXXXXXXXXXXXXXXXXXXXXX....    XXXXXXXXXXXXXXXXXXXXXXXXXXXX"
};
