/* XPM */
static char *result[] = {
/* columns rows colors chars-per-pixel */
"64 64 4 1 ",
"  c #A81000",
". c #FCA044",
"X c white",
"o c None",
/* pixels */
"oooooooooooooooooooooooooooooooooooooooooooooooooooooooooooooooo",
"oooooooooooooooooooooooooooooooooooooooooooooooooooooooooooooooo",
"oooooooooooooooooooooooooooooooooooooooooooooooooooooooooooooooo",
"oooooooooooooooooooooooooooooooooooooooooooooooooooooooooooooooo",
"oooooooooooooooooooooooooooooooooooooooooooooooooooooooooooooooo",
"oooooooooooooooooooooooooooooooooooooooooooooooooooooooooooooooo",
"oooooooooooooooooooooooooooooooooooooooooooooooooooooooooooooooo",
"oooooooooooooooooooooooooooooooooooooooooooooooooooooooooooooooo",
"oooooooooooooooo                                oooooooooooooooo",
"oooooooooooooooo                                oooooooooooooooo",
"oooooooooooooooo                                oooooooooooooooo",
"oooooooooooooooo                                oooooooooooooooo",
"oooooooooooooooooooo                        oooooooooooooooooooo",
"oooooooooooooooooooo                        oooooooooooooooooooo",
"oooooooooooooooooooo                        oooooooooooooooooooo",
"oooooooooooooooooooo                        oooooooooooooooooooo",
"oooooooo        oooooooo                oooooooo        oooooooo",
"oooooooo        oooooooo                oooooooo        oooooooo",
"oooooooo        oooooooo                oooooooo        oooooooo",
"oooooooo        oooooooo                oooooooo        oooooooo",
"oooooooooooo            XXXXXXXXXXXXXXXX            oooooooooooo",
"oooooooooooo            XXXXXXXXXXXXXXXX            oooooooooooo",
"oooooooooooo            XXXXXXXXXXXXXXXX            oooooooooooo",
"oooooooooooo            XXXXXXXXXXXXXXXX            oooooooooooo",
"oooooooooooo    XXXXXXXX    XXXXXXXX    XXXXXXXX    oooooooooooo",
"oooooooooooo    XXXXXXXX    XXXXXXXX    XXXXXXXX    oooooooooooo",
"oooooooooooo    XXXXXXXX    XXXXXXXX    XXXXXXXX    oooooooooooo",
"oooooooooooo    XXXXXXXX    XXXXXXXX    XXXXXXXX    oooooooooooo",
"                XXXX        XXXXXXXX        XXXX                ",
"                XXXX        XXXXXXXX        XXXX                ",
"                XXXX        XXXXXXXX        XXXX                ",
"                XXXX        XXXXXXXX        XXXX                ",
"oooo        XXXXXXXX        XXXXXXXX        XXXXXXXX        oooo",
"oooo        XXXXXXXX        XXXXXXXX        XXXXXXXX        oooo",
"oooo        XXXXXXXX        XXXXXXXX        XXXXXXXX        oooo",
"oooo        XXXXXXXX        XXXXXXXX        XXXXXXXX        oooo",
"oooooooo    XXXXXXXX    XXXXXXXXXXXXXXXX    XXXXXXXX    oooooooo",
"oooooooo    XXXXXXXX    XXXXXXXXXXXXXXXX    XXXXXXXX    oooooooo",
"oooooooo    XXXXXXXX    XXXXXXXXXXXXXXXX    XXXXXXXX    oooooooo",
"oooooooo    XXXXXXXX    XXXXXXXXXXXXXXXX    XXXXXXXX    oooooooo",
"oooo            XXXXXXXX                XXXXXXXX            oooo",
"oooo            XXXXXXXX                XXXXXXXX            oooo",
"oooo            XXXXXXXX                XXXXXXXX            oooo",
"oooo            XXXXXXXX                XXXXXXXX            oooo",
"                ....                        ....                ",
"                ....                        ....                ",
"                ....                        ....                ",
"                ....                        ....                ",
"oooooooo                ....        ....                oooooooo",
"oooooooo                ....        ....                oooooooo",
"oooooooo                ....        ....                oooooooo",
"oooooooo                ....        ....                oooooooo",
"oooo        ....                                ....        oooo",
"oooo        ....                                ....        oooo",
"oooo        ....                                ....        oooo",
"oooo        ....                                ....        oooo",
"        oooo        ....                ....        oooo        ",
"        oooo        ....                ....        oooo        ",
"        oooo        ....                ....        oooo        ",
"        oooo        ....                ....        oooo        ",
"oooooooooooooooo            ........        oooooooooooooooooooo",
"oooooooooooooooo            ........        oooooooooooooooooooo",
"oooooooooooooooo            ........        oooooooooooooooooooo",
"oooooooooooooooo            ........        oooooooooooooooooooo"
};
