/* XPM */
static char *result[] = {
/* columns rows colors chars-per-pixel */
"64 64 4 1 ",
"  c #A81000",
". c #FCA044",
"X c white",
"o c None",
/* pixels */
"oooooooooooooooooooo        ........        oooooooooooooooooooo",
"oooooooooooooooooooo        ........        oooooooooooooooooooo",
"oooooooooooooooooooo        ........        oooooooooooooooooooo",
"oooooooooooooooooooo        ........        oooooooooooooooooooo",
"oooooooooooo        ....                ....        oooooooooooo",
"oooooooooooo        ....                ....        oooooooooooo",
"oooooooooooo        ....                ....        oooooooooooo",
"oooooooooooo        ....                ....        oooooooooooo",
"                                                                ",
"                                                                ",
"                                                                ",
"                                                                ",
"oooo                    ....        ....                    oooo",
"oooo                    ....        ....                    oooo",
"oooo                    ....        ....                    oooo",
"oooo                    ....        ....                    oooo",
"oooooooo        ....                        ....        oooooooo",
"oooooooo        ....                        ....        oooooooo",
"oooooooo        ....                        ....        oooooooo",
"oooooooo        ....                        ....        oooooooo",
"                XXXXXXXX                XXXXXXXX                ",
"                XXXXXXXX                XXXXXXXX                ",
"                XXXXXXXX                XXXXXXXX                ",
"                XXXXXXXX                XXXXXXXX                ",
"oooo        XXXXXXXX    XXXXXXXXXXXXXXXX    XXXXXXXX        oooo",
"oooo        XXXXXXXX    XXXXXXXXXXXXXXXX    XXXXXXXX        oooo",
"oooo        XXXXXXXX    XXXXXXXXXXXXXXXX    XXXXXXXX        oooo",
"oooo        XXXXXXXX    XXXXXXXXXXXXXXXX    XXXXXXXX        oooo",
"oooooooo    XXXXXXXX        XXXXXXXX        XXXXXXXX    oooooooo",
"oooooooo    XXXXXXXX        XXXXXXXX        XXXXXXXX    oooooooo",
"oooooooo    XXXXXXXX        XXXXXXXX        XXXXXXXX    oooooooo",
"oooooooo    XXXXXXXX        XXXXXXXX        XXXXXXXX    oooooooo",
"oooo            XXXX        XXXXXXXX        XXXX            oooo",
"oooo            XXXX        XXXXXXXX        XXXX            oooo",
"oooo            XXXX        XXXXXXXX        XXXX            oooo",
"oooo            XXXX        XXXXXXXX        XXXX            oooo",
"oooo    oooo    XXXXXXXX    XXXXXXXX    XXXXXXXX    oooo    oooo",
"oooo    oooo    XXXXXXXX    XXXXXXXX    XXXXXXXX    oooo    oooo",
"oooo    oooo    XXXXXXXX    XXXXXXXX    XXXXXXXX    oooo    oooo",
"oooo    oooo    XXXXXXXX    XXXXXXXX    XXXXXXXX    oooo    oooo",
"oooooooooooo            XXXXXXXXXXXXXXXX            oooooooooooo",
"oooooooooooo            XXXXXXXXXXXXXXXX            oooooooooooo",
"oooooooooooo            XXXXXXXXXXXXXXXX            oooooooooooo",
"oooooooooooo            XXXXXXXXXXXXXXXX            oooooooooooo",
"oooooooooooo        oooo                oooo        oooooooooooo",
"oooooooooooo        oooo                oooo        oooooooooooo",
"oooooooooooo        oooo                oooo        oooooooooooo",
"oooooooooooo        oooo                oooo        oooooooooooo",
"oooooooooooooooooooooooo                oooooooooooooooooooooooo",
"oooooooooooooooooooooooo                oooooooooooooooooooooooo",
"oooooooooooooooooooooooo                oooooooooooooooooooooooo",
"oooooooooooooooooooooooo                oooooooooooooooooooooooo",
"oooooooooooooooooooooooo                oooooooooooooooooooooooo",
"oooooooooooooooooooooooo                oooooooooooooooooooooooo",
"oooooooooooooooooooooooo                oooooooooooooooooooooooo",
"oooooooooooooooooooooooo                oooooooooooooooooooooooo",
"oooooooooooooooooooooooo                oooooooooooooooooooooooo",
"oooooooooooooooooooooooo                oooooooooooooooooooooooo",
"oooooooooooooooooooooooo                oooooooooooooooooooooooo",
"oooooooooooooooooooooooo                oooooooooooooooooooooooo",
"oooooooooooooooo                                oooooooooooooooo",
"oooooooooooooooo                                oooooooooooooooo",
"oooooooooooooooo                                oooooooooooooooo",
"oooooooooooooooo                                oooooooooooooooo"
};
