/* XPM */
static char *result[] = {
/* columns rows colors chars-per-pixel */
"64 64 4 1 ",
"  c #A81000",
". c #FCA044",
"X c white",
"o c None",
/* pixels */
"oooo    oooooooo    oooooooooooo    oooooooooooooooooooooooooooo",
"oooo    oooooooo    oooooooooooo    oooooooooooooooooooooooooooo",
"oooo    oooooooo    oooooooooooo    oooooooooooooooooooooooooooo",
"oooo    oooooooo    oooooooooooo    oooooooooooooooooooooooooooo",
"oooo        oooo        oooo        oooooooooooooooooooooooooooo",
"oooo        oooo        oooo        oooooooooooooooooooooooooooo",
"oooo        oooo        oooo        oooooooooooooooooooooooooooo",
"oooo        oooo        oooo        oooooooooooooooooooooooooooo",
"oooooooo                            oooooooo    oooooooooooooooo",
"oooooooo                            oooooooo    oooooooooooooooo",
"oooooooo                            oooooooo    oooooooooooooooo",
"oooooooo                            oooooooo    oooooooooooooooo",
"oooo    ....            XXXXXXXX                oooooooooooooooo",
"oooo    ....            XXXXXXXX                oooooooooooooooo",
"oooo    ....            XXXXXXXX                oooooooooooooooo",
"oooo    ....            XXXXXXXX                oooooooooooooooo",
"                ....XXXXXXXXXXXXXXXXXXXX    oooooooo    oooooooo",
"                ....XXXXXXXXXXXXXXXXXXXX    oooooooo    oooooooo",
"                ....XXXXXXXXXXXXXXXXXXXX    oooooooo    oooooooo",
"                ....XXXXXXXXXXXXXXXXXXXX    oooooooo    oooooooo",
"    ....            XXXX            XXXX    oooo        oooooooo",
"    ....            XXXX            XXXX    oooo        oooooooo",
"    ....            XXXX            XXXX    oooo        oooooooo",
"    ....            XXXX            XXXX    oooo        oooooooo",
"            ....        XXXX            XXXX            oooooooo",
"            ....        XXXX            XXXX            oooooooo",
"            ....        XXXX            XXXX            oooooooo",
"            ....        XXXX            XXXX            oooooooo",
"....                    XXXXXXXXXXXXXXXXXXXX            oooooooo",
"....                    XXXXXXXXXXXXXXXXXXXX            oooooooo",
"....                    XXXXXXXXXXXXXXXXXXXX            oooooooo",
"....                    XXXXXXXXXXXXXXXXXXXX            oooooooo",
"....                    XXXXXXXXXXXXXXXXXXXX            oooooooo",
"....                    XXXXXXXXXXXXXXXXXXXX            oooooooo",
"....                    XXXXXXXXXXXXXXXXXXXX            oooooooo",
"....                    XXXXXXXXXXXXXXXXXXXX            oooooooo",
"            ....        XXXX            XXXX            oooooooo",
"            ....        XXXX            XXXX            oooooooo",
"            ....        XXXX            XXXX            oooooooo",
"            ....        XXXX            XXXX            oooooooo",
"    ....            XXXX            XXXX    oooo        oooooooo",
"    ....            XXXX            XXXX    oooo        oooooooo",
"    ....            XXXX            XXXX    oooo        oooooooo",
"    ....            XXXX            XXXX    oooo        oooooooo",
"oooo            ....XXXXXXXXXXXXXXXXXXXX    oooooooo    oooooooo",
"oooo            ....XXXXXXXXXXXXXXXXXXXX    oooooooo    oooooooo",
"oooo            ....XXXXXXXXXXXXXXXXXXXX    oooooooo    oooooooo",
"oooo            ....XXXXXXXXXXXXXXXXXXXX    oooooooo    oooooooo",
"oooo    ....            XXXXXXXX                oooooooooooooooo",
"oooo    ....            XXXXXXXX                oooooooooooooooo",
"oooo    ....            XXXXXXXX                oooooooooooooooo",
"oooo    ....            XXXXXXXX                oooooooooooooooo",
"oooooooo                            oooooooo    oooooooooooooooo",
"oooooooo                            oooooooo    oooooooooooooooo",
"oooooooo                            oooooooo    oooooooooooooooo",
"oooooooo                            oooooooo    oooooooooooooooo",
"oooo        oooo        oooo        oooooooooooooooooooooooooooo",
"oooo        oooo        oooo        oooooooooooooooooooooooooooo",
"oooo        oooo        oooo        oooooooooooooooooooooooooooo",
"oooo        oooo        oooo        oooooooooooooooooooooooooooo",
"oooo    oooooooo    oooooooooooo    oooooooooooooooooooooooooooo",
"oooo    oooooooo    oooooooooooo    oooooooooooooooooooooooooooo",
"oooo    oooooooo    oooooooooooo    oooooooooooooooooooooooooooo",
"oooo    oooooooo    oooooooooooo    oooooooooooooooooooooooooooo"
};
