/* XPM */
static char *result[] = {
/* columns rows colors chars-per-pixel */
"64 64 4 1 ",
"  c #A81000",
". c #FCA044",
"X c white",
"o c None",
/* pixels */
"oooooooooooooooooooooooooooooooooooooooo    oooooooo    oooooooo",
"oooooooooooooooooooooooooooooooooooooooo    oooooooo    oooooooo",
"oooooooooooooooooooooooooooooooooooooooo    oooooooo    oooooooo",
"oooooooooooooooooooooooooooooooooooooooo    oooooooo    oooooooo",
"oooooooooooooooooooooooo        oooo        oooo        oooooooo",
"oooooooooooooooooooooooo        oooo        oooo        oooooooo",
"oooooooooooooooooooooooo        oooo        oooo        oooooooo",
"oooooooooooooooooooooooo        oooo        oooo        oooooooo",
"oooooooooooooooooooooooooooo                            oooooooo",
"oooooooooooooooooooooooooooo                            oooooooo",
"oooooooooooooooooooooooooooo                            oooooooo",
"oooooooooooooooooooooooooooo                            oooooooo",
"oooooooooooooooo                XXXXXXXX                    oooo",
"oooooooooooooooo                XXXXXXXX                    oooo",
"oooooooooooooooo                XXXXXXXX                    oooo",
"oooooooooooooooo                XXXXXXXX                    oooo",
"    oooooooooooo        XXXXXXXXXXXXXXXXXXXX....            oooo",
"    oooooooooooo        XXXXXXXXXXXXXXXXXXXX....            oooo",
"    oooooooooooo        XXXXXXXXXXXXXXXXXXXX....            oooo",
"    oooooooooooo        XXXXXXXXXXXXXXXXXXXX....            oooo",
"    oooooooooooooooo    XXXX            XXXX            ....    ",
"    oooooooooooooooo    XXXX            XXXX            ....    ",
"    oooooooooooooooo    XXXX            XXXX            ....    ",
"    oooooooooooooooo    XXXX            XXXX            ....    ",
"                    XXXX            XXXX        ....            ",
"                    XXXX            XXXX        ....            ",
"                    XXXX            XXXX        ....            ",
"                    XXXX            XXXX        ....            ",
"                    XXXXXXXXXXXXXXXXXXXX                    ....",
"                    XXXXXXXXXXXXXXXXXXXX                    ....",
"                    XXXXXXXXXXXXXXXXXXXX                    ....",
"                    XXXXXXXXXXXXXXXXXXXX                    ....",
"                    XXXXXXXXXXXXXXXXXXXX                    ....",
"                    XXXXXXXXXXXXXXXXXXXX                    ....",
"                    XXXXXXXXXXXXXXXXXXXX                    ....",
"                    XXXXXXXXXXXXXXXXXXXX                    ....",
"                    XXXX            XXXX        ....            ",
"                    XXXX            XXXX        ....            ",
"                    XXXX            XXXX        ....            ",
"                    XXXX            XXXX        ....            ",
"    oooooooooooooooo    XXXX            XXXX            ....    ",
"    oooooooooooooooo    XXXX            XXXX            ....    ",
"    oooooooooooooooo    XXXX            XXXX            ....    ",
"    oooooooooooooooo    XXXX            XXXX            ....    ",
"    oooooooooooo        XXXXXXXXXXXXXXXXXXXX....            oooo",
"    oooooooooooo        XXXXXXXXXXXXXXXXXXXX....            oooo",
"    oooooooooooo        XXXXXXXXXXXXXXXXXXXX....            oooo",
"    oooooooooooo        XXXXXXXXXXXXXXXXXXXX....            oooo",
"oooooooooooooooo                XXXXXXXX                    oooo",
"oooooooooooooooo                XXXXXXXX                    oooo",
"oooooooooooooooo                XXXXXXXX                    oooo",
"oooooooooooooooo                XXXXXXXX                    oooo",
"oooooooooooooooooooooooooooo                            oooooooo",
"oooooooooooooooooooooooooooo                            oooooooo",
"oooooooooooooooooooooooooooo                            oooooooo",
"oooooooooooooooooooooooooooo                            oooooooo",
"oooooooooooooooooooooooo        oooo        oooo        oooooooo",
"oooooooooooooooooooooooo        oooo        oooo        oooooooo",
"oooooooooooooooooooooooo        oooo        oooo        oooooooo",
"oooooooooooooooooooooooo        oooo        oooo        oooooooo",
"oooooooooooooooooooooooooooooooooooooooo    oooooooo    oooooooo",
"oooooooooooooooooooooooooooooooooooooooo    oooooooo    oooooooo",
"oooooooooooooooooooooooooooooooooooooooo    oooooooo    oooooooo",
"oooooooooooooooooooooooooooooooooooooooo    oooooooo    oooooooo"
};
