/* XPM */
static char *result[] = {
/* columns rows colors chars-per-pixel */
"64 64 4 1 ",
"  c #A81000",
". c #FCA044",
"X c white",
"o c None",
/* pixels */
"oooooooooooooooo                                oooooooooooooooo",
"oooooooooooooooo                                oooooooooooooooo",
"oooooooooooooooo                                oooooooooooooooo",
"oooooooooooooooo                                oooooooooooooooo",
"oooooooooooooooooooooooo                oooooooooooooooooooooooo",
"oooooooooooooooooooooooo                oooooooooooooooooooooooo",
"oooooooooooooooooooooooo                oooooooooooooooooooooooo",
"oooooooooooooooooooooooo                oooooooooooooooooooooooo",
"oooooooooooooooooooooooo                oooooooooooooooooooooooo",
"oooooooooooooooooooooooo                oooooooooooooooooooooooo",
"oooooooooooooooooooooooo                oooooooooooooooooooooooo",
"oooooooooooooooooooooooo                oooooooooooooooooooooooo",
"oooooooooooooooooooooooo                oooooooooooooooooooooooo",
"oooooooooooooooooooooooo                oooooooooooooooooooooooo",
"oooooooooooooooooooooooo                oooooooooooooooooooooooo",
"oooooooooooooooooooooooo                oooooooooooooooooooooooo",
"oooooooooooo        oooo                oooo        oooooooooooo",
"oooooooooooo        oooo                oooo        oooooooooooo",
"oooooooooooo        oooo                oooo        oooooooooooo",
"oooooooooooo        oooo                oooo        oooooooooooo",
"oooooooooooo            XXXXXXXXXXXXXXXX            oooooooooooo",
"oooooooooooo            XXXXXXXXXXXXXXXX            oooooooooooo",
"oooooooooooo            XXXXXXXXXXXXXXXX            oooooooooooo",
"oooooooooooo            XXXXXXXXXXXXXXXX            oooooooooooo",
"oooo    oooo    XXXXXXXX    XXXXXXXX    XXXXXXXX    oooo    oooo",
"oooo    oooo    XXXXXXXX    XXXXXXXX    XXXXXXXX    oooo    oooo",
"oooo    oooo    XXXXXXXX    XXXXXXXX    XXXXXXXX    oooo    oooo",
"oooo    oooo    XXXXXXXX    XXXXXXXX    XXXXXXXX    oooo    oooo",
"oooo            XXXX        XXXXXXXX        XXXX            oooo",
"oooo            XXXX        XXXXXXXX        XXXX            oooo",
"oooo            XXXX        XXXXXXXX        XXXX            oooo",
"oooo            XXXX        XXXXXXXX        XXXX            oooo",
"oooooooo    XXXXXXXX        XXXXXXXX        XXXXXXXX    oooooooo",
"oooooooo    XXXXXXXX        XXXXXXXX        XXXXXXXX    oooooooo",
"oooooooo    XXXXXXXX        XXXXXXXX        XXXXXXXX    oooooooo",
"oooooooo    XXXXXXXX        XXXXXXXX        XXXXXXXX    oooooooo",
"oooo        XXXXXXXX    XXXXXXXXXXXXXXXX    XXXXXXXX        oooo",
"oooo        XXXXXXXX    XXXXXXXXXXXXXXXX    XXXXXXXX        oooo",
"oooo        XXXXXXXX    XXXXXXXXXXXXXXXX    XXXXXXXX        oooo",
"oooo        XXXXXXXX    XXXXXXXXXXXXXXXX    XXXXXXXX        oooo",
"                XXXXXXXX                XXXXXXXX                ",
"                XXXXXXXX                XXXXXXXX                ",
"                XXXXXXXX                XXXXXXXX                ",
"                XXXXXXXX                XXXXXXXX                ",
"oooooooo        ....                        ....        oooooooo",
"oooooooo        ....                        ....        oooooooo",
"oooooooo        ....                        ....        oooooooo",
"oooooooo        ....                        ....        oooooooo",
"oooo                    ....        ....                    oooo",
"oooo                    ....        ....                    oooo",
"oooo                    ....        ....                    oooo",
"oooo                    ....        ....                    oooo",
"                                                                ",
"                                                                ",
"                                                                ",
"                                                                ",
"oooooooooooo        ....                ....        oooooooooooo",
"oooooooooooo        ....                ....        oooooooooooo",
"oooooooooooo        ....                ....        oooooooooooo",
"oooooooooooo        ....                ....        oooooooooooo",
"oooooooooooooooooooo        ........        oooooooooooooooooooo",
"oooooooooooooooooooo        ........        oooooooooooooooooooo",
"oooooooooooooooooooo        ........        oooooooooooooooooooo",
"oooooooooooooooooooo        ........        oooooooooooooooooooo"
};
