/* XPM */
static char *result[] = {
/* columns rows colors chars-per-pixel */
"64 64 4 1 ",
"  c #A81000",
". c #FCA044",
"X c white",
"o c None",
/* pixels */
"oooooooooooooooooooooooooooo    oooooooooooo    oooooooo    oooo",
"oooooooooooooooooooooooooooo    oooooooooooo    oooooooo    oooo",
"oooooooooooooooooooooooooooo    oooooooooooo    oooooooo    oooo",
"oooooooooooooooooooooooooooo    oooooooooooo    oooooooo    oooo",
"oooooooooooooooooooooooooooo        oooo        oooo        oooo",
"oooooooooooooooooooooooooooo        oooo        oooo        oooo",
"oooooooooooooooooooooooooooo        oooo        oooo        oooo",
"oooooooooooooooooooooooooooo        oooo        oooo        oooo",
"oooooooooooooooo    oooooooo                            oooooooo",
"oooooooooooooooo    oooooooo                            oooooooo",
"oooooooooooooooo    oooooooo                            oooooooo",
"oooooooooooooooo    oooooooo                            oooooooo",
"oooooooooooooooo                XXXXXXXX            ....    oooo",
"oooooooooooooooo                XXXXXXXX            ....    oooo",
"oooooooooooooooo                XXXXXXXX            ....    oooo",
"oooooooooooooooo                XXXXXXXX            ....    oooo",
"oooooooo    oooooooo    XXXXXXXXXXXXXXXXXXXX....            oooo",
"oooooooo    oooooooo    XXXXXXXXXXXXXXXXXXXX....            oooo",
"oooooooo    oooooooo    XXXXXXXXXXXXXXXXXXXX....            oooo",
"oooooooo    oooooooo    XXXXXXXXXXXXXXXXXXXX....            oooo",
"oooooooo        oooo    XXXX            XXXX            ....    ",
"oooooooo        oooo    XXXX            XXXX            ....    ",
"oooooooo        oooo    XXXX            XXXX            ....    ",
"oooooooo        oooo    XXXX            XXXX            ....    ",
"oooooooo            XXXX            XXXX        ....            ",
"oooooooo            XXXX            XXXX        ....            ",
"oooooooo            XXXX            XXXX        ....            ",
"oooooooo            XXXX            XXXX        ....            ",
"oooooooo            XXXXXXXXXXXXXXXXXXXX                    ....",
"oooooooo            XXXXXXXXXXXXXXXXXXXX                    ....",
"oooooooo            XXXXXXXXXXXXXXXXXXXX                    ....",
"oooooooo            XXXXXXXXXXXXXXXXXXXX                    ....",
"oooooooo            XXXXXXXXXXXXXXXXXXXX                    ....",
"oooooooo            XXXXXXXXXXXXXXXXXXXX                    ....",
"oooooooo            XXXXXXXXXXXXXXXXXXXX                    ....",
"oooooooo            XXXXXXXXXXXXXXXXXXXX                    ....",
"oooooooo            XXXX            XXXX        ....            ",
"oooooooo            XXXX            XXXX        ....            ",
"oooooooo            XXXX            XXXX        ....            ",
"oooooooo            XXXX            XXXX        ....            ",
"oooooooo        oooo    XXXX            XXXX            ....    ",
"oooooooo        oooo    XXXX            XXXX            ....    ",
"oooooooo        oooo    XXXX            XXXX            ....    ",
"oooooooo        oooo    XXXX            XXXX            ....    ",
"oooooooo    oooooooo    XXXXXXXXXXXXXXXXXXXX....                ",
"oooooooo    oooooooo    XXXXXXXXXXXXXXXXXXXX....                ",
"oooooooo    oooooooo    XXXXXXXXXXXXXXXXXXXX....                ",
"oooooooo    oooooooo    XXXXXXXXXXXXXXXXXXXX....                ",
"oooooooooooooooo                XXXXXXXX            ....    oooo",
"oooooooooooooooo                XXXXXXXX            ....    oooo",
"oooooooooooooooo                XXXXXXXX            ....    oooo",
"oooooooooooooooo                XXXXXXXX            ....    oooo",
"oooooooooooooooo    oooooooo                            oooooooo",
"oooooooooooooooo    oooooooo                            oooooooo",
"oooooooooooooooo    oooooooo                            oooooooo",
"oooooooooooooooo    oooooooo                            oooooooo",
"oooooooooooooooooooooooooooo        oooo        oooo        oooo",
"oooooooooooooooooooooooooooo        oooo        oooo        oooo",
"oooooooooooooooooooooooooooo        oooo        oooo        oooo",
"oooooooooooooooooooooooooooo        oooo        oooo        oooo",
"oooooooooooooooooooooooooooo    oooooooooooo    oooooooo    oooo",
"oooooooooooooooooooooooooooo    oooooooooooo    oooooooo    oooo",
"oooooooooooooooooooooooooooo    oooooooooooo    oooooooo    oooo",
"oooooooooooooooooooooooooooo    oooooooooooo    oooooooo    oooo"
};
