/* XPM */
static char *result[] = {
/* columns rows colors chars-per-pixel */
"64 64 4 1 ",
"  c #A81000",
". c #FCA044",
"X c white",
"o c None",
/* pixels */
"oooooooooooooooooooo        ........            oooooooooooooooo",
"oooooooooooooooooooo        ........            oooooooooooooooo",
"oooooooooooooooooooo        ........            oooooooooooooooo",
"oooooooooooooooooooo        ........            oooooooooooooooo",
"        oooo        ....                ....        oooo        ",
"        oooo        ....                ....        oooo        ",
"        oooo        ....                ....        oooo        ",
"        oooo        ....                ....        oooo        ",
"oooo        ....                                ....        oooo",
"oooo        ....                                ....        oooo",
"oooo        ....                                ....        oooo",
"oooo        ....                                ....        oooo",
"oooooooo                ....        ....                oooooooo",
"oooooooo                ....        ....                oooooooo",
"oooooooo                ....        ....                oooooooo",
"oooooooo                ....        ....                oooooooo",
"                ....                        ....                ",
"                ....                        ....                ",
"                ....                        ....                ",
"                ....                        ....                ",
"oooo            XXXXXXXX                XXXXXXXX            oooo",
"oooo            XXXXXXXX                XXXXXXXX            oooo",
"oooo            XXXXXXXX                XXXXXXXX            oooo",
"oooo            XXXXXXXX                XXXXXXXX            oooo",
"oooooooo    XXXXXXXX    XXXXXXXXXXXXXXXX    XXXXXXXX    oooooooo",
"oooooooo    XXXXXXXX    XXXXXXXXXXXXXXXX    XXXXXXXX    oooooooo",
"oooooooo    XXXXXXXX    XXXXXXXXXXXXXXXX    XXXXXXXX    oooooooo",
"oooooooo    XXXXXXXX    XXXXXXXXXXXXXXXX    XXXXXXXX    oooooooo",
"oooo        XXXXXXXX        XXXXXXXX        XXXXXXXX        oooo",
"oooo        XXXXXXXX        XXXXXXXX        XXXXXXXX        oooo",
"oooo        XXXXXXXX        XXXXXXXX        XXXXXXXX        oooo",
"oooo        XXXXXXXX        XXXXXXXX        XXXXXXXX        oooo",
"                XXXX        XXXXXXXX        XXXX                ",
"                XXXX        XXXXXXXX        XXXX                ",
"                XXXX        XXXXXXXX        XXXX                ",
"                XXXX        XXXXXXXX        XXXX                ",
"oooooooooooo    XXXXXXXX    XXXXXXXX    XXXXXXXX    oooooooooooo",
"oooooooooooo    XXXXXXXX    XXXXXXXX    XXXXXXXX    oooooooooooo",
"oooooooooooo    XXXXXXXX    XXXXXXXX    XXXXXXXX    oooooooooooo",
"oooooooooooo    XXXXXXXX    XXXXXXXX    XXXXXXXX    oooooooooooo",
"oooooooooooo            XXXXXXXXXXXXXXXX            oooooooooooo",
"oooooooooooo            XXXXXXXXXXXXXXXX            oooooooooooo",
"oooooooooooo            XXXXXXXXXXXXXXXX            oooooooooooo",
"oooooooooooo            XXXXXXXXXXXXXXXX            oooooooooooo",
"oooooooo        oooooooo                oooooooo        oooooooo",
"oooooooo        oooooooo                oooooooo        oooooooo",
"oooooooo        oooooooo                oooooooo        oooooooo",
"oooooooo        oooooooo                oooooooo        oooooooo",
"oooooooooooooooooooo                        oooooooooooooooooooo",
"oooooooooooooooooooo                        oooooooooooooooooooo",
"oooooooooooooooooooo                        oooooooooooooooooooo",
"oooooooooooooooooooo                        oooooooooooooooooooo",
"oooooooooooooooo                                oooooooooooooooo",
"oooooooooooooooo                                oooooooooooooooo",
"oooooooooooooooo                                oooooooooooooooo",
"oooooooooooooooo                                oooooooooooooooo",
"oooooooooooooooooooooooooooooooooooooooooooooooooooooooooooooooo",
"oooooooooooooooooooooooooooooooooooooooooooooooooooooooooooooooo",
"oooooooooooooooooooooooooooooooooooooooooooooooooooooooooooooooo",
"oooooooooooooooooooooooooooooooooooooooooooooooooooooooooooooooo",
"oooooooooooooooooooooooooooooooooooooooooooooooooooooooooooooooo",
"oooooooooooooooooooooooooooooooooooooooooooooooooooooooooooooooo",
"oooooooooooooooooooooooooooooooooooooooooooooooooooooooooooooooo",
"oooooooooooooooooooooooooooooooooooooooooooooooooooooooooooooooo"
};
