/* XPM */
static char *result[] = {
/* columns rows colors chars-per-pixel */
"64 64 4 1 ",
"  c #A81000",
". c #FCA044",
"X c white",
"o c None",
/* pixels */
"oooooooo    oooooooo    oooooooooooooooooooooooooooooooooooooooo",
"oooooooo    oooooooo    oooooooooooooooooooooooooooooooooooooooo",
"oooooooo    oooooooo    oooooooooooooooooooooooooooooooooooooooo",
"oooooooo    oooooooo    oooooooooooooooooooooooooooooooooooooooo",
"oooooooo        oooo        oooo        oooooooooooooooooooooooo",
"oooooooo        oooo        oooo        oooooooooooooooooooooooo",
"oooooooo        oooo        oooo        oooooooooooooooooooooooo",
"oooooooo        oooo        oooo        oooooooooooooooooooooooo",
"oooooooo                            oooooooooooooooooooooooooooo",
"oooooooo                            oooooooooooooooooooooooooooo",
"oooooooo                            oooooooooooooooooooooooooooo",
"oooooooo                            oooooooooooooooooooooooooooo",
"oooo                    XXXXXXXX                oooooooooooooooo",
"oooo                    XXXXXXXX                oooooooooooooooo",
"oooo                    XXXXXXXX                oooooooooooooooo",
"oooo                    XXXXXXXX                oooooooooooooooo",
"oooo            ....XXXXXXXXXXXXXXXXXXXX        oooooooooooo    ",
"oooo            ....XXXXXXXXXXXXXXXXXXXX        oooooooooooo    ",
"oooo            ....XXXXXXXXXXXXXXXXXXXX        oooooooooooo    ",
"oooo            ....XXXXXXXXXXXXXXXXXXXX        oooooooooooo    ",
"    ....            XXXX            XXXX    oooooooooooooooo    ",
"    ....            XXXX            XXXX    oooooooooooooooo    ",
"    ....            XXXX            XXXX    oooooooooooooooo    ",
"    ....            XXXX            XXXX    oooooooooooooooo    ",
"            ....        XXXX            XXXX                    ",
"            ....        XXXX            XXXX                    ",
"            ....        XXXX            XXXX                    ",
"            ....        XXXX            XXXX                    ",
"....                    XXXXXXXXXXXXXXXXXXXX                    ",
"....                    XXXXXXXXXXXXXXXXXXXX                    ",
"....                    XXXXXXXXXXXXXXXXXXXX                    ",
"....                    XXXXXXXXXXXXXXXXXXXX                    ",
"....                    XXXXXXXXXXXXXXXXXXXX                    ",
"....                    XXXXXXXXXXXXXXXXXXXX                    ",
"....                    XXXXXXXXXXXXXXXXXXXX                    ",
"....                    XXXXXXXXXXXXXXXXXXXX                    ",
"            ....        XXXX            XXXX                    ",
"            ....        XXXX            XXXX                    ",
"            ....        XXXX            XXXX                    ",
"            ....        XXXX            XXXX                    ",
"    ....            XXXX            XXXX    oooooooooooooooo    ",
"    ....            XXXX            XXXX    oooooooooooooooo    ",
"    ....            XXXX            XXXX    oooooooooooooooo    ",
"    ....            XXXX            XXXX    oooooooooooooooo    ",
"oooo            ....XXXXXXXXXXXXXXXXXXXX        oooooooooooo    ",
"oooo            ....XXXXXXXXXXXXXXXXXXXX        oooooooooooo    ",
"oooo            ....XXXXXXXXXXXXXXXXXXXX        oooooooooooo    ",
"oooo            ....XXXXXXXXXXXXXXXXXXXX        oooooooooooo    ",
"oooo                    XXXXXXXX                oooooooooooooooo",
"oooo                    XXXXXXXX                oooooooooooooooo",
"oooo                    XXXXXXXX                oooooooooooooooo",
"oooo                    XXXXXXXX                oooooooooooooooo",
"oooooooo                            oooooooooooooooooooooooooooo",
"oooooooo                            oooooooooooooooooooooooooooo",
"oooooooo                            oooooooooooooooooooooooooooo",
"oooooooo                            oooooooooooooooooooooooooooo",
"oooooooo        oooo        oooo        oooooooooooooooooooooooo",
"oooooooo        oooo        oooo        oooooooooooooooooooooooo",
"oooooooo        oooo        oooo        oooooooooooooooooooooooo",
"oooooooo        oooo        oooo        oooooooooooooooooooooooo",
"oooooooo    oooooooo    oooooooooooooooooooooooooooooooooooooooo",
"oooooooo    oooooooo    oooooooooooooooooooooooooooooooooooooooo",
"oooooooo    oooooooo    oooooooooooooooooooooooooooooooooooooooo",
"oooooooo    oooooooo    oooooooooooooooooooooooooooooooooooooooo"
};
