/* XPM */
static char *result[] = {
/* columns rows colors chars-per-pixel */
"64 64 4 1 ",
"  c #E45C10",
". c #58D854",
"X c #FCA044",
"o c None",
/* pixels */
"oooooooooooooooooooo................oooooooooooooooooooooooooooo",
"oooooooooooooooooooo................oooooooooooooooooooooooooooo",
"oooooooooooooooooooo................oooooooooooooooooooooooooooo",
"oooooooooooooooooooo................oooooooooooooooooooooooooooo",
"oooooooooooo....................                oooooooooooooooo",
"oooooooooooo....................                oooooooooooooooo",
"oooooooooooo....................                oooooooooooooooo",
"oooooooooooo....................                oooooooooooooooo",
"oooo............XXXX........                        oooooooooooo",
"oooo............XXXX........                        oooooooooooo",
"oooo............XXXX........                        oooooooooooo",
"oooo............XXXX........                        oooooooooooo",
"................XXXXXXXX                        oooooooooooooooo",
"................XXXXXXXX                        oooooooooooooooo",
"................XXXXXXXX                        oooooooooooooooo",
"................XXXXXXXX                        oooooooooooooooo",
"....oooo........XXXXXXXXXXXX    XXXXXXXX....XXXXoooooooo    oooo",
"....oooo........XXXXXXXXXXXX    XXXXXXXX....XXXXoooooooo    oooo",
"....oooo........XXXXXXXXXXXX    XXXXXXXX....XXXXoooooooo    oooo",
"....oooo........XXXXXXXXXXXX    XXXXXXXX....XXXXoooooooo    oooo",
"oooooooo....        XXXXXXXX    XXXXXXXX    XXXXXXXXXXXX    oooo",
"oooooooo....        XXXXXXXX    XXXXXXXX    XXXXXXXXXXXX    oooo",
"oooooooo....        XXXXXXXX    XXXXXXXX    XXXXXXXXXXXX    oooo",
"oooooooo....        XXXXXXXX    XXXXXXXX    XXXXXXXXXXXX    oooo",
"oooooooooooo            XXXXXXXXXXXXXXXXXXXXXXXXoooooooo    oooo",
"oooooooooooo            XXXXXXXXXXXXXXXXXXXXXXXXoooooooo    oooo",
"oooooooooooo            XXXXXXXXXXXXXXXXXXXXXXXXoooooooo    oooo",
"oooooooooooo            XXXXXXXXXXXXXXXXXXXXXXXXoooooooo    oooo",
"oooooooooooooooo................XXXXXXXXXXXXXXXXoooooooo    oooo",
"oooooooooooooooo................XXXXXXXXXXXXXXXXoooooooo    oooo",
"oooooooooooooooo................XXXXXXXXXXXXXXXXoooooooo    oooo",
"oooooooooooooooo................XXXXXXXXXXXXXXXXoooooooo    oooo",
"oooooooo    ............................            XXXX    oooo",
"oooooooo    ............................            XXXX    oooo",
"oooooooo    ............................            XXXX    oooo",
"oooooooo    ............................            XXXX    oooo",
"oooo            ....XXXXXXXXXXXX............        XXXX    oooo",
"oooo            ....XXXXXXXXXXXX............        XXXX    oooo",
"oooo            ....XXXXXXXXXXXX............        XXXX    oooo",
"oooo            ....XXXXXXXXXXXX............        XXXX    oooo",
"oooo                XXXXXXXXXXXX............        oooo    oooo",
"oooo                XXXXXXXXXXXX............        oooo    oooo",
"oooo                XXXXXXXXXXXX............        oooo    oooo",
"oooo                XXXXXXXXXXXX............        oooo    oooo",
"oooo                XXXXXXXX............    oooooooooooo    oooo",
"oooo                XXXXXXXX............    oooooooooooo    oooo",
"oooo                XXXXXXXX............    oooooooooooo    oooo",
"oooo                XXXXXXXX............    oooooooooooo    oooo",
"oooooooo....        ........                oooooooooooo    oooo",
"oooooooo....        ........                oooooooooooo    oooo",
"oooooooo....        ........                oooooooooooo    oooo",
"oooooooo....        ........                oooooooooooo    oooo",
"oooo........................................oooooooooooooooooooo",
"oooo........................................oooooooooooooooooooo",
"oooo........................................oooooooooooooooooooo",
"oooo........................................oooooooooooooooooooo",
"oooooooooooooooo                oooooooooooooooooooooooooooooooo",
"oooooooooooooooo                oooooooooooooooooooooooooooooooo",
"oooooooooooooooo                oooooooooooooooooooooooooooooooo",
"oooooooooooooooo                oooooooooooooooooooooooooooooooo",
"oooooooooooooooo                    oooooooooooooooooooooooooooo",
"oooooooooooooooo                    oooooooooooooooooooooooooooo",
"oooooooooooooooo                    oooooooooooooooooooooooooooo",
"oooooooooooooooo                    oooooooooooooooooooooooooooo"
};
