/* XPM */
static char *result[] = {
/* columns rows colors chars-per-pixel */
"64 64 4 1 ",
"  c #E45C10",
". c #58D854",
"X c #FCA044",
"o c None",
/* pixels */
"oooooooooooooooooooo........................oooooooooooooooooooo",
"oooooooooooooooooooo........................oooooooooooooooooooo",
"oooooooooooooooooooo........................oooooooooooooooooooo",
"oooooooooooooooooooo........................oooooooooooooooooooo",
"oooooooooooooooo................................oooooooooooooooo",
"oooooooooooooooo................................oooooooooooooooo",
"oooooooooooooooo................................oooooooooooooooo",
"oooooooooooooooo................................oooooooooooooooo",
"ooooooooXXXXoooo....                        ....ooooXXXXoooooooo",
"ooooooooXXXXoooo....                        ....ooooXXXXoooooooo",
"ooooooooXXXXoooo....                        ....ooooXXXXoooooooo",
"ooooooooXXXXoooo....                        ....ooooXXXXoooooooo",
"ooooooooXXXXoooo                                ooooXXXXoooooooo",
"ooooooooXXXXoooo                                ooooXXXXoooooooo",
"ooooooooXXXXoooo                                ooooXXXXoooooooo",
"ooooooooXXXXoooo                                ooooXXXXoooooooo",
"ooooooooXXXXXXXX    XXXX....XXXXXXXX....XXXX    XXXXXXXXoooooooo",
"ooooooooXXXXXXXX    XXXX....XXXXXXXX....XXXX    XXXXXXXXoooooooo",
"ooooooooXXXXXXXX    XXXX....XXXXXXXX....XXXX    XXXXXXXXoooooooo",
"ooooooooXXXXXXXX    XXXX....XXXXXXXX....XXXX    XXXXXXXXoooooooo",
"ooooooooXXXXXXXX    XXXX    XXXXXXXX    XXXX    XXXXXXXXoooooooo",
"ooooooooXXXXXXXX    XXXX    XXXXXXXX    XXXX    XXXXXXXXoooooooo",
"ooooooooXXXXXXXX    XXXX    XXXXXXXX    XXXX    XXXXXXXXoooooooo",
"ooooooooXXXXXXXX    XXXX    XXXXXXXX    XXXX    XXXXXXXXoooooooo",
"ooooooooooooXXXXXXXXXXXXXXXXXXXXXXXXXXXXXXXXXXXXXXXX    oooooooo",
"ooooooooooooXXXXXXXXXXXXXXXXXXXXXXXXXXXXXXXXXXXXXXXX    oooooooo",
"ooooooooooooXXXXXXXXXXXXXXXXXXXXXXXXXXXXXXXXXXXXXXXX    oooooooo",
"ooooooooooooXXXXXXXXXXXXXXXXXXXXXXXXXXXXXXXXXXXXXXXX    oooooooo",
"oooooooooooooooo....XXXXXXXX        XXXXXXXX....        oooooooo",
"oooooooooooooooo....XXXXXXXX        XXXXXXXX....        oooooooo",
"oooooooooooooooo....XXXXXXXX        XXXXXXXX....        oooooooo",
"oooooooooooooooo....XXXXXXXX        XXXXXXXX....        oooooooo",
"oooooooo                    XXXXXXXXXXXX............XXXXoooooooo",
"oooooooo                    XXXXXXXXXXXX............XXXXoooooooo",
"oooooooo                    XXXXXXXXXXXX............XXXXoooooooo",
"oooooooo                    XXXXXXXXXXXX............XXXXoooooooo",
"oooo        XXXX                ....................XXXXoooooooo",
"oooo        XXXX                ....................XXXXoooooooo",
"oooo        XXXX                ....................XXXXoooooooo",
"oooo        XXXX                ....................XXXXoooooooo",
"oooo    XXXXXXXXXXXX        XXXX        ........    oooooooooooo",
"oooo    XXXXXXXXXXXX        XXXX        ........    oooooooooooo",
"oooo    XXXXXXXXXXXX        XXXX        ........    oooooooooooo",
"oooo    XXXXXXXXXXXX        XXXX        ........    oooooooooooo",
"oooo        XXXX            XXXX....            ....oooooooooooo",
"oooo        XXXX            XXXX....            ....oooooooooooo",
"oooo        XXXX            XXXX....            ....oooooooooooo",
"oooo        XXXX            XXXX....            ....oooooooooooo",
"oooo        XXXX            XXXX        ............oooooooooooo",
"oooo        XXXX            XXXX        ............oooooooooooo",
"oooo        XXXX            XXXX        ............oooooooooooo",
"oooo        XXXX            XXXX        ............oooooooooooo",
"oooo                        XXXX............    oooooooooooooooo",
"oooo                        XXXX............    oooooooooooooooo",
"oooo                        XXXX............    oooooooooooooooo",
"oooo                        XXXX............    oooooooooooooooo",
"ooooooooXXXXXXXXXXXXXXXXXXXXoooooooo            oooooooooooooooo",
"ooooooooXXXXXXXXXXXXXXXXXXXXoooooooo            oooooooooooooooo",
"ooooooooXXXXXXXXXXXXXXXXXXXXoooooooo            oooooooooooooooo",
"ooooooooXXXXXXXXXXXXXXXXXXXXoooooooo            oooooooooooooooo",
"oooooooooooooooooooooooooooooooooooo            oooooooooooooooo",
"oooooooooooooooooooooooooooooooooooo            oooooooooooooooo",
"oooooooooooooooooooooooooooooooooooo            oooooooooooooooo",
"oooooooooooooooooooooooooooooooooooo            oooooooooooooooo"
};
