/* XPM */
static char *result[] = {
/* columns rows colors chars-per-pixel */
"64 64 4 1 ",
"  c #E45C10",
". c #58D854",
"X c #FCA044",
"o c None",
/* pixels */
"oooooooooooooooooooo........................oooooooooooooooooooo",
"oooooooooooooooooooo........................oooooooooooooooooooo",
"oooooooooooooooooooo........................oooooooooooooooooooo",
"oooooooooooooooooooo........................oooooooooooooooooooo",
"oooooooooooooooo................................oooooooooooooooo",
"oooooooooooooooo................................oooooooooooooooo",
"oooooooooooooooo................................oooooooooooooooo",
"oooooooooooooooo................................oooooooooooooooo",
"ooooooooXXXXoooo................................ooooXXXXoooooooo",
"ooooooooXXXXoooo................................ooooXXXXoooooooo",
"ooooooooXXXXoooo................................ooooXXXXoooooooo",
"ooooooooXXXXoooo................................ooooXXXXoooooooo",
"ooooooooXXXX........................................XXXXoooooooo",
"ooooooooXXXX........................................XXXXoooooooo",
"ooooooooXXXX........................................XXXXoooooooo",
"ooooooooXXXX........................................XXXXoooooooo",
"ooooooooXXXX    ................................    XXXXoooooooo",
"ooooooooXXXX    ................................    XXXXoooooooo",
"ooooooooXXXX    ................................    XXXXoooooooo",
"ooooooooXXXX    ................................    XXXXoooooooo",
"ooooooooXXXXXXXX        ................        XXXXXXXXoooooooo",
"ooooooooXXXXXXXX        ................        XXXXXXXXoooooooo",
"ooooooooXXXXXXXX        ................        XXXXXXXXoooooooo",
"ooooooooXXXXXXXX        ................        XXXXXXXXoooooooo",
"ooooooooooooXXXX            ........            XXXXoooooooooooo",
"ooooooooooooXXXX            ........            XXXXoooooooooooo",
"ooooooooooooXXXX            ........            XXXXoooooooooooo",
"ooooooooooooXXXX            ........            XXXXoooooooooooo",
"oooooooooooo    ....                        ....    oooooooooooo",
"oooooooooooo    ....                        ....    oooooooooooo",
"oooooooooooo    ....                        ....    oooooooooooo",
"oooooooooooo    ....                        ....    oooooooooooo",
"oooooooooooo        ............................        oooooooo",
"oooooooooooo        ............................        oooooooo",
"oooooooooooo        ............................        oooooooo",
"oooooooooooo        ............................        oooooooo",
"ooooooooXXXX        ............................        oooooooo",
"ooooooooXXXX        ............................        oooooooo",
"ooooooooXXXX        ............................        oooooooo",
"ooooooooXXXX        ............................        oooooooo",
"ooooooooXXXX        ........................        oooooooooooo",
"ooooooooXXXX        ........................        oooooooooooo",
"ooooooooXXXX        ........................        oooooooooooo",
"ooooooooXXXX        ........................        oooooooooooo",
"ooooooooXXXXXXXX....                        ........oooooooooooo",
"ooooooooXXXXXXXX....                        ........oooooooooooo",
"ooooooooXXXXXXXX....                        ........oooooooooooo",
"ooooooooXXXXXXXX....                        ........oooooooooooo",
"oooooooooooo........................................oooooooooooo",
"oooooooooooo........................................oooooooooooo",
"oooooooooooo........................................oooooooooooo",
"oooooooooooo........................................oooooooooooo",
"oooooooooooooooo    ....................            oooooooooooo",
"oooooooooooooooo    ....................            oooooooooooo",
"oooooooooooooooo    ....................            oooooooooooo",
"oooooooooooooooo    ....................            oooooooooooo",
"oooooooooooooooooooo        oooooooo                oooooooooooo",
"oooooooooooooooooooo        oooooooo                oooooooooooo",
"oooooooooooooooooooo        oooooooo                oooooooooooo",
"oooooooooooooooooooo        oooooooo                oooooooooooo",
"oooooooooooooooooooooooooooooooooooooooo        oooooooooooooooo",
"oooooooooooooooooooooooooooooooooooooooo        oooooooooooooooo",
"oooooooooooooooooooooooooooooooooooooooo        oooooooooooooooo",
"oooooooooooooooooooooooooooooooooooooooo        oooooooooooooooo"
};
