/* XPM */
static char *result[] = {
/* columns rows colors chars-per-pixel */
"64 64 4 1 ",
"  c #E45C10",
". c #58D854",
"X c #FCA044",
"o c None",
/* pixels */
"oooooooooooooooooooooooooooo................oooooooooooooooooooo",
"oooooooooooooooooooooooooooo................oooooooooooooooooooo",
"oooooooooooooooooooooooooooo................oooooooooooooooooooo",
"oooooooooooooooooooooooooooo................oooooooooooooooooooo",
"oooooooooooooooo                ....................oooooooooooo",
"oooooooooooooooo                ....................oooooooooooo",
"oooooooooooooooo                ....................oooooooooooo",
"oooooooooooooooo                ....................oooooooooooo",
"oooooooooooo                        ........XXXX............oooo",
"oooooooooooo                        ........XXXX............oooo",
"oooooooooooo                        ........XXXX............oooo",
"oooooooooooo                        ........XXXX............oooo",
"oooooooooooooooo                        XXXXXXXX................",
"oooooooooooooooo                        XXXXXXXX................",
"oooooooooooooooo                        XXXXXXXX................",
"oooooooooooooooo                        XXXXXXXX................",
"oooo    ooooooooXXXX....XXXXXXXX    XXXXXXXXXXXX........oooo....",
"oooo    ooooooooXXXX....XXXXXXXX    XXXXXXXXXXXX........oooo....",
"oooo    ooooooooXXXX....XXXXXXXX    XXXXXXXXXXXX........oooo....",
"oooo    ooooooooXXXX....XXXXXXXX    XXXXXXXXXXXX........oooo....",
"oooo    XXXXXXXXXXXX    XXXXXXXX    XXXXXXXX        ....oooooooo",
"oooo    XXXXXXXXXXXX    XXXXXXXX    XXXXXXXX        ....oooooooo",
"oooo    XXXXXXXXXXXX    XXXXXXXX    XXXXXXXX        ....oooooooo",
"oooo    XXXXXXXXXXXX    XXXXXXXX    XXXXXXXX        ....oooooooo",
"oooo    ooooooooXXXXXXXXXXXXXXXXXXXXXXXX            oooooooooooo",
"oooo    ooooooooXXXXXXXXXXXXXXXXXXXXXXXX            oooooooooooo",
"oooo    ooooooooXXXXXXXXXXXXXXXXXXXXXXXX            oooooooooooo",
"oooo    ooooooooXXXXXXXXXXXXXXXXXXXXXXXX            oooooooooooo",
"oooo    ooooooooXXXXXXXXXXXXXXXX................oooooooooooooooo",
"oooo    ooooooooXXXXXXXXXXXXXXXX................oooooooooooooooo",
"oooo    ooooooooXXXXXXXXXXXXXXXX................oooooooooooooooo",
"oooo    ooooooooXXXXXXXXXXXXXXXX................oooooooooooooooo",
"oooo    XXXX            ............................    oooooooo",
"oooo    XXXX            ............................    oooooooo",
"oooo    XXXX            ............................    oooooooo",
"oooo    XXXX            ............................    oooooooo",
"oooo    XXXX        ............XXXXXXXXXXXX....            oooo",
"oooo    XXXX        ............XXXXXXXXXXXX....            oooo",
"oooo    XXXX        ............XXXXXXXXXXXX....            oooo",
"oooo    XXXX        ............XXXXXXXXXXXX....            oooo",
"oooo    oooo        ............XXXXXXXXXXXX                oooo",
"oooo    oooo        ............XXXXXXXXXXXX                oooo",
"oooo    oooo        ............XXXXXXXXXXXX                oooo",
"oooo    oooo        ............XXXXXXXXXXXX                oooo",
"oooo    oooooooooooo    ............XXXXXXXX                oooo",
"oooo    oooooooooooo    ............XXXXXXXX                oooo",
"oooo    oooooooooooo    ............XXXXXXXX                oooo",
"oooo    oooooooooooo    ............XXXXXXXX                oooo",
"oooo    oooooooooooo                ........        ....oooooooo",
"oooo    oooooooooooo                ........        ....oooooooo",
"oooo    oooooooooooo                ........        ....oooooooo",
"oooo    oooooooooooo                ........        ....oooooooo",
"oooooooooooooooooooo........................................oooo",
"oooooooooooooooooooo........................................oooo",
"oooooooooooooooooooo........................................oooo",
"oooooooooooooooooooo........................................oooo",
"oooooooooooooooooooooooooooooooo                oooooooooooooooo",
"oooooooooooooooooooooooooooooooo                oooooooooooooooo",
"oooooooooooooooooooooooooooooooo                oooooooooooooooo",
"oooooooooooooooooooooooooooooooo                oooooooooooooooo",
"oooooooooooooooooooooooooooo                    oooooooooooooooo",
"oooooooooooooooooooooooooooo                    oooooooooooooooo",
"oooooooooooooooooooooooooooo                    oooooooooooooooo",
"oooooooooooooooooooooooooooo                    oooooooooooooooo"
};
