/* XPM */
static char *result[] = {
/* columns rows colors chars-per-pixel */
"64 64 4 1 ",
"  c #E45C10",
". c #58D854",
"X c #FCA044",
"o c None",
/* pixels */
"oooooooooooooooooooo........................oooooooooooooooooooo",
"oooooooooooooooooooo........................oooooooooooooooooooo",
"oooooooooooooooooooo........................oooooooooooooooooooo",
"oooooooooooooooooooo........................oooooooooooooooooooo",
"oooooooooooooooo................................oooooooooooooooo",
"oooooooooooooooo................................oooooooooooooooo",
"oooooooooooooooo................................oooooooooooooooo",
"oooooooooooooooo................................oooooooooooooooo",
"ooooooooXXXXoooo....                        ....ooooXXXXoooooooo",
"ooooooooXXXXoooo....                        ....ooooXXXXoooooooo",
"ooooooooXXXXoooo....                        ....ooooXXXXoooooooo",
"ooooooooXXXXoooo....                        ....ooooXXXXoooooooo",
"ooooooooXXXXoooo                                ooooXXXXoooooooo",
"ooooooooXXXXoooo                                ooooXXXXoooooooo",
"ooooooooXXXXoooo                                ooooXXXXoooooooo",
"ooooooooXXXXoooo                                ooooXXXXoooooooo",
"ooooooooXXXXXXXX    XXXX....XXXXXXXX....XXXX    XXXXXXXXoooooooo",
"ooooooooXXXXXXXX    XXXX....XXXXXXXX....XXXX    XXXXXXXXoooooooo",
"ooooooooXXXXXXXX    XXXX....XXXXXXXX....XXXX    XXXXXXXXoooooooo",
"ooooooooXXXXXXXX    XXXX....XXXXXXXX....XXXX    XXXXXXXXoooooooo",
"ooooooooXXXXXXXX    XXXX    XXXXXXXX    XXXX    XXXXXXXXoooooooo",
"ooooooooXXXXXXXX    XXXX    XXXXXXXX    XXXX    XXXXXXXXoooooooo",
"ooooooooXXXXXXXX    XXXX    XXXXXXXX    XXXX    XXXXXXXXoooooooo",
"ooooooooXXXXXXXX    XXXX    XXXXXXXX    XXXX    XXXXXXXXoooooooo",
"ooooooooooooXXXXXXXXXXXXXXXXXXXXXXXXXXXXXXXXXXXXXXXX    oooooooo",
"ooooooooooooXXXXXXXXXXXXXXXXXXXXXXXXXXXXXXXXXXXXXXXX    oooooooo",
"ooooooooooooXXXXXXXXXXXXXXXXXXXXXXXXXXXXXXXXXXXXXXXX    oooooooo",
"ooooooooooooXXXXXXXXXXXXXXXXXXXXXXXXXXXXXXXXXXXXXXXX    oooooooo",
"oooooooooooo........XXXXXXXX        XXXXXXXX........    oooooooo",
"oooooooooooo........XXXXXXXX        XXXXXXXX........    oooooooo",
"oooooooooooo........XXXXXXXX        XXXXXXXX........    oooooooo",
"oooooooooooo........XXXXXXXX        XXXXXXXX........    oooooooo",
"oooo                    XXXXXXXXXXXXXXXX........            oooo",
"oooo                    XXXXXXXXXXXXXXXX........            oooo",
"oooo                    XXXXXXXXXXXXXXXX........            oooo",
"oooo                    XXXXXXXXXXXXXXXX........            oooo",
"        XXXX                ....................XXXX        oooo",
"        XXXX                ....................XXXX        oooo",
"        XXXX                ....................XXXX        oooo",
"        XXXX                ....................XXXX        oooo",
"    XXXXXXXXXXXX        XXXX        ........XXXXXXXXXXXX    oooo",
"    XXXXXXXXXXXX        XXXX        ........XXXXXXXXXXXX    oooo",
"    XXXXXXXXXXXX        XXXX        ........XXXXXXXXXXXX    oooo",
"    XXXXXXXXXXXX        XXXX        ........XXXXXXXXXXXX    oooo",
"        XXXX            XXXX....                XXXXXXXXXXXXoooo",
"        XXXX            XXXX....                XXXXXXXXXXXXoooo",
"        XXXX            XXXX....                XXXXXXXXXXXXoooo",
"        XXXX            XXXX....                XXXXXXXXXXXXoooo",
"        XXXX            XXXX        ................XXXXoooooooo",
"        XXXX            XXXX        ................XXXXoooooooo",
"        XXXX            XXXX        ................XXXXoooooooo",
"        XXXX            XXXX        ................XXXXoooooooo",
"                        XXXX....................oooooooooooooooo",
"                        XXXX....................oooooooooooooooo",
"                        XXXX....................oooooooooooooooo",
"                        XXXX....................oooooooooooooooo",
"ooooXXXXXXXXXXXXXXXXXXXX    oooooooo            oooooooooooooooo",
"ooooXXXXXXXXXXXXXXXXXXXX    oooooooo            oooooooooooooooo",
"ooooXXXXXXXXXXXXXXXXXXXX    oooooooo            oooooooooooooooo",
"ooooXXXXXXXXXXXXXXXXXXXX    oooooooo            oooooooooooooooo",
"oooooooooooooooo            oooooooooooooooooooooooooooooooooooo",
"oooooooooooooooo            oooooooooooooooooooooooooooooooooooo",
"oooooooooooooooo            oooooooooooooooooooooooooooooooooooo",
"oooooooooooooooo            oooooooooooooooooooooooooooooooooooo"
};
