/* XPM */
static char *result[] = {
/* columns rows colors chars-per-pixel */
"64 64 4 1 ",
"  c #E45C10",
". c #58D854",
"X c #FCA044",
"o c None",
/* pixels */
"oooooooooooooooooooooooooooooooooooooooooooooooooooooooooooooooo",
"oooooooooooooooooooooooooooooooooooooooooooooooooooooooooooooooo",
"oooooooooooooooooooooooooooooooooooooooooooooooooooooooooooooooo",
"oooooooooooooooooooooooooooooooooooooooooooooooooooooooooooooooo",
"oooooooooooooooooooo................oooooooooooooooooooooooooooo",
"oooooooooooooooooooo................oooooooooooooooooooooooooooo",
"oooooooooooooooooooo................oooooooooooooooooooooooooooo",
"oooooooooooooooooooo................oooooooooooooooooooooooooooo",
"oooooooooooo....................                oooooooooooooooo",
"oooooooooooo....................                oooooooooooooooo",
"oooooooooooo....................                oooooooooooooooo",
"oooooooooooo....................                oooooooooooooooo",
"oooo............XXXX........                        oooooooooooo",
"oooo............XXXX........                        oooooooooooo",
"oooo............XXXX........                        oooooooooooo",
"oooo............XXXX........                        oooooooooooo",
"................XXXXXXXX                        oooooooooooooooo",
"................XXXXXXXX                        oooooooooooooooo",
"................XXXXXXXX                        oooooooooooooooo",
"................XXXXXXXX                        oooooooooooooooo",
"....oooo........XXXXXXXXXXXX    XXXXXXXX....XXXXoooooooooooooooo",
"....oooo........XXXXXXXXXXXX    XXXXXXXX....XXXXoooooooooooooooo",
"....oooo........XXXXXXXXXXXX    XXXXXXXX....XXXXoooooooooooooooo",
"....oooo........XXXXXXXXXXXX    XXXXXXXX....XXXXoooooooooooooooo",
"oooooooo....        XXXXXXXX    XXXXXXXX    XXXXXXXXXXXXoooooooo",
"oooooooo....        XXXXXXXX    XXXXXXXX    XXXXXXXXXXXXoooooooo",
"oooooooo....        XXXXXXXX    XXXXXXXX    XXXXXXXXXXXXoooooooo",
"oooooooo....        XXXXXXXX    XXXXXXXX    XXXXXXXXXXXXoooooooo",
"oooooooooooo            XXXXXXXXXXXXXXXXXXXXXXXXoooo    oooooooo",
"oooooooooooo            XXXXXXXXXXXXXXXXXXXXXXXXoooo    oooooooo",
"oooooooooooo            XXXXXXXXXXXXXXXXXXXXXXXXoooo    oooooooo",
"oooooooooooo            XXXXXXXXXXXXXXXXXXXXXXXXoooo    oooooooo",
"oooooooooooooooo................XXXXXXXXXXXXXXXXoooo    oooooooo",
"oooooooooooooooo................XXXXXXXXXXXXXXXXoooo    oooooooo",
"oooooooooooooooo................XXXXXXXXXXXXXXXXoooo    oooooooo",
"oooooooooooooooo................XXXXXXXXXXXXXXXXoooo    oooooooo",
"oooooooo....        ........XXXXXXXXXXXX        XXXX    oooooooo",
"oooooooo....        ........XXXXXXXXXXXX        XXXX    oooooooo",
"oooooooo....        ........XXXXXXXXXXXX        XXXX    oooooooo",
"oooooooo....        ........XXXXXXXXXXXX        XXXX    oooooooo",
"oooooooo                    XXXXXXXXXXXX....    XXXX    oooooooo",
"oooooooo                    XXXXXXXXXXXX....    XXXX    oooooooo",
"oooooooo                    XXXXXXXXXXXX....    XXXX    oooooooo",
"oooooooo                    XXXXXXXXXXXX....    XXXX    oooooooo",
"oooo....                    XXXXXXXX........    oooo    oooooooo",
"oooo....                    XXXXXXXX........    oooo    oooooooo",
"oooo....                    XXXXXXXX........    oooo    oooooooo",
"oooo....                    XXXXXXXX........    oooo    oooooooo",
"oooo........                ............    oooooooo    oooooooo",
"oooo........                ............    oooooooo    oooooooo",
"oooo........                ............    oooooooo    oooooooo",
"oooo........                ............    oooooooo    oooooooo",
"        ....................                ....oooo    oooooooo",
"        ....................                ....oooo    oooooooo",
"        ....................                ....oooo    oooooooo",
"        ....................                ....oooo    oooooooo",
"            ................................        oooooooooooo",
"            ................................        oooooooooooo",
"            ................................        oooooooooooo",
"            ................................        oooooooooooo",
"oooo            oooooooooooooooooooo            oooooooooooooooo",
"oooo            oooooooooooooooooooo            oooooooooooooooo",
"oooo            oooooooooooooooooooo            oooooooooooooooo",
"oooo            oooooooooooooooooooo            oooooooooooooooo"
};
