/* XPM */
static char *result[] = {
/* columns rows colors chars-per-pixel */
"64 64 4 1 ",
"  c #E45C10",
". c #58D854",
"X c #FCA044",
"o c None",
/* pixels */
"oooooooooooooooooooooooooooooooooooooooooooooooooooooooooooooooo",
"oooooooooooooooooooooooooooooooooooooooooooooooooooooooooooooooo",
"oooooooooooooooooooooooooooooooooooooooooooooooooooooooooooooooo",
"oooooooooooooooooooooooooooooooooooooooooooooooooooooooooooooooo",
"oooooooooooooooooooooooooooo................oooooooooooooooooooo",
"oooooooooooooooooooooooooooo................oooooooooooooooooooo",
"oooooooooooooooooooooooooooo................oooooooooooooooooooo",
"oooooooooooooooooooooooooooo................oooooooooooooooooooo",
"oooooooooooooooo                ....................oooooooooooo",
"oooooooooooooooo                ....................oooooooooooo",
"oooooooooooooooo                ....................oooooooooooo",
"oooooooooooooooo                ....................oooooooooooo",
"oooooooooooo                        ........XXXX............oooo",
"oooooooooooo                        ........XXXX............oooo",
"oooooooooooo                        ........XXXX............oooo",
"oooooooooooo                        ........XXXX............oooo",
"oooooooooooooooo                        XXXXXXXX................",
"oooooooooooooooo                        XXXXXXXX................",
"oooooooooooooooo                        XXXXXXXX................",
"oooooooooooooooo                        XXXXXXXX................",
"ooooooooooooooooXXXX....XXXXXXXX    XXXXXXXXXXXX........oooo....",
"ooooooooooooooooXXXX....XXXXXXXX    XXXXXXXXXXXX........oooo....",
"ooooooooooooooooXXXX....XXXXXXXX    XXXXXXXXXXXX........oooo....",
"ooooooooooooooooXXXX....XXXXXXXX    XXXXXXXXXXXX........oooo....",
"ooooooooXXXXXXXXXXXX    XXXXXXXX    XXXXXXXX        ....oooooooo",
"ooooooooXXXXXXXXXXXX    XXXXXXXX    XXXXXXXX        ....oooooooo",
"ooooooooXXXXXXXXXXXX    XXXXXXXX    XXXXXXXX        ....oooooooo",
"ooooooooXXXXXXXXXXXX    XXXXXXXX    XXXXXXXX        ....oooooooo",
"oooooooo    ooooXXXXXXXXXXXXXXXXXXXXXXXX            oooooooooooo",
"oooooooo    ooooXXXXXXXXXXXXXXXXXXXXXXXX            oooooooooooo",
"oooooooo    ooooXXXXXXXXXXXXXXXXXXXXXXXX            oooooooooooo",
"oooooooo    ooooXXXXXXXXXXXXXXXXXXXXXXXX            oooooooooooo",
"oooooooo    ooooXXXXXXXXXXXXXXXX................oooooooooooooooo",
"oooooooo    ooooXXXXXXXXXXXXXXXX................oooooooooooooooo",
"oooooooo    ooooXXXXXXXXXXXXXXXX................oooooooooooooooo",
"oooooooo    ooooXXXXXXXXXXXXXXXX................oooooooooooooooo",
"oooooooo    XXXX        XXXXXXXXXXXX........        ....oooooooo",
"oooooooo    XXXX        XXXXXXXXXXXX........        ....oooooooo",
"oooooooo    XXXX        XXXXXXXXXXXX........        ....oooooooo",
"oooooooo    XXXX        XXXXXXXXXXXX........        ....oooooooo",
"oooooooo    XXXX    ....XXXXXXXXXXXX                    oooooooo",
"oooooooo    XXXX    ....XXXXXXXXXXXX                    oooooooo",
"oooooooo    XXXX    ....XXXXXXXXXXXX                    oooooooo",
"oooooooo    XXXX    ....XXXXXXXXXXXX                    oooooooo",
"oooooooo    oooo    ........XXXXXXXX                    ....oooo",
"oooooooo    oooo    ........XXXXXXXX                    ....oooo",
"oooooooo    oooo    ........XXXXXXXX                    ....oooo",
"oooooooo    oooo    ........XXXXXXXX                    ....oooo",
"oooooooo    oooooooo    ............                ........oooo",
"oooooooo    oooooooo    ............                ........oooo",
"oooooooo    oooooooo    ............                ........oooo",
"oooooooo    oooooooo    ............                ........oooo",
"oooooooo    oooo....                ....................        ",
"oooooooo    oooo....                ....................        ",
"oooooooo    oooo....                ....................        ",
"oooooooo    oooo....                ....................        ",
"oooooooooooo        ................................            ",
"oooooooooooo        ................................            ",
"oooooooooooo        ................................            ",
"oooooooooooo        ................................            ",
"oooooooooooooooo            oooooooooooooooooooo            oooo",
"oooooooooooooooo            oooooooooooooooooooo            oooo",
"oooooooooooooooo            oooooooooooooooooooo            oooo",
"oooooooooooooooo            oooooooooooooooooooo            oooo"
};
