/* XPM */
static char *_586ad51c96648c3aa769cc801578045oUdEtUK07fbz7lJk[] = {
/* columns rows colors chars-per-pixel */
"50 50 232 2 ",
"   c None",
".  c #000000",
"X  c #080E06",
"o  c #1E1D1A",
"O  c #0F1718",
"+  c #241D16",
"@  c #14221E",
"#  c #20211E",
"$  c #032D34",
"%  c #182828",
"&  c #2F312F",
"*  c #373736",
"=  c #2D2A27",
"-  c #413C34",
";  c #513F2F",
":  c #5D4229",
">  c #69533C",
",  c #774131",
"<  c #474746",
"1  c #4D5252",
"2  c #575959",
"3  c #56514B",
"4  c #685544",
"5  c #645B55",
"6  c #745C48",
"7  c #69625C",
"8  c #786759",
"9  c #696A6A",
"0  c #666562",
"q  c #766F69",
"w  c #777777",
"e  c #737374",
"r  c #556666",
"t  c #8B1E00",
"y  c #A53D00",
"u  c #DD0000",
"i  c #D60000",
"p  c #D60019",
"a  c #D82438",
"s  c #DD142D",
"d  c #984E01",
"f  c #AC4200",
"g  c #A05838",
"h  c #DE3A44",
"j  c #8F5249",
"k  c #A75447",
"l  c #8A6C56",
"z  c #956C58",
"x  c #977358",
"c  c #8E7058",
"v  c #AA6256",
"b  c #A07556",
"n  c #887568",
"m  c #957868",
"M  c #897C74",
"N  c #8A6D69",
"B  c #A77C64",
"V  c #B5786A",
"C  c #B07471",
"Z  c #D94B55",
"A  c #D44D56",
"S  c #E04753",
"D  c #D45A61",
"F  c #CC7977",
"G  c #CE6E6F",
"H  c #CE7F4B",
"J  c #D39300",
"K  c #D4A500",
"L  c #C29D27",
"P  c #BB895C",
"I  c #8C8178",
"U  c #988578",
"Y  c #A98467",
"T  c #B88B68",
"R  c #A38874",
"E  c #B88B78",
"W  c #AE927F",
"Q  c #BA9578",
"!  c #C39A7B",
"~  c #C49A79",
"^  c #D4857C",
"/  c #C3AB6D",
"(  c #D6C57E",
")  c #7B7E80",
"_  c #D47C84",
"`  c #7C8184",
"'  c #85898A",
"]  c #8C8B8B",
"[  c #858383",
"{  c #948D8B",
"}  c #8D9393",
"|  c #929495",
" . c #9B9C9D",
".. c #949799",
"X. c #939190",
"o. c #A98E88",
"O. c #AC9584",
"+. c #A9978A",
"@. c #B49C8B",
"#. c #B79A84",
"$. c #A69B93",
"%. c #B49A94",
"&. c #B88A8B",
"*. c #BBA28D",
"=. c #BBA594",
"-. c #BBA59B",
";. c #BEAA9C",
":. c #B4A496",
">. c #ABA09B",
",. c #9BA1A2",
"<. c #A2A2A3",
"1. c #ABAAAB",
"2. c #A8A8A8",
"3. c #BBACA1",
"4. c #B3ADAC",
"5. c #B6AAA5",
"6. c #BBB4AA",
"7. c #AEAEB1",
"8. c #AFB3B4",
"9. c #B4B3B4",
"0. c #B5B5B9",
"q. c #BBBBBC",
"w. c #B7B8B9",
"e. c #CD878A",
"r. c #D4888A",
"t. c #CC9A85",
"y. c #C8999A",
"u. c #D79899",
"i. c #D9918D",
"p. c #E29C8C",
"a. c #E29B97",
"s. c #CBA383",
"d. c #C8A487",
"f. c #D4AC8B",
"g. c #D5AB89",
"h. c #CCAA92",
"j. c #C5AA9A",
"k. c #DCB394",
"l. c #DAB59B",
"z. c #DDBA9E",
"x. c #D4B59F",
"c. c #CFB391",
"v. c #E4BA9B",
"b. c #E8BC9C",
"n. c #E5B58D",
"m. c #DC9DA4",
"M. c #E69EA1",
"N. c #C2ADA3",
"B. c #CAA7A8",
"V. c #DAAAAB",
"C. c #C2B4A6",
"Z. c #CAB8A9",
"A. c #D3BBAC",
"S. c #D8B9A6",
"D. c #DFAEB3",
"F. c #C3BDBC",
"G. c #C9B9B6",
"H. c #D9B7B8",
"J. c #E5A6AA",
"K. c #E4BEA4",
"L. c #E7ADB2",
"P. c #E5B9B8",
"I. c #D6C891",
"U. c #DDC887",
"Y. c #F3C49F",
"T. c #CCC4BB",
"R. c #CAC4B9",
"E. c #D4C3B5",
"W. c #DAC4B3",
"Q. c #D2C5BD",
"!. c #DDC9BB",
"~. c #DEC4AF",
"^. c #ECC3A3",
"/. c #E5C4AC",
"(. c #EDC6AA",
"). c #EFC9AC",
"_. c #E4C2A6",
"`. c #F2CAAB",
"'. c #F3C9AA",
"]. c #E8CAB7",
"[. c #F5CEB2",
"{. c #ECD3B6",
"}. c #BEBEC1",
"|. c #C0BFC2",
" X c #E6BFC1",
".X c #BDC4C5",
"XX c #C3C3C4",
"oX c #CBCBCC",
"OX c #C9C7C7",
"+X c #D5CAC3",
"@X c #D3CCCB",
"#X c #D9C7C6",
"$X c #DCD3CD",
"%X c #D5D2CC",
"&X c #D0CFD0",
"*X c #CED1D2",
"=X c #D3D2D3",
"-X c #D5D6D8",
";X c #DBDBDC",
":X c #DAD7D6",
">X c #CFD0D0",
",X c #EACAC9",
"<X c #F3CACD",
"1X c #E7D5C9",
"2X c #F2DBC5",
"3X c #EBDBDD",
"4X c #E6D8D8",
"5X c #F2D3D5",
"6X c #F3D6D9",
"7X c #F5D9DB",
"8X c #F8D8D7",
"9X c #F6CFD1",
"0X c #F1E6D9",
"qX c #F0E3D1",
"wX c #D9DCE1",
"eX c #E5DEE1",
"rX c #DEE6E9",
"tX c #E4E3E5",
"yX c #EAE4E5",
"uX c #E7E6E9",
"iX c #E8E7E9",
"pX c #EBEAEC",
"aX c #E7EAEA",
"sX c #F4E8EA",
"dX c #EEEFF2",
"fX c #F1EEF1",
"gX c #FBEDF0",
"hX c #F4F2F4",
"jX c #F9F6F8",
"kX c #FDFCFD",
"lX c #F8F7F8",
"zX c #E9F1F5",
/* pixels */
"                                                                                                    ",
"                                                                                                    ",
"                                                                                                    ",
"                                                                                                    ",
"                                                                                                    ",
"                                                                                                    ",
"                                                                                                    ",
"                                                                                                    ",
"                                                                    tXtX;X    ;XtXpX                ",
"                              *.:.:.|.                          =XfXfXjXlXjXhXhXkXkXkXtX            ",
"pXtX|.7.0.0.0.q.q..X}.w.6.j.N.;.C.-.9.w.}.                    =XeX-X;XpXhXuXpXpXhXpXuX;X=XpX;X=X    ",
"D.jXjXwX}.}.|.E.Z.T.1X4X1XQ.XX&X-XwX-X*X-XuXdXhX            XX-X;XOX+XwXhXjXpXtXuX:XR.j.S.W.tXkXoX  ",
"u.L.sXkXkXkXkXjXlXhXlXhX=XtXzXgXsXsX7X6XfXjX4XkX          7.=X@X#Xv.b./.$XiXpX=XG.~.^.^.b.f./.hXoX  ",
"i.D.L.8XgXu.A.;XT.j.F G XX>Xh S Z D a D L.P.L.uX          0.G.g.v.'.[.[.'./.].[.`.[.`.).(._.f.4X-X  ",
"F / t.8XR.J K / K K L k ..7.D  XJ.L.D M.m.G H.hX          w.d.k.K.K.^.(.`.`.(.(.).).`.^.^.v.g.S.oX  ",
"r.c.P 9XrXU.( I.I.R.6.F j C u Z a p p Z  X3XV.3X          4.s.z.].2X8X[.(.(.).(.).^.(.2X1X].S.h.F.  ",
"r.G.r.9XzXE.B.Z.C.H.=X,Xy.G.<X<X5X4X3X6XyXdX3XtX          $.T -.w.F.oXW.^.^.v.b.^.^._.+XF.w.3.W U   ",
"i.P.r.8X3Xr.J.J.P.u.G.*XXX}.q.9.2.,.| ' pXjXdX=X          e } * 6 4 > 4 8 j.1X1XA.R 6 4 > 4 : 9 } : ",
"u. Xa.7X8Xi G.yX0.r O . . + + & - * & . pXkXpX&X        Q Y 5 #.@.U I @.n I N.j.+.2 +.+.I n O.l 5 B ",
"u.M.J.6X6Xu p gX... < 2 0 e [ ' X. .| ) =XkXpX=X          Y o.-.2 2 $ O.j.#.k.l.k.=.S.9 1 $ n +.x b ",
"e.#XJ.5X6Xu h gX .. 1 9 ) ] 2..X|.|.%.@.9.fXfX=X          Y W C.I < 3 h.;.h._.v.K.=.A.U * 1 #.@.B   ",
"F :XJ.5X6Xu h fX .. 9 [ +.*.h.T.G.S.k.g.C.dXfX=X            Q C.Z.-.C.Z.:.n.k.s.b.s.3.A.:.;.C.#.x   ",
"F /.a.6X5Xu s gX| . w U Q z._.l.k.v./.].j.uXfX=X            Q t.=.j.=.*.S.7X1XQ.yX].h.*.=.=.#.~ x   ",
"V 6.p.<X4XV.V.yX2.8 5 6 W 5.3.h.l.h.@.X.4 [ fX=X            Y s.s.s.g.f.W.%X:X:X1X#Xx.f.s.t.~ Y     ",
"G C.V <X;X;X;X>XOXoXw.7 : 1 8 n =.R q * m OXhX&X              Y ~ s.s.! ~ P H.eX! T ! ! s.! B       ",
"e.!.^ <XiX:X:XQ.x.R.%X6.n 0 U *.k.c.%.U %.fXfX=X                  x x c x l 2.OXc c c z x           ",
"e.!.p.P.;X!./.^.Y._.oXT.O.#.*.E.1X!.h.Q %XkXpX=X                      <...M 0 9 ' } | '             ",
"r.G.V.P.{.`.{.{.).Y.W.oXm R ! :.*X-.x 4 uXkXpX&X                    XX=X>X%.t j z m 1.oX            ",
"e.+XV.(.qX2X2XE.R.N.h.8.` 2.8., j 5.e . tXkXpX=X                    fX-XOXV f y f m 1.eXoX          ",
"e.-XL.P.1X!.+.I n n 7 +.4.0.$.k v $.w . tXkXpX=X                  &XfX;Xo.v G.F.%.j F.wXXX          ",
"+X;XP.V.%XR.3.:.. n d._.$.` R E 4.m % o pXkXuX=X                    :X;XT G G..Xu.g N.wX2.          ",
">X.XS.{.qX2XE.R.M :.l.E.2 e 7.-.9.e O # ] tXfX=X                      1.Y s.G.q.B.T { 1.            ",
"w.1.V.P.1X1XE.E.x.l.^.>.. 9 4.} 2.0 . = . & 2.oX                      8.4.#.@XOXG.U  .              ",
"=X0.@X4X%X+XW.(.I.n.S.2 . < ) 3 <.9 . < 0 w w <.                      &XyXXXq.q.9.XXoX              ",
"-XH.9.0X+X~.v.z._.!.2.'  .9.XXq.-X=X&X=X>X-X;X;X                      oXuX;XoXOXoX;XXX              ",
"*XH.4X:XI $.6.4.wXtX-X4X:XoXXX=X0.1. .| ` w XX-X                        hXtX9.<.3XdXXX              ",
"  #XyX:Xd V :.XX-X9.w } ) 1 w w.' N N N o.9.oX;X                      &XkXpX9.  pXjX=X              ",
"  =XhX#X-.-.&.-X-X|.5.&.B.e.y.y.r.i. X|.#X;XoX=X                      &XkXpX0.  tXjX&X              ",
"    tX,X<.G.l.F.-XtX4X@X:XQ.B.B.G.G.q.}..X0.1.0.                      tXkXpX9.  ;XjXtX              ",
"      fX@XT.6.|.oXOXoX9.1.8.w.0.8.w.0.                                XXtX;X    =XuX:X              ",
"      tXXX0.0.q.                                                    & X # 2     2 < . =             ",
"                                                                    * * *         # * * &           ",
"                                                                                                    ",
"                                                                                                    ",
"                                                                                                    ",
"                                                                                                    ",
"                                                                                                    ",
"                                                                                                    ",
"                                                                                                    ",
"                                                                                                    "
};
