/* XPM */
static char *fdaaeaaf13884181f364d5d561fc223eftzNp72vi8hKFANR[] = {
/* columns rows colors chars-per-pixel */
"50 50 232 2 ",
"   c None",
".  c #000000",
"X  c #080E06",
"o  c #1E1D1A",
"O  c #0F1718",
"+  c #241D16",
"@  c #14221E",
"#  c #20211E",
"$  c #032D34",
"%  c #182828",
"&  c #2F312F",
"*  c #373736",
"=  c #2D2A27",
"-  c #413C34",
";  c #513F2F",
":  c #5D4229",
">  c #69533C",
",  c #774131",
"<  c #474746",
"1  c #4D5252",
"2  c #575959",
"3  c #56514B",
"4  c #685544",
"5  c #645B55",
"6  c #745C48",
"7  c #69625C",
"8  c #786759",
"9  c #696A6A",
"0  c #666562",
"q  c #766F69",
"w  c #777777",
"e  c #737374",
"r  c #556666",
"t  c #8B1E00",
"y  c #A53D00",
"u  c #DD0000",
"i  c #D60000",
"p  c #D60019",
"a  c #D82438",
"s  c #DD142D",
"d  c #984E01",
"f  c #AC4200",
"g  c #A05838",
"h  c #DE3A44",
"j  c #8F5249",
"k  c #A75447",
"l  c #8A6C56",
"z  c #956C58",
"x  c #977358",
"c  c #8E7058",
"v  c #AA6256",
"b  c #A07556",
"n  c #887568",
"m  c #957868",
"M  c #897C74",
"N  c #8A6D69",
"B  c #A77C64",
"V  c #B5786A",
"C  c #B07471",
"Z  c #D94B55",
"A  c #D44D56",
"S  c #E04753",
"D  c #D45A61",
"F  c #CC7977",
"G  c #CE6E6F",
"H  c #CE7F4B",
"J  c #D39300",
"K  c #D4A500",
"L  c #C29D27",
"P  c #BB895C",
"I  c #8C8178",
"U  c #988578",
"Y  c #A98467",
"T  c #B88B68",
"R  c #A38874",
"E  c #B88B78",
"W  c #AE927F",
"Q  c #BA9578",
"!  c #C39A7B",
"~  c #C49A79",
"^  c #D4857C",
"/  c #C3AB6D",
"(  c #D6C57E",
")  c #7B7E80",
"_  c #D47C84",
"`  c #7C8184",
"'  c #85898A",
"]  c #8C8B8B",
"[  c #858383",
"{  c #948D8B",
"}  c #8D9393",
"|  c #929495",
" . c #9B9C9D",
".. c #949799",
"X. c #939190",
"o. c #A98E88",
"O. c #AC9584",
"+. c #A9978A",
"@. c #B49C8B",
"#. c #B79A84",
"$. c #A69B93",
"%. c #B49A94",
"&. c #B88A8B",
"*. c #BBA28D",
"=. c #BBA594",
"-. c #BBA59B",
";. c #BEAA9C",
":. c #B4A496",
">. c #ABA09B",
",. c #9BA1A2",
"<. c #A2A2A3",
"1. c #ABAAAB",
"2. c #A8A8A8",
"3. c #BBACA1",
"4. c #B3ADAC",
"5. c #B6AAA5",
"6. c #BBB4AA",
"7. c #AEAEB1",
"8. c #AFB3B4",
"9. c #B4B3B4",
"0. c #B5B5B9",
"q. c #BBBBBC",
"w. c #B7B8B9",
"e. c #CD878A",
"r. c #D4888A",
"t. c #CC9A85",
"y. c #C8999A",
"u. c #D79899",
"i. c #D9918D",
"p. c #E29C8C",
"a. c #E29B97",
"s. c #CBA383",
"d. c #C8A487",
"f. c #D4AC8B",
"g. c #D5AB89",
"h. c #CCAA92",
"j. c #C5AA9A",
"k. c #DCB394",
"l. c #DAB59B",
"z. c #DDBA9E",
"x. c #D4B59F",
"c. c #CFB391",
"v. c #E4BA9B",
"b. c #E8BC9C",
"n. c #E5B58D",
"m. c #DC9DA4",
"M. c #E69EA1",
"N. c #C2ADA3",
"B. c #CAA7A8",
"V. c #DAAAAB",
"C. c #C2B4A6",
"Z. c #CAB8A9",
"A. c #D3BBAC",
"S. c #D8B9A6",
"D. c #DFAEB3",
"F. c #C3BDBC",
"G. c #C9B9B6",
"H. c #D9B7B8",
"J. c #E5A6AA",
"K. c #E4BEA4",
"L. c #E7ADB2",
"P. c #E5B9B8",
"I. c #D6C891",
"U. c #DDC887",
"Y. c #F3C49F",
"T. c #CCC4BB",
"R. c #CAC4B9",
"E. c #D4C3B5",
"W. c #DAC4B3",
"Q. c #D2C5BD",
"!. c #DDC9BB",
"~. c #DEC4AF",
"^. c #ECC3A3",
"/. c #E5C4AC",
"(. c #EDC6AA",
"). c #EFC9AC",
"_. c #E4C2A6",
"`. c #F2CAAB",
"'. c #F3C9AA",
"]. c #E8CAB7",
"[. c #F5CEB2",
"{. c #ECD3B6",
"}. c #BEBEC1",
"|. c #C0BFC2",
" X c #E6BFC1",
".X c #BDC4C5",
"XX c #C3C3C4",
"oX c #CBCBCC",
"OX c #C9C7C7",
"+X c #D5CAC3",
"@X c #D3CCCB",
"#X c #D9C7C6",
"$X c #DCD3CD",
"%X c #D5D2CC",
"&X c #D0CFD0",
"*X c #CED1D2",
"=X c #D3D2D3",
"-X c #D5D6D8",
";X c #DBDBDC",
":X c #DAD7D6",
">X c #CFD0D0",
",X c #EACAC9",
"<X c #F3CACD",
"1X c #E7D5C9",
"2X c #F2DBC5",
"3X c #EBDBDD",
"4X c #E6D8D8",
"5X c #F2D3D5",
"6X c #F3D6D9",
"7X c #F5D9DB",
"8X c #F8D8D7",
"9X c #F6CFD1",
"0X c #F1E6D9",
"qX c #F0E3D1",
"wX c #D9DCE1",
"eX c #E5DEE1",
"rX c #DEE6E9",
"tX c #E4E3E5",
"yX c #EAE4E5",
"uX c #E7E6E9",
"iX c #E8E7E9",
"pX c #EBEAEC",
"aX c #E7EAEA",
"sX c #F4E8EA",
"dX c #EEEFF2",
"fX c #F1EEF1",
"gX c #FBEDF0",
"hX c #F4F2F4",
"jX c #F9F6F8",
"kX c #FDFCFD",
"lX c #F8F7F8",
"zX c #E9F1F5",
/* pixels */
"                                                                                                    ",
"                                                                                                    ",
"                                                                                                    ",
"                                                                                                    ",
"                                                                                                    ",
"                                                                                                    ",
"                                                                                                    ",
"                                                                                                    ",
"          & * * o         & * *                                                                     ",
"            = . < 2     2 # X &                                                     q.0.0.XXtX      ",
"              -XiX-X    ;XtXXX                                0.F.9.9.9.9.1.9.oXOXoXXX6.T.@XsX      ",
"              tXjXwX  9.pXkXtX                      w.4.9..X}.q.|.G.B.B.#X=X#X4XtX-Xq.l.G.>.,XtX    ",
"              =XjXyX  9.pXkX=X                      =XoX;X#X XG.i.e.y.y.e.B.&.5.XX-X:X&.-.-.$XhX-X  ",
"              &XlXpX  0.pXkX&X                      ;X&X9.o.N N N [ q.w 1 ) | w 9.-XXX:.Y d :XeX#X  ",
"              OXfXeX<.8.tXhX                        ;X|.w ' ....1.0.-XXXoX-X;X:XtX;X4.6.$.I :X4XD.*X",
"              XX;XoXOXOX;XpXOX                      wX;X&X&X-X&X=X-Xq.XX8. .' 2.!./.z.v.W.+X0X7.H.-X",
"              OXR.w.q.q.OXtX=X                      <.w w 0 < . 9 $.1 [ < . 2 S.n._._.~.+X%X4X%X9.=X",
"               .U G.OXoX#.4.8.                      OX2.& . # . r 1.] 1.9 . >.v.z.S.Z.W.1X1XP.V.7.q.",
"            2.{ T B.}.F.t.Y 2.                      =XfXtX] # O q 9.5.4.w 2 A.l.*.I Z.W.2X0XP.V..X*X",
"          1.wXN.g y..Xq.G T 4X-X                    =XiXkXpX# % m 4.E R ` $./.h.n . :.3.E.%XP.P.-X+X",
"          OXwXF.k %.R.G.v O.;XfX&X                  &XpXkXtX. w $.v k $.8.6.+.7 n M I +.Q.$XK.L.-Xe.",
"          oXwX<.m f y f C XX-XfX                    =XiXkXtX. e 4.j , 8.1.) 7.h.;.R.W.2X2XqXP.V.@Xe.",
"            *X1.C z g t %.>X=XOX                    =XpXkXiX4 m -.oX*.#.Y M @X~.Y.`.[.{.`.{.).V.G.r.",
"            ` } } ' 9 5 M ..,.                      =XpXkX%XQ h.!.1XW.*.O.#.OXOXI.Y.^./.!.;X,Xp.+Xe.",
"          z c l l l OX2.l x c x x                   =XdXfX$.U @.l.k.*.U 0 n C.>XT.Z.!.=X:XpX<X^ ].e.",
"      B ! s.~ ~ ~ #.4XT.P ~ ! s.s.! Y               &XhXOXm - q R %.n 8 3 < 7 F.oXOX*X;X;X:X<XC 3.F ",
"    Y ~ ~ s.g.z.#X$X4X$X%XW.f.g.s.s.s.Y             =XhX' > X.@.h.k.h.N.5.O.6 4 7 1.yXV.u.yX<Xg.3.V ",
"  x ~ #.;.=.*.h.{.yXQ.4X7XS.*.=.j.=.t.Q             =XfXtXj.]./.v.l.k.K.l.Q U w . ..gXs u 5X6Xa.].G ",
"  x @.3.;.:.Z.3.d.b.~ k.k.*.Z.C.-.G.6.Q             =XfXdXC.g.k.x.G.+Xh.=.+.I 9 .  .gXh u 6X5XJ.%XF ",
"  B :.#.3 * U A.:.K.K.^.h.j.j.3 : [ C.W Y           =XfXfX9.@.:.|.|.}.<.] ) 9 1 . ,.gXh u 6X6XJ.#Xr.",
"b x O.n $ 1 9 S.=.k.l.n.#.j.O.$ 2 2 ;.O.T           =XpXkX=X) |  .{ ] [ e 2 2 < . ..gXp u 7X5XM.J.i.",
"m 7 n W m I +.O.5 +.3.3.M n @.I U @.#.2 Y E         =XpXkXpX. & - - & + # . . @ r 9.yXG.i 5X6XM. Xu.",
": X.9 ; 4 > > 6 U W.,X1Xj.8 4 > > 6 - } e           -XpXjXeX] ..,.1.8.}.}.}.*XG.u. XJ.J.e.3X8Xi.#Xi.",
"  U Q 5.9.R.OX_.^.^.b.b.^.^.].OXF.w.=.T $.          tX3XfXyXeX6X6X9X,X<XH.B.,X=XH.B.Z.j.T.zX5Xr.C.r.",
"  F.f.S.].5X2X(.(.).(.).).^.].8X1X].z.t.4.          yXV.eX XZ p p a A i C j _ C.6.I.I.U.U.rX8XH c.e.",
"  OXA.g.v.b.^.).).).).).`.`.(.Y.^.v.k.d.w.          fXP.G M.M.D L.M. XD 5...k L K K / K J E.8Xi./ ^ ",
"  -X4Xg._.^.).[.[.[.{.]./.`.[.[.(.K.g.G.0.          yXL.P.H.D a D Z Z h oX.XV F j.T.wXA.u.sX7XL.V.i.",
"  >XhX~.f.b.^.^.S.A.@XpXuX$X/.b.v.%X@X=X7.          kX4XkXsX7XyXyXsXgXgXtX*XhXkXhXhXjXkXkXkXkXsXL.u.",
"  oXkXyX!.x.j.G.-XtXtXpXhXhX4X@X+X-X-XXX            lXpXuX-X*X-XwXwX&X|.+X1X4X$XQ.Z.G.XX}.}.;XkXkXD.",
"    =X;XpX=XwXpXdXhXpXpXpXhXuX;X;X;X&X                    }.0.9.-.B.-.N.;.6.w.q.|.|.}.0.0.9.7.XXtXpX",
"            tXkXkXkXjXhXhXkXlXpXfX=X                          R.:.;.*.                              ",
"                pXtX;X    ;XyXtX                                                                    ",
"                                                                                                    ",
"                                                                                                    ",
"                                                                                                    ",
"                                                                                                    ",
"                                                                                                    ",
"                                                                                                    ",
"                                                                                                    ",
"                                                                                                    "
};
