/* XPM */
static char *_d328815441840dfe812ae441cc53075sJdUVEQz2v687aXo[] = {
/* columns rows colors chars-per-pixel */
"50 50 183 2 ",
"   c #000000",
".  c #00000D",
"X  c #000010",
"o  c #01031C",
"O  c #000F1E",
"+  c #10111B",
"@  c #000022",
"#  c #060D22",
"$  c #00002D",
"%  c #031423",
"&  c #121721",
"*  c #000036",
"=  c #171D31",
"-  c #21292F",
";  c #262C34",
":  c #292E36",
">  c #20283E",
",  c #2F343A",
"<  c #373836",
"1  c #313639",
"2  c #43443F",
"3  c #1C2846",
"4  c #172E5F",
"5  c #252E4C",
"6  c #2F3740",
"7  c #3D3E43",
"8  c #343849",
"9  c #3B3E4D",
"0  c #263358",
"q  c #333A55",
"w  c #082B6B",
"e  c #2E3B69",
"r  c #323F6C",
"t  c #3D414E",
"y  c #3D4253",
"u  c #3F465E",
"i  c #3C4771",
"p  c #36487E",
"a  c #3A4979",
"s  c #434647",
"d  c #41444A",
"f  c #464A4E",
"g  c #494C4C",
"h  c #414553",
"j  c #454955",
"k  c #4B4E52",
"l  c #40465B",
"z  c #454A5A",
"x  c #494E5E",
"c  c #4D5156",
"v  c #4D535E",
"b  c #515254",
"n  c #535659",
"m  c #55595E",
"M  c #585B5F",
"N  c #444B62",
"B  c #4A4F61",
"V  c #484E69",
"C  c #4E5364",
"Z  c #4F556B",
"A  c #515664",
"S  c #555A65",
"D  c #5B5D62",
"F  c #50566B",
"G  c #555A6C",
"H  c #5A5E6D",
"J  c #444E75",
"K  c #4B5271",
"L  c #545B74",
"P  c #595E73",
"I  c #51597B",
"U  c #5D636D",
"Y  c #5B6172",
"T  c #5B627B",
"R  c #626265",
"E  c #626468",
"W  c #6B6B6E",
"Q  c #606774",
"!  c #636A77",
"~  c #6E6E72",
"^  c #656D79",
"/  c #666A7D",
"(  c #6E7173",
")  c #69727E",
"_  c #757678",
"`  c #7C7C7E",
"'  c #4F5B87",
"]  c #505F92",
"[  c #5B6484",
"{  c #5F6789",
"}  c #5F688E",
"|  c #58659A",
" . c #636A82",
".. c #6A6F87",
"X. c #656D8C",
"o. c #6C7584",
"O. c #697188",
"+. c #777B87",
"@. c #757B89",
"#. c #646D91",
"$. c #656F99",
"%. c #677095",
"&. c #6A7395",
"*. c #6F7893",
"=. c #66709B",
"-. c #6C759B",
";. c #747A93",
":. c #727A9B",
">. c #6572A2",
",. c #6E79A6",
"<. c #6573AA",
"1. c #727CA4",
"2. c #747FA8",
"3. c #717EB5",
"4. c #7782AE",
"5. c #7782B1",
"6. c #7A86B3",
"7. c #7E89B5",
"8. c #7482BB",
"9. c #7A87BD",
"0. c #7E8ABB",
"q. c #7785C0",
"w. c #7987C1",
"e. c #7E8BC1",
"r. c #838385",
"t. c #858688",
"y. c #8A8A8C",
"u. c #898B96",
"i. c #949699",
"p. c #9A9B9D",
"a. c #888DA3",
"s. c #8D92AB",
"d. c #989AA8",
"f. c #818DBD",
"g. c #8690BC",
"h. c #979BB1",
"j. c #A5A5A9",
"k. c #ADAEAF",
"l. c #A6A8B3",
"z. c #ACADB2",
"x. c #B2B2B4",
"c. c #B5B6BA",
"v. c #BBBBBC",
"b. c #828FC2",
"n. c #808EC8",
"m. c #8490C3",
"M. c #8B94C1",
"N. c #8895CB",
"B. c #A5ABC9",
"V. c #ABB0CB",
"C. c #B8BBC6",
"Z. c #BFC0C5",
"A. c #BFC2D6",
"S. c #C4C4C5",
"D. c #C6C6C8",
"F. c #CBCBCD",
"G. c #CBCCD2",
"H. c #C7CAD9",
"J. c #CFD0D4",
"K. c #D3D4D4",
"L. c #D5D6DC",
"P. c #DBDBDC",
"I. c #D5D7E1",
"U. c #DDDEE3",
"Y. c #DEDFE9",
"T. c #DFE0E6",
"R. c #DFE1E9",
"E. c #E2E2E3",
"W. c #E5E6E9",
"Q. c #E7E8EB",
"!. c #EEEEEE",
"~. c #F0EFF0",
"^. c #EFF0F0",
"/. c #F4F4F4",
"(. c #F8F7F7",
"). c #F8F8F7",
"_. c #F7F7F8",
"`. c #F9F9F9",
"'. c #FAFAFA",
"]. c #FBFBFB",
"[. c #FDFDFA",
"{. c gray99",
"}. c #FFFFFF",
/* pixels */
"}././._.^.`./._././.)./.`./.`././.`./.[././._.^.}.^._.(./.`.^.}./._.(./.`.^._._.^.[.^.`././.).^.`./.",
"!.(././.`./._./._././.)././././._.^.[.!._././.`.^.`././._.^././._././._./.)././.`.^.`./._._./.`./.`.",
"`././.(./._./.(./.(././././././.^.(././././././.`././.(./._./._./././././././.`./.)./.`././.(./._./.",
"(.(././.(././.(./././.).`.[.[.[.`.`.`.`./././.(._.(././.(././._._././.(./.`././.(./.(./.(././.(./._.",
"/.(././._./._.^.`.[.`.^.U.R.I.U.W.Y././.[.`./././._././././._././././._./._././.(./././.`.(./._./.(.",
"`.^.(.(./._./.[./.H.B.g.0.8.9.w.e.M.M.V.A.W.`._._.^._.(./._./._./._._./.`.^.`././._.^._././._./._./.",
"^.`././.(.!.}.W.s.] | | <.3.3.e.e.n.e.8.q.m.V.Y./.}.^./._./.`./.`./._.`./._././._.^.`./.(.(.^.`././.",
"}.^.(.[.).}.Q.+.w X.} =.=.$.,.4.m.N.N.b.0.e.q.9.V.W.}.]././.!.`.`.`./.^.}.^._./.^.[./.`././.).^.`./.",
"!.`.(.P.G.H.B.' I V u V Z V K } ,.0.f.4.2.f.f.b.8.7.c.l.a.4.*.u.Z.Q.[._.^.[././.`./.`.^.(._.^._.^._.",
"`.(.!.X.4 ' >.4.,.$.[ I #.{ t I =.-.,.-.-.1.2.7.g.0.<.a 5 q q q * z L.`._./.`.`./.`./._./.(._./.[./.",
"/.(./.p.o Z T [ ..O.O.O.:.*.T T P T X.X.&.&.&.-.4.6.g.0.X.9 C $ y.K.Q.(._./././././.(./.(././.(././.",
"^./.(./.S.y.E v , , k m U U U A z B F L P X.&.$.X.&.,.6.5.#.5 j E.}.(.(./._././.(./._././.(./._./._.",
"}././._.`.}.W.K.z.( - , c m m S A z j h x F P X.&.X.X.&.2.7.p u.^.(././.`.^._./.^.`.^.`././._.^.[./.",
"^./././././.}.`.}.!.c.` , - g c c j h Z B x C G / X.%.%.&.1.>.&.Q.(./.(.^.[././.[.^.`./.(.(.^.[./.(.",
"}.^._._./.`././.^.`.}.!.F.t.t s c c s P [ z h F G P  .*.:.&.:.] h.(.(./.[./._._./.`./.(././.[.^././.",
"/./././.(.!././._././.`.}.F.; s 1 , n < Z [ N h C P P  .-.-.:.:.p C.`.`.^._././.(./.(./._././._.^._.",
"_./._._./._./.(./.(./././.t.    ( E   b 2 v T C t x G Y ! *.1.:.X.[ U.`.(././.(./._./.(././._./._./.",
"/./././.(./././.(././.}.F.&   b E.E.i.  s g j F F z z F G T X.O.:.a d.(.(.(.(./././././._././.(./.(.",
"/.(././.(./.)././.(.^.}.x.+   v.}.}./.v.; : n f A G S A G Y Y Y  ...J P._.(././.(./._./._.(./._./._.",
"_././.(./._./.)./././.}.K.    P././.(.}.K.U o m c C Y Q Q ^ ) ! G ..i s._./.(././._./._././._./._./.",
"^.`././.`./././.(.(.^.`./.i.  F.}.^././.}.Q.r.  c m S U ^ ) o.+.! P  .i G.}././._./.`./.(.(./.`.^._.",
"[.^._.`./.`.^.`././._.^.}./.v.K.`.`./.`.^.`.).k., , M m U ) o.@.^ C Q r d./._._./.`.^.)././.`.^.[./.",
"^.[././._.^._./.(.(./.`.^.`.`.).`.^.[.^.`././.}.J._ O g n U ! ) U z F P K Q././._.^.`./.(.(.^.`.^._.",
").^.(._./._./._././.(./.[.^.`././._./.)./.(.(./.}.!.x.g ; n m U A j z Y e c.}.(./._./._././._./._.(.",
"/._././._././././.(./././.(././././.`././.(./././._.[.U.y.% s c j h h A K ;.~._.(./.(././.(./._./._.",
"/._././._./._./._.`./.(./._./.(._./._./._._./._.^.(./.`.).v.d & d y 9 h H J L.`.(./._./.(._./.`./._.",
"[./.(.(./._.^.)././._./.`./.)././.).^.`././._./.[./.(././.}.P.E   d 9 9 H 0 c.}.^.[./.`././.`.^.)./.",
"!._././._.^.[././././._.!.`./.(././.[.^._.(./.).^.)././.(.^.}.Q._   d 9 C N @./.`.^.`.^.(.(./.`.^._.",
"[.^._._./.[.^.)././._./.`.^.`././.`.^.[././._.^.`./._././.).!.}.!.W   d h C F E._.`././././._.^.[./.",
"/.)././._.^.)./._._./.)./.)./._././.)./._././.[./._././.(.^.`.!.}.E.d = z G 0 J.[.^.`./._.(.^.[.^._.",
"_./.(././._./.(././././.`./._././._././././././././.(.(./._./.).!.}.D.  8 A 0 z.`._./.`././././.)./.",
"/.(././._./._././.(./.(./.)././././.`./.`._./._./._././.(./.(.(.(./.}.p.  v q u._./._./.(._./._./._.",
"/.(././.)./.(././.(./.(./.(././.`./././.`././.`./.(././._./.).(._./.[.Q.D > l ) ~.(././.(.(./.(.(./.",
"_././._./.)./.(././._./._./._././././.(././._./.)./._././._.^._.^._./.[.K.o y l U.}./.(././.(./.).`.",
"!.[././.`.^.`./._.(.^._.^.[.^._.[./.`.!._.).^.`.^.[././.)./.`./.)././._.`.k.. 3 K./.`./.(.(.~.`././.",
"`.^._._./.`.!.[././._./.`.^._.(./.`.^.`././._.^.`.^._.(./.[.!.`.^._._.^.}./.r.  v.}.!.`./.(././.`./.",
"/.`././.`./.`./.(.(./.`././././._./.`./._._.^.[./.`././.)./.`.!.[././.`.!.}.Q.  j.}._.^.(././.`././.",
"_././._././.^._.^._.`.^.[./._././.)././././._.^._./._././._./._./.(././._.`.D.  P W.`.`././._./././.",
"/./././.`./././.(.(.(././._././.(./.(./._.(./._./././._././.(./././././.[.K.@ +   L L.`./././.(././.",
"/.`./.(._./._./.(././.(./._./._././._././.(./.[./._././._./.(./._././.).!.E # t 7   q G.}././._./.(.",
")././._./.`./.`././._./.)./._././.`./._././.`.^.[./._././._.^._./.(./.[.v.. .     o     S.}././././.",
"^.)././._.^.`./._././.).^.).^._.).^.`./._._./.`.^._././._./.)./.(./.(.(.M   t R ` D.y.X   c.`._./._.",
"`./.`._./.`.^.`././.)./.`.^.)._./.).!.`././.`./.`./.(.(./._./._././.}.F.  y.P.Q.^.}.!.P.j.  S.}._.(.",
"/.`././.`.^.)./._././.)./.)././.`./.`./._./.^.`.^.`././._./._.^._.!.}.D.p.}.}._.[.!.}.`.}.K.~ K._./.",
"`././._./.).^.)././.).^.`./._././.)./.`././././.)./.`././._./.(./.(._.Q.`././././.`././.(.}.U.x./.(.",
"/./.`./.)./.)././._./.(./.`././.`./././.`././._././././.(./.(./.(././.`./././._././././.(./.`.`./._.",
"/./././.(./._./._.(./.(././././././.(././.(./.(././.)./././.(./._./.`././.(././././././.(./.(.).`./.",
")././.(.^._./.)././._./.)./._._./././._././._./._./._.(./.(./.(././.(./._./.(.`./.`./._././.(./.`./.",
"^.`././.`.^.`./.(././.).^.`./.`.`.^.`./.(././._.^.`././._./.`./._././.`./.)././._.^.`././.`./.`././.",
"}.^._._.^.[./.`././._.^.`././.)./.`./.`././.).!.}.^.).(./.`.^.`.^._.).^.}.!.)._./.[.!.`././.`.!.[./."
};
