/* XPM */
static char *b07fb1eac00641fba746aedc7b899401sPPhuVL0zUET6ujF[] = {
/* columns rows colors chars-per-pixel */
"50 50 221 2 ",
"   c None",
".  c black",
"X  c #302B30",
"o  c #321008",
"O  c #490000",
"+  c #48190A",
"@  c #591A03",
"#  c #401C10",
"$  c #6E0F04",
"%  c #4C2412",
"&  c #542815",
"*  c #5D3519",
"=  c #67290B",
"-  c #732501",
";  c #662A12",
":  c #6B3514",
">  c #693619",
",  c #763C1A",
"<  c #7C3C1B",
"1  c #783716",
"2  c #712C09",
"3  c #633A29",
"4  c #74431F",
"5  c #7C4324",
"6  c #423F42",
"7  c #7F655F",
"8  c #615F61",
"9  c #797879",
"0  c #6C6A6C",
"q  c #882B00",
"w  c #883604",
"e  c #813A19",
"r  c #993E00",
"t  c #C50002",
"y  c #CA0001",
"u  c #C9000B",
"i  c #CA0018",
"p  c #C50024",
"a  c #CB0023",
"s  c #CC002C",
"d  c #CC0233",
"f  c #C70A34",
"g  c #CB1839",
"h  c #CA233E",
"j  c #C13122",
"k  c #86431E",
"l  c #8C461B",
"z  c #9C571E",
"x  c #944D0C",
"c  c #A35805",
"v  c #A45C19",
"b  c #AA6305",
"n  c #B56C10",
"m  c #844322",
"M  c #8B4924",
"N  c #884B29",
"B  c #934C23",
"V  c #964B24",
"C  c #8A5326",
"Z  c #9B5424",
"A  c #9C5B2C",
"S  c #965428",
"D  c #8B5538",
"F  c #975733",
"G  c #A55B28",
"H  c #9D622E",
"J  c #996435",
"K  c #A2612D",
"L  c #AA672C",
"P  c #B3692B",
"I  c #B97628",
"U  c #A26433",
"Y  c #AC6A35",
"T  c #AD6E3A",
"R  c #A76835",
"E  c #B26936",
"W  c #AB7238",
"Q  c #B57334",
"!  c #B3743C",
"~  c #BA773C",
"^  c #B57A3D",
"/  c #BA793B",
"(  c #BB7735",
")  c #C35D38",
"_  c #C17E3D",
"`  c #C1743D",
"'  c #C81F47",
"]  c #CD2640",
"[  c #CD2B43",
"{  c #C42C49",
"}  c #CD3146",
"|  c #CD3549",
" . c #CC3A4C",
".. c #C7374A",
"X. c #D1384A",
"o. c #926757",
"O. c #A76941",
"+. c #AD7741",
"@. c #AF7D47",
"#. c #B27541",
"$. c #B57B44",
"%. c #BB7C41",
"&. c #B97B4B",
"*. c #AF7C5C",
"=. c #BE6366",
"-. c #CD4151",
";. c #CB505E",
":. c #C37F44",
">. c #CB7F46",
",. c #CC5C67",
"<. c #D15560",
"1. c #CD636D",
"2. c #D3616A",
"3. c #CE6E76",
"4. c #D5767D",
"5. c #D16F77",
"6. c #BA813E",
"7. c #C7853E",
"8. c #BD8343",
"9. c #BC834B",
"0. c #B68649",
"q. c #B7845A",
"w. c #B58A6D",
"e. c #C28442",
"r. c #C48B4D",
"t. c #CC8E4C",
"y. c #C68947",
"u. c #CD924A",
"i. c #C8944B",
"p. c #D49548",
"a. c #C58E52",
"s. c #C58B57",
"d. c #CD9453",
"f. c #CB9559",
"g. c #C99657",
"h. c #D49B54",
"j. c #D39D5B",
"k. c #D59855",
"l. c #D6A25B",
"z. c #D8A15D",
"x. c #CCA05A",
"c. c #C49462",
"v. c #CE9C63",
"b. c #C79468",
"n. c #D49C65",
"m. c #C49D77",
"M. c #CEA269",
"N. c #D4A263",
"B. c #DBAB6B",
"V. c #D7A767",
"C. c #DBAE75",
"Z. c #DDB274",
"A. c #CDA773",
"S. c #E9B46A",
"D. c #E5B476",
"F. c #E0AE6A",
"G. c #F3C67F",
"H. c #7F7E80",
"J. c #D67D83",
"K. c #8D8D8E",
"L. c #838384",
"P. c #9C9C9C",
"I. c #959495",
"U. c #BB9885",
"Y. c #A88E89",
"T. c #B5A39C",
"R. c #A4A3A4",
"E. c #ABABAB",
"W. c #BCBBBC",
"Q. c #B6B3B4",
"!. c #BFA0A2",
"~. c #D4888D",
"^. c #D18F95",
"/. c #DA9599",
"(. c #CD969D",
"). c #CEAE95",
"_. c #E2BB88",
"`. c #D09CA1",
"'. c #DCA6A9",
"]. c #DAAEB2",
"[. c #D8B5B5",
"{. c #D0B5AA",
"}. c #E4B4B6",
"|. c #E1ABAE",
" X c #EAC18C",
".X c #D6C3B7",
"XX c #BFBFC0",
"oX c #C4C4C4",
"OX c #CCCCCC",
"+X c #C7C7C8",
"@X c #DAC8C9",
"#X c #D4D3D2",
"$X c #DDDCDC",
"%X c #DBD7D5",
"&X c #D0CFD0",
"*X c #E3C2C4",
"=X c #E5C9CB",
"-X c #E8CACC",
";X c #E4CED1",
":X c #ECD4D6",
">X c #ECDCDC",
",X c #E3D9D8",
"<X c #F3DADB",
"1X c #F1C6C7",
"2X c #E1E0DF",
"3X c #EBDEE0",
"4X c #E4E4E4",
"5X c #ECE4E4",
"6X c #E9E8E7",
"7X c #ECEBEB",
"8X c #E6E8E7",
"9X c #F2ECEC",
"0X c #F3E6E5",
"qX c #F0EFF0",
"wX c #EEF2F2",
"eX c #F4F4F4",
"rX c #F5F8F7",
"tX c #F6FAF9",
"yX c #FBFDFD",
"uX c #F7F6F6",
"iX c #F0F0F0",
/* pixels */
"                                                                                                    ",
"                                                                                                    ",
"                                                                                                    ",
"                                                                                                    ",
"                                                                                                    ",
"                                g.8.f.s.r.s.v.n.h.                                                  ",
"                            i.%.u.$.Y e.s.#.E &.B.B.( t.j.D.D.D._.  k.z.                            ",
"                        y.p.Q T T r.r.a.B.l.n.A.j.$.` t.d.y.N.Z. XG.S.D.S.Z.                        ",
"                      L ( G - B $.T v.b.E Q y.e.^ %.8.9.9.r.h.V.n.F.z.` _ S.Z.                      ",
"                    i.$.! J D W 9.#.@.M.c.w A V R r.e.6.^ ~ i.g.y.e.z.v.k._.D.t.a.N.                ",
"                g.j.u.u.N.v.a.! F 1 2 J s.m 1 < ! ^ K A R W ( 8.~ e.k.D.S.V.F.j.e.%.y.f.            ",
"            6.i.e./ Q P %.H w : ; ; ; : A = ; +.H B B S e B Y A E J / V.B.j.k.D.N.r.^ B.A.          ",
"          H L A S S k m 1 = & + # % % # ; 5 0.g.9.R Z S k , l H U / 9.G ` k.k.k.F.f.#.s.k.V.        ",
"        , < N , , 1 = = ; = C > 2 @ . * W 9.g.0.d.e.A 5 C 0.0.H ~ _ k.c.Y P P _ t.n.B.n.&.8.        ",
"          , : ; ; > @.J C 8.f.j.x.g.6.H K ! 6.6.W R + H ^ i.N.+.Y 9.f.V.F.s.Z V G t.h.:.t.          ",
"          * > , @ J j.u.%.y.j.l.n.g.p.W = k l 6.5 : C W e.e.N.w.l f.s.t.n.n.b.! E :.y.r.:.          ",
"            O 3 : Q 6.d.i.K s.a.u.7.L B + + < U & = U $.8.&.r.+.- m G G Z :.d.k.t.d.k.k.f.          ",
"            Y.O D #.~ / 8.^ $./ Q t.~ l k C > + o C S ! r.#.e.r.S k e m V :.:.Z G ` ` ( V.          ",
"            uXY.$ q G O.S R F m l E ~ / Y %.6.C , E ^ G Q A L y.8.H U H V :.A Z B A c &.{.          ",
"              yX%XT.D r q 2 R J m N F T ! Q u.H N T #.8.~ A N N U D S Z b G ; e m Z b [.            ",
"              yX9X<X5X,X{.U.q.Q n b I n c I v = w P L ( ( b c x $ q c 0.w.#.0.R P q.%X$X            ",
"              yXuXt ,.'.=X%X$X#X@X*X{.).Y.w.7 o.o.q.c.m.m.w.w.).{.{.[.[.].,.E >.j (.wX2X            ",
"              yXyX4.y t t f ..`.8X$X$X$X$X%X#X#X#X%X%X$X$X2X8X8X8XwX@Xi d h ' { p [.wX              ",
"                yX'.y -... .p 3.4X$X$X%X%X$X$X$X$X2X2X2X4X8X7X7X7XeX[.t  .} } ..g &X2X              ",
"                yX:Xy X.] | g ,.5X8X4X4X2X4X4X6X6X7X7X7X7X7X7XwX9XtX'.y | [ } h ,.8X@X              ",
"                *X<Xg h h [ [ } 3X7X5X8X8X7X4X#X+X+X&X$XwXeXiXeXeXtX/.y | [ ..p ~.wX[.              ",
"                |.<X5.s } h X.a ;XwX6X7X7X+XL.oX2X2X$X#XW.4XeXeXeXeX4.a | [ | t ].OX                ",
"                  0X/.y X.h X.y *XwX7X7X&X0 K.I.R.$XeXeX7XQ.7XeXuXuX2.d X.[ } ] (.Y.                ",
"                  *X|.u X.h X.y ].rXiX4XP.OXR.8X4X4X9X7XeX+XOXtXeX9X-.g } ..h <.!.Q.                ",
"                  0X1Xd ] ] X.y /.rXiXiXoXK.+XyXuXuXuXyX7XK.&XtXtX5Xg ] [ { f 1.wX4X                ",
"                  yXyXX.g [ X.a 4.eXiXwXP.H.R.R.W.&XR.E.W.0 XXtXtX:Xu | [ ..p ^.tX                  ",
"                    yXJ.a X.[ f <.iXwXuXoXX R.+X9 &X+XXXOXOXOXyXyX-Xy | {  .u ].rX                  ",
"                    yX}.y X.] ] ] 0XeXiXtXI.R.oXK.8X%X2X7XW.uXeXtX}.y  .[ ..p ;X7X                  ",
"                    yX<Xy X.] X.u :XyXeXtX4XL.H.K.P.P.P.OX8XtXuXyX'.y X.[ { ..9X7X                  ",
"                    yXyXg ] ] X.y =XyXeXeXtXE.E.8 &X2X#XoXuXeXeXtX/.u X...g 3.rX                    ",
"                      yX2.d  .X.y }.yXuXeXuX%X8 I.yX7XW.4XyXuXeXuXJ.a  .-.t ^.wX                    ",
"                      yX}.y i X.i /.yXuXtXrXyXOX. XX6 oXyXeXeXtXuX2.d a y ,.;X4X                    ",
"                      yXyX<X/.X.y 2.tXtXtXuXuX8XW.X W.8XtXeXtXtX0Xi X.~.*X7XeX#X                    ",
"                      eXyXyXyX9X-X}.uXtXuXrXtXtXXX9 2XyXeXtXuXyXqX-X9XuXrX7XqXXX                    ",
"                      ,XyXyXuXyXyXyXtXyXuXuXyX7X2XOXOXyXtXeXeXuXtXyXeXqX7X4X4X                      ",
"                        yXyXyXyXuXyXyXtXyXyXtXyXyXtXyXtXtXyXyXeXeXeXeX7X6X4X#X                      ",
"                        yXyXyXyXyXyXyXyXeX3XuX0X9XqX5XeX9X-X,XeXeXqXqX7X4X8X#X                      ",
"                        yXyXyXyXyXtXyXyX>X .'.].>X-././.'.>X5XeXqXqX7X4X$X7X                        ",
"                          yXyXyXtXtXeXyX}.~.1.:X*X-.>X3.'.5X7XiX7X7X4X4XqX%X                        ",
"                            yXyXyXyXeXuX9X9X5X=X=X;XtX5X[.=X7X7X6X6XqX2X                            ",
"                                iXeXyXyXyXtXeXeXwXwX8X7XwXwXeXeX7X2X2X                              ",
"                                        6X5X8X4X4X8X4X4X$X,X4X                                      ",
"                                                                                                    ",
"                                                                                                    ",
"                                                                                                    "
};
