/* XPM */
static char *_27b075799b048cde69d12bcdad02e9aQ3zesPHoLaJiC0v2[] = {
/* columns rows colors chars-per-pixel */
"50 50 254 2 ",
"   c #000000",
".  c #080106",
"X  c #0F080D",
"o  c #1A1A17",
"O  c #280202",
"+  c #370302",
"@  c #24120D",
"#  c #28231D",
"$  c #001E29",
"%  c #361824",
"&  c #0D2629",
"*  c #2A2625",
"=  c #2C2C29",
"-  c #392725",
";  c #322E2B",
":  c #2F302C",
">  c #37312C",
",  c #3A3735",
"<  c #480001",
"1  c #570000",
"2  c #471B16",
"3  c #5E1616",
"4  c #541C1A",
"5  c #5B1B19",
"6  c #6B0203",
"7  c #780504",
"8  c #79140A",
"9  c #631615",
"0  c #641817",
"q  c #651A18",
"w  c #6C1A19",
"e  c #751918",
"r  c #7B1C1A",
"t  c #512A0C",
"y  c #47281C",
"u  c #6F2811",
"i  c #691C21",
"p  c #482926",
"a  c #582924",
"s  c #43332B",
"d  c #4B352C",
"f  c #583B29",
"g  c #483735",
"h  c #4D3A32",
"j  c #533C33",
"k  c #583933",
"l  c #533E39",
"z  c #692E2A",
"x  c #7A2A23",
"c  c #66382C",
"v  c #76382A",
"b  c #763833",
"n  c #584129",
"m  c #46433E",
"M  c #55443B",
"N  c #584539",
"B  c #5C453A",
"V  c #66462A",
"C  c #694736",
"Z  c #6C4A36",
"A  c #754535",
"S  c #714933",
"D  c #714D39",
"F  c #76553C",
"G  c #293D41",
"H  c #3B4040",
"J  c #4A4744",
"K  c #544A45",
"L  c #584B45",
"P  c #59524B",
"I  c #4E4B57",
"U  c #5A5755",
"Y  c #664D44",
"T  c #695647",
"R  c #775A46",
"E  c #665953",
"W  c #635A54",
"Q  c #635E5A",
"!  c #785C54",
"~  c #7A624C",
"^  c #67615C",
"/  c #7A6756",
"(  c #7E7054",
")  c #565861",
"_  c #5E6168",
"`  c #646564",
"'  c #6A6562",
"]  c #6D6965",
"[  c #756B64",
"{  c #726D6A",
"}  c #79726C",
"|  c #797674",
" . c #7D7975",
".. c #890204",
"X. c #950000",
"o. c #9C0000",
"O. c #830018",
"+. c #841617",
"@. c #841C1A",
"#. c #8A1D1B",
"$. c #A30000",
"%. c #AB0000",
"&. c #AE0C0D",
"*. c #83211D",
"=. c #8D201D",
"-. c #932712",
";. c #930D21",
":. c #B11F24",
">. c #892724",
",. c #992729",
"<. c #913328",
"1. c #863733",
"2. c #963A39",
"3. c #A72C2A",
"4. c #AE2E2C",
"5. c #A83637",
"6. c #D40838",
"7. c #8F4A3A",
"8. c #95463C",
"9. c #AB4438",
"0. c #963B44",
"q. c #B13A48",
"w. c #E13C4D",
"e. c #964948",
"r. c #8E514C",
"t. c #86594A",
"y. c #855D55",
"u. c #B04E4D",
"i. c #85654A",
"p. c #95674A",
"a. c #856657",
"s. c #846A53",
"d. c #8C6C55",
"f. c #8C6D5D",
"g. c #966B58",
"h. c #89765B",
"j. c #967659",
"k. c #A9675E",
"l. c #A37B5A",
"z. c #B15E66",
"x. c #976E6C",
"c. c #887667",
"v. c #967B63",
"b. c #987867",
"n. c #9B7E64",
"m. c #887D74",
"M. c #827D7A",
"N. c #AE736E",
"B. c #A47869",
"V. c #C2514E",
"C. c #CF685F",
"Z. c #D0706C",
"A. c #AB835F",
"S. c #9C826A",
"D. c #988468",
"F. c #8B817A",
"G. c #9B8778",
"H. c #9B9275",
"J. c #A48465",
"K. c #AD8564",
"L. c #A3856B",
"P. c #A9886B",
"I. c #AC8B6B",
"U. c #B18663",
"Y. c #B28966",
"T. c #B48C6B",
"R. c #A8936C",
"E. c #B8916E",
"W. c #A58B72",
"Q. c #A98A75",
"!. c #B28C75",
"~. c #AA9476",
"^. c #B49274",
"/. c #BB9473",
"(. c #B89779",
"). c #BC9B7D",
"_. c #CC8A72",
"`. c #D58C74",
"'. c #C29878",
"]. c #C39C7B",
"[. c #D89778",
"{. c #E99376",
"}. c #C6A17E",
"|. c #CAA27E",
" X c #E8A47F",
".X c #CD7B83",
"XX c #8B8582",
"oX c #898684",
"OX c #938B85",
"+X c #978C88",
"@X c #96928D",
"#X c #9A938E",
"$X c #9C9691",
"%X c #9C9894",
"&X c #AC8683",
"*X c #B68988",
"=X c #A69689",
"-X c #B59A84",
";X c #A68C91",
":X c #A69795",
">X c #A29B95",
",X c #A59E98",
"<X c #BB9799",
"1X c #B9A288",
"2X c #A6A19B",
"3X c #AAA39D",
"4X c #BAA798",
"5X c #A7A0A2",
"6X c #ACA6A1",
"7X c #ACA8A5",
"8X c #B5AAA4",
"9X c #BAB3AC",
"0X c #BABBB8",
"qX c #D68B89",
"wX c #C49C87",
"eX c #C69998",
"rX c #D8979A",
"tX c #E1978B",
"yX c #C4A283",
"uX c #CCA582",
"iX c #CBAA8A",
"pX c #D4AA87",
"aX c #D8B28F",
"sX c #C9A997",
"dX c #DBB593",
"fX c #E4A994",
"gX c #C69DA1",
"hX c #D6A9A9",
"jX c #C5B6AA",
"kX c #C6BBB7",
"lX c #D5B5B3",
"zX c #E6B3B6",
"xX c #CAC3BA",
"cX c #D6C7BB",
"vX c #E8C2AF",
"bX c #E4BFC1",
"nX c #CBC9C5",
"mX c #D4CCC5",
"MX c #D6CCC9",
"NX c #CDD0CE",
"BX c #DAD4C8",
"VX c #DBD9D5",
"CX c #E8C7C7",
"ZX c #F1CAC6",
"AX c #E6DAD9",
"SX c #F4D8D9",
"DX c #EBE7D0",
"FX c #E8E4DB",
"GX c #DDDFE0",
"HX c #EAE7E4",
"JX c #F5E9E8",
"KX c #FAF9E8",
"LX c #F8F6F4",
"PX c #FFFEFE",
/* pixels */
"9 9 3 3 3 9 9 9 9 0 5 4 y - - = = * = = ; ; ; ; ; ; ; ; ; ; ; ; ; ; ; ; : > ; ; ; ; ; ; ; > > : > ; ",
"r r e e 0 0 3 3 3 3 9 9 9 9 9 3 4 p - * * = = = ; ; ; ; ; ; ; ; ; ; ; > * o ; ; ; ; ; > : > ; ; : ; ",
"@.@.@.@.@.@.r r e w 0 0 9 9 9 9 9 9 9 9 3 4 y - - * = * = ; ; * ; ; - * J U = ; ; ; ; ; : ; ; = ; ; ",
"@.@.@.@.*.=.#.#.#.#.#.@.8 r e w w w 9 9 9 9 9 9 3 4 4 p - - = * = = : o Q F.* ; ; ; ; : ; ; ; ; , ; ",
"r r r +.+.r +.@.@.=.@.=.1.=.#.#.#.@.@.r e w 0 0 9 9 9 9 9 9 5 4 p p * = o   = ; ; ; ; ; ; = : * o > ",
"A V v v x x x r 8 +...1.&Xe...>.=.#.=.=.=.=.#.*.@.r e w 0 0 9 9 9 9 9 3 a a - ; * = = = ; ; # U { o ",
"D D D Z S Z S S S A A v 8 x *.@.+.#.+.#.#.#.#.=.#.=.=...=.@.@.r e w 9 3 3 9 q 3 5 4 p p - = # , K , ",
"D D D D Z D S Z S S S D D S S S A b v x >.x =.@.#...1.B.=.#.=.=.=.=.*.@.r e 7 w 0 0 9 q 5 3 l P W W ",
"i.R t.i.a.f.f.a.! R S C C c f f B C C D C V C S A b v 1.*.*.@.+.+.+.+.@.@.>.1.+.@.+.7 7 6 6 Y ^ W W ",
"g.g.B.b.b.N.!.-X-X!.j.i.p.T O.0.1.w q c R R D D D F D Z D Z S V v v x x 8 1.g.r x 1.A y.! k U ^ } %X",
"p.eXhXgXhXg.M.&X@XB.qX-X!.d...lX*XeXN.b Q.Q.L.g.i.R R D D D S V C C C Z Z c 2 f M L U  .%XI Q U W { ",
"a.hXCXCXCXf.+X<X6XN.JXJXLXN.X.zXeXlXN.<.-XsXiXyX/.Y.l.p.i.i.a.f.f.i.R R d.T T c.~ t.~ Z n s C P P ' ",
"! hXSXSXSXg.:XgXhX;XSXZ.ZX<Xo.SXhXbXqX-.8XxXmXBXmXnXkX4X<X=XP.Q.^.!.P.L.P.h.L / T T T B = > ~ F R S ",
"c.'.uXpXsXN.M.G.%XN.ZXCXZX*Xo.CXAXJXT.-.jXqXZ.zXtXrXrXeX*X*X-X^.).wXyX].I.d.@ ~ v.v./.n.N M J.K.L.L.",
"m.|.`.{.tXiXcXDXBXcXm.&X&X&X%.bXPXJX$.8.cXbXzXSXzXrXrXqXZ.<X1X/.).uXaXuX/.n.L P./.^.aX^.M N ).pXwX^.",
"m.tXC.Z.{.uXDXKXKXDX& ` G m.%.CXAXSXu.9.iXvXBXBXBXSXmXcXkXjXyXT.'.].|.pXpXT.R n.^.L.~.S.T T uXdXaX}.",
"!.fXZ.`. XiXDXKXKXDX, 0XU m.%.CXCXSXZ.$.0XzXgXMXjXjX8XY.'.]./.}.|.pX|.|.|.U.C / j.F X M D.T }.uXpX|.",
"`.[.[.[.[.yXmXFXFXBX. | = G.%.CXCXAXqXX.VXZXSXLXLXSXAX}.pX|.}.}.iXdXdXdXpXT.! ( H.L.yX~.D.~ dXdXpX|.",
"[.8.1 z k.k.7X.X.X,X  { ; M.%.zXhXlX.XX.NXZXJXPXMX8XMXwX|.'./.}.|. XpXpX|.R.s.R ~.iXvXpX(.T dXdXdXaX",
"`.0.0XVX@X7.0X<XgX5X. ` $ [ k.u.u.u.C.8.lXhXrXzXnXMXMXN.Y.U.U.U.U.Y.U.T.'.Y.~ T j.J./.I.J.T '.).].uX",
"[.O.oXVXg k.5X<X<X;X< < < &X~.D.~.H.D.~.V.:.1 N.SXJXLXK.'./.E.}.].'././.}.^.( 1X-Xs.h.(.!.T yXyXuXiX",
"N.u.7 u 8.N.z.C.Z.C.C.Z.C.wXh.) oXoXI ( Z.w.O.x.LXSXHX^.'./.'.'.].|.'.E.E.J.i./ W.s.v.uXN Y aXaXuX}.",
"T.E.E.E.T.B.N.{.tXtX_.tX`.!.h. .oX .` h.u.6.X.f.SXAXkXT./.E.|.|.}.}.}././.P.T C s.T R v.  L pXpXuX}.",
"T.E./././.!.z.q.u.u.u.u.q.Q.D._ U ' U c.b.g.f.g.p.B.R.}.|.}.'.'./.T.E.T.E.J./ /.I.I.I.^.).( )./.E.E.",
"'.wX}.wX].^.b.B.B.L.B.S.L.^.G._  .oX) h.|././.Y.I.A.Y.T././.Y.E.T.Y.Y.J.K.j.R Y.K.Y.A.Y.}.s.}.|./.(.",
"I.Y.E.E.E.T.T.T.Y.Y.I.P.K.!.D./ F.c./ J.U.l.l.l.l.l.j.b.K.T.I.T.R.R.J.v.v.d.! W.~.(.4XsXxXG.xXmXBXnX",
"g.j.g.l.T.Y.T.T.!./././.E.P.P.J.J.D.n.j.j.v.g.b.v.f.f.a.g.p.y.e.e.e.5.,.;.$.7     O s L P 3XBXMXNXxX",
"j.l.j.j.J.J.S.D.D.D.b.b.v.f.a.y.a.r.r.r.e.e.e.e.5.5.:.&.&.4.:.4.:.4.u.u.k.N.;X7X0XnX9X,X} 4XdXjXmXxX",
"a.a.y.! t.r.r.7.e.2.2.2.5.5.5.5.4.:.%.%.$.$.$.o.X.&.e.k.e.1.b b c G.9XNXHXHXFXVXmXxXjX=X/ =X).jXmX0X",
",.,.3.3.3.3.3.:.%.$.%.$.o.o.o.X.-.9.k.*X4XkXMXAXHXHXJXLXHXnX,X^ W K K C R c 6 1 + d.E.F   W.^.jXnX0X",
"5.3.3.3.3.3.,.2.N.&X;XgXxXMXAXHXLXLXLXLXHXFXDXcXxXjX=Xc.a.t.B.P.W.e.,.3.+.9 O.< Y (.(.H.D.R.J.4X0X3X",
"x b c c j l g W 8XVXLXLXLXHXVXxX9X4X-Xc.t u 6 S j.j.b.9.&.9.W.L.~.t.6 5 4 O a.(.).L.S.(.].#XjXBXGXHX",
"J g J K K K K M # @ U T t O 1 u d.j.J.D.a 5.5.P.Q.W.W.7.6 t.^.W.~.R < a s ; R !.j.. t N T 2XxXBXDXLX",
"Q H J J K B k Y 7.2.,.3.>.z 5.B.W.J.L.W.M   + L.L.Q.W.^.aX-Xs.i.s.L J , o   h P G.=X6X%X( =X=XT t R ",
"b 1.2.2.5.4.4.3.3.=.=.x 3   O v.L.S.W.L./ ].uXn.s.~ V n v.c.oX%XM.] { OX2X9XxX0X7X#Xm./ E C c.h.g j ",
"u.:.4.,.<.*.x q 5 2 2 < a n.Y.S.D.h.D.s.N D.S.U { @X7XNXVXLXPXPXPXVXxXjX3X@X[ N d s g L E T Y d.B j ",
"d.6 z w w x q q q 5 4 2 d (.iXD.T P U P , H 2XFXPXPXPXPXPXPXPXPXPXHX>XM s g M W ^ ^ W M d c Y / L M ",
"j.8 x i i a p s g , , J ,   , s.~.^ U ^ = J [ F.8XBXJXPXPXPXPXPXPXVX#X^ ^ ^ W P n y M  .6XOX! V   O ",
"s.y > > , m J P U ^ Q Q U , N % h.S.G P ( } U U K L ( =XxXFXLXPXPXVX+XW M - n [ %XxXHXLXPXPXLXAX0X@X",
"P U ^ ] { ] { ] ] ^ ' Q K ; K C M j.^ K D H.=XU ] { | ' } t +XjXAXBXOX .%XkXVXLXPXPXPXPXPXPXPXPXPXPX",
"| M. .| | ] ^ ^ ] { ] { ] ` ^ n l s./ K j % R.G.F.#X>X7X7X. oXm.u #X#X8XJXPXPXPXPXPXPXPXPXPXPXPXPXPX",
"|  . . .F.oXF.} F.F. . .` ] Q M M R m.U k L C 1X2X2X%X+X=XD.8X@X+ F.+X+ t c.8XFXLXPXPXPXPXPXPXPXPXPX",
" .oXoXOX@X@X#X@XoXF.M.F.M.M.[ h K c =XM.y Y l v.m.@X2XL y T iXH.#X7XF.= X     + / ,XmXJXPXPXPXPXPXPX",
"{ F.OX@XoXOXOX#X%X#X@X%X%X%X#Xg s j S.} p C l i.R T / M N d p ).9X3XF.= = o   .     O V G.jXAXLXPXPX",
"` oXoXoX#X#X>X2X2X3X3X3X3X2X2XU . o i.t.g B l i.j.T B h N B g i.jX3XF.* R H.h.N   ; =   : n F n.4XVX",
"] F.%X%X>X>X>X>X2X>X2X2X3X2X7XU H U N j.s g l T j.E Y j j k l f R.$Xm.s d N ( R.D.  > . K J > h t V ",
"F.@X2X#X>X2X>X,X>X>X2X3X2X9X9XP 2X7Xo f s = s N x.a.f.Y h N l l R m.m.s j j - O R.D.  X K K P h K P ",
"%X#X$X#X#X$X>X2X3X3X2X7X7X7XOXQ 9X2X, oX'   @ . d.f.a.Y d B j l F m.XXd h j k h s J.> . * J { Q ^ | ",
"%X$X#X>X3X3X2X>X>X3X2X3X>X2X] F.7X@XU 9X` U OX` n j.b.R > N j j F c.E j d j h f p i.~     ^ M.| P Q ",
">X3X3X3X3X3X2X>X2X2X=X2X2X2XU %X7XOX^ 3Xm #X2X .  n R P * s h h Z j.! L s j j h d B d.  X {  .} | Q "
};
