/* XPM */
static char *_ce38c72410b453483b5ec61a9bb9e43JxQefK3yG0NUiMfQ[] = {
/* columns rows colors chars-per-pixel */
"50 50 255 2 ",
"   c #000000",
".  c #010707",
"X  c #190404",
"o  c #001301",
"O  c #001C01",
"+  c #051609",
"@  c #020119",
"#  c #190A10",
"$  c #001314",
"%  c #03151C",
"&  c #0C161B",
"*  c #09181B",
"=  c #14151E",
"-  c #17191D",
";  c #280202",
":  c #230B0D",
">  c #360302",
",  c #341806",
"<  c #2B0E13",
"1  c #290917",
"2  c #360A19",
"3  c #291518",
"4  c #391317",
"5  c #002501",
"6  c #042414",
"7  c #382407",
"8  c #030227",
"9  c #091822",
"0  c #161621",
"q  c #1B1622",
"w  c #141923",
"e  c #1A1A24",
"r  c #17182A",
"t  c #1D1D2A",
"y  c #000338",
"u  c #180930",
"i  c #2F0827",
"p  c #2A162B",
"a  c #27182A",
"s  c #221C2B",
"d  c #36182B",
"f  c #261C31",
"g  c #2C1C33",
"h  c #351C35",
"j  c #1B2229",
"k  c #122532",
"l  c #2B2426",
"z  c #22212E",
"x  c #2F2A2F",
"c  c #242332",
"v  c #2B2736",
"b  c #37243A",
"n  c #353438",
"m  c #480603",
"M  c #540201",
"N  c #46120B",
"B  c #470918",
"V  c #461618",
"C  c #451A1C",
"Z  c #4B1B1D",
"A  c #541416",
"S  c #6C0B00",
"D  c #4B2416",
"F  c #58251C",
"G  c #692E15",
"H  c #500928",
"J  c #481525",
"K  c #4D1C21",
"L  c #521D23",
"P  c #561A29",
"I  c #481937",
"U  c #551A34",
"Y  c #542124",
"T  c #5C2325",
"R  c #572729",
"E  c #5C242A",
"W  c #4A2931",
"Q  c #572333",
"!  c #632727",
"~  c #65292A",
"^  c #6D2B2C",
"/  c #732E2D",
"(  c #753328",
")  c #672933",
"_  c #752D32",
"`  c #683431",
"'  c #7B3333",
"]  c #783535",
"[  c #544E0E",
"{  c #675314",
"}  c #736F0F",
"|  c #734830",
" . c #6A6A25",
".. c #35084B",
"X. c #173B57",
"o. c #2B2F43",
"O. c #392342",
"+. c #373748",
"@. c #17116C",
"#. c #4F1B49",
"$. c #482646",
"%. c #542647",
"&. c #4C2B56",
"*. c #493755",
"=. c #661665",
"-. c #0F4B72",
";. c #2D5670",
":. c #4A4A4D",
">. c #565656",
",. c #655252",
"<. c #505779",
"1. c #6C5572",
"2. c #6B6261",
"3. c #676868",
"4. c #6F6E72",
"5. c #7B7674",
"6. c #931600",
"7. c #933205",
"8. c #863729",
"9. c #833434",
"0. c #883A39",
"q. c #973E3C",
"w. c #8F481B",
"e. c #AE5713",
"r. c #8B7411",
"t. c #B57509",
"y. c #894539",
"u. c #974738",
"i. c #935637",
"p. c #A65430",
"a. c #B9663B",
"s. c #CE6A11",
"d. c #E57809",
"f. c #C8702D",
"g. c #E37B36",
"h. c #893E40",
"j. c #9A4746",
"k. c #924C49",
"l. c #9A5645",
"z. c #A74948",
"x. c #AA524B",
"c. c #B85754",
"v. c #9D6245",
"b. c #AF6B4E",
"n. c #887D7A",
"m. c #C05D5A",
"M. c #C56E57",
"N. c #CB7664",
"B. c #948B0E",
"V. c #B1980E",
"C. c #AFAE0F",
"Z. c #AEB026",
"A. c #D49307",
"S. c #EC8D05",
"D. c #FF9301",
"F. c #D1B309",
"G. c #ECAF04",
"H. c #DB8030",
"J. c #EE8F29",
"K. c #BFC008",
"L. c #C7C709",
"P. c #D6D708",
"I. c #CEC712",
"U. c #E6D506",
"Y. c #E8E807",
"T. c #F6F604",
"R. c #FDFD02",
"E. c #ECEC11",
"W. c #DBDC26",
"Q. c #BA8054",
"!. c #D18365",
"~. c #56198D",
"^. c #196799",
"/. c #326991",
"(. c #0E75B2",
"). c #646D8B",
"_. c #097EC1",
"`. c #8E0F90",
"'. c #8E318F",
"]. c #9F00A1",
"[. c #AF0AB0",
"{. c #AD37AE",
"}. c #935995",
"|. c #9B6C9B",
" X c #D41ADC",
".X c #F702F7",
"XX c #FA01F9",
"oX c #F414F5",
"OX c #E837EE",
"+X c #F828F8",
"@X c #F93AF8",
"#X c #D75DE4",
"$X c #E652E8",
"%X c #F949F8",
"&X c #F857F8",
"*X c #EA6CED",
"=X c #FA66F9",
"-X c #F57CF5",
";X c #F977F8",
":X c #2C82B5",
">X c #728591",
",X c #4C8DB4",
"<X c #6D91A5",
"1X c #1990D5",
"2X c #3493CB",
"3X c #35A1DF",
"4X c #1399E7",
"5X c #10A8F7",
"6X c #31AFF4",
"7X c #4C98C5",
"8X c #4EAADE",
"9X c #70ACCF",
"0X c #4EB3ED",
"qX c #6EBBE8",
"wX c #76CAF5",
"eX c #8A8787",
"rX c #918D8B",
"tX c #97928F",
"yX c #959393",
"uX c #9C9B9C",
"iX c #A09F9F",
"pX c #8A9AA6",
"aX c #8EA8B7",
"sX c #A4A4A5",
"dX c #ACACAC",
"fX c #A6B1B6",
"gX c #B3B3B3",
"hX c #BABABA",
"jX c #8BB5CD",
"kX c #D0A3D1",
"lX c #E98EEC",
"zX c #F683F5",
"xX c #F888F7",
"cX c #F799F6",
"vX c #F6A4F6",
"bX c #F5ACF4",
"nX c #F1B6F1",
"mX c #91C2DE",
"MX c #B9CAD3",
"NX c #8FCCEF",
"BX c #ABD3EA",
"VX c #BBE5FC",
"CX c #C3C3C3",
"ZX c #CACBCB",
"AX c #C7D2D7",
"SX c #D3D2D3",
"DX c #D1D7D9",
"FX c #DCDCDC",
"GX c #C1DBEA",
"HX c #ECC1EE",
"JX c #C9E6F6",
"KX c #D8EDF8",
"LX c #E5E6E7",
"PX c #EBFAFE",
"IX c #F7F9F9",
/* pixels */
"N U #.P U H J H H A B B N m N N N m N N N > Z X ; 4       X X                         >     m m M S ",
"A $.+.*.&.&.&.*.&.&.$.&.%.%.%.%.#.#.#.P I U ; eX5.> uXrXtXeX4.yXtXCXuXiXCXyXuXhXeXgXhXeXdXgXuXhXgX2.",
"P W v v o.n v +.+.+.+.o.+.+.+.+.+.+.*.*.*.*.  SXdX5.LXFXSXLXdXZXLXSXuXIXSXsXFXIXFXFXFXCXIXgXeXLXLX,.",
"P d 9 w t t t w = z z z z t v v v v z n o.o.> LXSXCXMXZXCXLXFXCXFXuX3.SX  - ZXSXhXgXeXZXFXiXn tXFX  ",
"L h j z t t t c s t t e z e t e t e = t t u ,.FXLXLXCXZXCXSXLXCXFXFXdXDX,.n FXLXdXSXDXCXSXLXuX3.FX! ",
"K d * w = = w = - e w e t e t e w z t z l @ 5.hXuXhXCXCXgXsXdXgXZXn n FX,.:.gXdXCXCXZXdXZX3.  :.CX,.",
"K d c c e t = t c 0 = = e t 0 0 = = - 0 j   yXsX  hXgXgXhXuXdXsXCXZXuXZXSXiXgXdXhXhXsXgXCXrXm 3 ZXn.",
"K d w t q t e j z e z q j c e s e t v t e i 1.>.  3.>.>.2.:.:.:.3.3.>.>.3.:.>.>.>.>.2.3.>.2.G   2.,.",
"K d & e = q = w e = 0 q t e = e q t r 0 w b 2   3 X       x tXrXeXrXrX>.eXrXeXeXrX4.      G ( -   m ",
"H h & t j t z s q s t w = 0 e w - = e 0 & g P V V Z C Z 4 W 5.eXrXyX5.W rXtXn.n.tX5.> K F ( G G R F ",
"P h 9 t s = @ & w c a v v g b g f j = z w b P N V B B # B @     >                   V @ D T ( ( F Z ",
"T d % = e = :.+.u . O     o . o o f = f 9 b U N A 2 G e.G e.e.s.s.w.e.s.e.w.w.e.e.d.e.s.d.e.F G Z V ",
"A d * e z   kXlXOX#X XkXkX[.{. X=.5 a t & b U N ! @ s.S.e.S.S.D.d.D.D.D.D.e.A.d.D.D.s.D.D.d.V F V V ",
"J h t c z . $X=XxXzX=X;X;X;XxX=X[.6 g t & O.U N ! 1 A.A.t.A.A.A.t.G.D.A.G.r.S.A.G.s.t.G.S.A.2 F V V ",
"L d % q q 5  XcX&X.XlXoX;X-X.XxX{.o h t & O.P N G i F.G.V.F.G.{ @ V.G.{ G.B.G.F.F.@ V.A.V.V.1 F V A ",
"L d c f a $ *X=X@X=X&X;X;X%X+X=X|.  g - $ I U N 8.H U.U.F.F.U.P.r.r.U.} U.B.U.F.U.C.L.I.U.{ B D V L ",
"L h r s r 6 OX=X%XbX%X%X%XXXbX&X{.O O.e 9 b P N p.! Y.Y.P.L.T.R.} C.P.} T.E.Y.L.R.P.L.R.C.# G L Z L ",
"P d * t e 6  XcXcXbX&X.XcXzXvX=X].5 g 0 w b P V 9.{ T.R.Y.L.Y.} 8 I.L.} R.R.P.P.K.. P.R.I.B G L V V ",
"P b * t j 8 lXzXvX-XcXcX;XbXvXxX|.  v = & g I , # { E.R.T.L.P.C. .I.C.C.P.C.P.P.K.C.P.I.Y.{ A C V V ",
"~ I * a j y $XvX.X=XzX&XbX@X%XcX|.  f s - b d 7 @ B.P.P.Y.C.R.R. .P.B.C.L.F.P.Y.T.Y.P.B.T.B.B F C A ",
"R d % e - 8 *X-X%XzX@XXXxX%X;X=X].5 p t 9 h K 7 @ V.P.C.E.L.R.W.[ Y.B.K.L.K.P.T.T.I.Y.} L.} H R K V ",
"P h * s w u nXcXOX&XXXbXvXoX&X@X{.o p 0 9 h J 7 @ C.I.} C.C.V.o 7 Z. .C.B.Z.Z.Z.}  .C.D  .Q F D V 4 ",
"E W w c - u $X=XxXzX=X-X;X-X-X&X`.5 g t & O.P , @ } [ u r   y sX2.    n @       +     ,.S w.| ( D 4 ",
") d $ s & r OXcX%X.XxXXXzX;X+XxX`.5 h s & $.P 3 ; n hXPXLXx DXIXhX:.SXIXFX).dXDXhXiXLXhXn.gXG ! C 4 ",
"W d c f $ o.*X&X@X=X*X;XzX@XoX;X}.  f = % h J d   >XPXPXPXfXPXPXAXdXPXPXPXPXPXPXAXKXPXiXAXAXM | L 4 ",
"2 p r a + O.$X&X&XbX+X&X%X+XvX%X'.o b e & O.d l   eXKXBXGXJXJXKXVXhXJXGXJXJXJXVXMXBXJXuXMXaX7.k.! F ",
"2 p w t o o.oXcXxXbX%XXXcX;XvX=X`.5 g 0 e O.i l   pXBX4.VXVXBXjXBXBXjX<XBX9XVX>XaXBXBX<XBXpX7.x.y.' ",
"2 g & s 6 ..lXzXbX-XcXcX-XnXcXxX}.  g = % b d l   9XjXjXNXBX<Xj NXBX<XmX>Xo.BX+.jXmXBX<XNX).7.j.u.8.",
"2 g 9 a 6 ..*XcX.X*XzX=XbX@X%XcX}.  a t - O.i l ; 9XNXjX9XwXn :.wXqXNXjX  ).NXn qXjXNX,XwX1.8.z.u.9.",
"2 p = s + ..=X;X%XzX+XXXzX%X-X=X`.5 a s & O.J W M qXwX/.9XqX> <.9XwXwX7X  ,XwX+.qX,XwX,XqX:.M ! / 9.",
"2 a 9 s . +.HXzX@X&X+XbXcXoX=X@X`.o a q % O.) E M 8X7X; 0X7Xm ).8X0X0X0XX ,X0X;.0X,X0X,X8X> Z L T T ",
"1 b t g + #.*X=XxXzX%XxX;X-XzX&X`.O a r 9 $.Q N Y 6X/.6.8X7XS 2X2X8X:X0XX.:X3X^.0X0X0X2X0X3X/.M E ^ ",
"4 f & s + O.+XcX+X@XzX.XzX;X%XzX=.+ h t = O.I m *.4X<.7.8X3X).3X(.3X;.6X^.2X1X:X6X6X6X2X6X6X/.m W A ",
"2 a c s . &.*X=X@X&X=X;XlX+XXX;X}.  a q $ $.Q M <.5X1.7.(.5X5X_.^.4Xo.4XX.4X:X1X4X1X5X4X5X5X/.M R F ",
"4 h t f o &.&X%X=XvX+X=X+X%XvX@X'.. g a % $.U M /.(.` p.<.5X4Xn /.(.< -.X (.^.4X(.^.1X(.(.-.= 2 Z R ",
"J p 9 a $ O.+XvXxXbX@XXXcX=XbX%X=.O f = 9 $.Q T P > / j.' ^.-.M I ; C ; s X = X.X k   X X X ; # : 4 ",
"J g & f O =.lXxXbX-XcX-XxXnXcXzX}.  s = $ $.P ! ! ^ ' 0.j.S G ^ Y W C d , < Z S / A = : 3 3 1 : : X ",
"C b 9 f O =.xXcXXX;XzX=XvX%X&XvX1.  s t & O.) ! ^ ! ^ 9.l.l.] ^ E Y 4 C 4 4 K ) 9.0./ 2 # : : : < < ",
"C p 9 a + .. X#X#X#X XOXxX%X-X%X=.+ s t % I ) ~ ' ) ! _ x.b.| ] T T Z C Z C L ^ ' 9.9.^ 4 # : : : : ",
"4 a & q 0 9 k y @.@.@.~.~.~.~.~...o = e % $.) _ 0.^ / / k.b.y.~ ~ T Y Z T ! ^ ' 0.9.9.9.~ C : : : : ",
"1 b t c e s l l - + , O 5 o o O & - = - % %.) _ y.y.] ' 0.Q.v.` ~ T Y K ~ 0.0.j.z.q.9.9.9.! V < : # ",
"< a & q 0 = e r z s r t s f s s e t t t % %._ h.l.l./ ' ' v.v.y.~ ! Y J T 0.x.c.m.z.0./ / / T 4 < X ",
"2 a c t e = 0 t e = = = 0 0 0 = = = = q $ %.] 9.l.b._ ' 0.y.l.i.^ ! ! L L ^ x.N.M.c.z.8.^ ^ / L 4 < ",
"2 f j e t r w c j t t = c t q r = s s = $ $.0.0.l.v._ ` 0.] h.l.' ! T L ! / h.b.!.M.c.z.8./ ! ! Z : ",
"2 p 0 = 0 = q q 0 0 - t r e = t q e e q 9 %.9.9.u.v.9._ ' ^ ] | ( E R Y T ' y.x.N.!.M.z.q.0.0.! Z V ",
"3 g & t t t 0 0 q w w = 0 0 = = & = 0 = $ %._ ' u.l.y._ _ ^ ~ ) ~ R L Z K ^ q.j.c.!.N.m.q.q.q.q.! V ",
"2 g $ t r * c = s x 3 c q e s e t e q s 9 $._ u.p.f.u./ ^ ) E ~ E E K C Z ! ' k.x.N.N.N.c.z.q.q.0.L ",
"2 h g p f p r 9 8 8 8 8 9 % 9 $ 9 % $ t + %.0.a.f.f.u.' ^ ) K L Y L K C Z P / 0.] c.m.m.m.z.q.8.9._ ",
"< i J I ) h.z.j.x.f.b.i.` I I O.h I #.g h =.p.f.H.H.p.9.^ E T Z Y K K 4 C K _ 9./ ] x.c.c.c.q.9.^ ! ",
"< < , F 9.p.f.c.g.J.J.f.w.T Q U U U ) U ) ) f.J.J.J.u.8.) ! P K Y K J C C K / 0.( R _ z.c.z.z.9.! T "
};
