/* XPM */
static char *_4609087e1f24d94a6c1805410044960jhfVKTALOwewNq2h[] = {
/* columns rows colors chars-per-pixel */
"50 50 254 2 ",
"   c #000000",
".  c #0C0504",
"X  c #080609",
"o  c #130C0C",
"O  c #16110E",
"+  c #1A120E",
"@  c #030915",
"#  c #190F12",
"$  c #051515",
"%  c #1B1512",
"&  c #181615",
"*  c #1E1915",
"=  c #24130A",
"-  c #231A15",
";  c #281B15",
":  c #231D1A",
">  c #28211D",
",  c #312319",
"<  c #191F22",
"1  c #162C31",
"2  c #2B2522",
"3  c #2D2A26",
"4  c #322B26",
"5  c #37312E",
"6  c #2B3535",
"7  c #393837",
"8  c #4E0A00",
"9  c #532B15",
"0  c #6C3A19",
"q  c #50362E",
"w  c #453A38",
"e  c #613B25",
"r  c #4D423C",
"t  c #6F4930",
"y  c #3B4240",
"u  c #554E49",
"i  c #54504C",
"p  c #71594B",
"a  c #6F695A",
"s  c #786658",
"d  c #7A776F",
"f  c #8E4926",
"g  c #AB5C30",
"h  c #B86539",
"j  c #935B46",
"k  c #98684B",
"l  c #876759",
"z  c #946957",
"x  c #99745A",
"c  c #B57049",
"v  c #A66D56",
"b  c #A97459",
"n  c #BB7859",
"m  c #87746B",
"M  c #8C786C",
"N  c #9B7766",
"B  c #957D71",
"V  c #A87A67",
"C  c #B67A61",
"Z  c #A27F72",
"A  c #CA764A",
"S  c #D67C47",
"D  c #C67E58",
"F  c #D77D53",
"G  c #C37C63",
"H  c #F4963C",
"J  c #BC855A",
"K  c #9F8367",
"L  c #8B8378",
"P  c #988778",
"I  c #A78569",
"U  c #AB836C",
"Y  c #BB8263",
"T  c #B7886B",
"R  c #BC966C",
"E  c #A78877",
"W  c #AB8C7D",
"Q  c #B48B73",
"!  c #B98B75",
"~  c #B38D7A",
"^  c #A7947D",
"/  c #BA9677",
"(  c #B5927C",
")  c #BC947C",
"_  c #CA855B",
"`  c #D68B53",
"'  c #D7885B",
"]  c #E78957",
"[  c #E69557",
"{  c #C28464",
"}  c #C98968",
"|  c #D38B62",
" . c #D78C69",
".. c #CA9467",
"X. c #CD936C",
"o. c #D8956A",
"O. c #C48D73",
"+. c #CA8B76",
"@. c #C39373",
"#. c #CB9474",
"$. c #C49974",
"%. c #CC9A75",
"&. c #C3947B",
"*. c #CB937B",
"=. c #C49B7E",
"-. c #CD9B7C",
";. c #D59575",
":. c #D49A75",
">. c #DB9C74",
",. c #D49C7B",
"<. c #DB9C7B",
"1. c #E48E64",
"2. c #E89868",
"3. c #F69464",
"4. c #E69977",
"5. c #C6A27D",
"6. c #DCA974",
"7. c #D4A27C",
"8. c #D9A778",
"9. c #DBA37D",
"0. c #E8A56B",
"q. c #F6B26F",
"w. c #E3A47B",
"e. c #E6A87A",
"r. c #F2A477",
"t. c #EBB379",
"y. c #FCC17B",
"u. c #768686",
"i. c #978D81",
"p. c #9A9387",
"a. c #91928C",
"s. c #A88C80",
"d. c #AC9483",
"f. c #A8988A",
"g. c #B59485",
"h. c #BB9483",
"j. c #B59B84",
"k. c #BC9B83",
"l. c #B39D8B",
"z. c #BC9C8B",
"x. c #A89D93",
"c. c #B59C92",
"v. c #ADA18E",
"b. c #B8A289",
"n. c #BCA38B",
"m. c #ABA499",
"M. c #B4A394",
"N. c #BCA493",
"B. c #BBA69A",
"V. c #B8A89B",
"C. c #BCAB9C",
"Z. c #B7ADA1",
"A. c #BDAEA2",
"S. c #B9B5A9",
"D. c #BBBCB5",
"F. c #C39B84",
"G. c #C79987",
"H. c #CA9C83",
"J. c #C49D89",
"K. c #D69C84",
"L. c #C09F92",
"P. c #E09C87",
"I. c #C6A586",
"U. c #CDA385",
"Y. c #C4A48D",
"T. c #CBA58C",
"R. c #CCAB8C",
"E. c #D3A384",
"W. c #DBA484",
"Q. c #D3AA84",
"!. c #DCAA83",
"~. c #D3A48A",
"^. c #DCA48B",
"/. c #D5AB8C",
"(. c #DBAC8C",
"). c #D7B38C",
"_. c #DBB28C",
"`. c #C4A593",
"'. c #CBA692",
"]. c #C4AB94",
"[. c #CCAB94",
"{. c #C1A598",
"}. c #C4AB9B",
"|. c #CCAC9A",
" X c #D3AC93",
".X c #DBAD93",
"XX c #D9AA97",
"oX c #D3AE9B",
"OX c #C9B397",
"+X c #CCB29C",
"@X c #D4B296",
"#X c #DBB395",
"$X c #D4B39C",
"%X c #DBB49B",
"&X c #D8B998",
"*X c #DCBB9C",
"=X c #E3AA83",
"-X c #E7A885",
";X c #E4AD8B",
":X c #F6AC8A",
">X c #E2B28D",
",X c #E9B889",
"<X c #F5BB87",
"1X c #E8AD97",
"2X c #F5AD96",
"3X c #E3B593",
"4X c #E8B796",
"5X c #E3BA95",
"6X c #E3BB9B",
"7X c #EBBC9B",
"8X c #F7BC92",
"9X c #C5AEA1",
"0X c #C4B3A4",
"qX c #CDB4A3",
"wX c #C6B8AA",
"eX c #CDBBAB",
"rX c #D3B4A3",
"tX c #DAB6A1",
"yX c #D4BAA3",
"uX c #DCBBA3",
"iX c #D3BCAA",
"pX c #D5B9AC",
"aX c #DBBEAB",
"sX c #CABDB2",
"dX c #E6B9A4",
"fX c #FABCA7",
"gX c #DBC19E",
"hX c #F4CC8F",
"jX c #E7C59B",
"kX c #F6C894",
"lX c #DBC3A4",
"zX c #D5C2AD",
"xX c #DCC2AB",
"cX c #C9C4B9",
"vX c #DBC5B3",
"bX c #D5CBB4",
"nX c #D8C9B8",
"mX c #ECC3A4",
"MX c #E7C7A8",
"NX c #E4CAAC",
"BX c #F3C8A6",
"VX c #F3D1AA",
"CX c #E4CBB5",
"ZX c #E9D3BA",
"AX c #F5DBB7",
"SX c #F5E0BB",
"DX c #D9CEC1",
"FX c #DBD4C7",
"GX c #D4D7CE",
"HX c #E7D8C4",
"JX c #FADAC7",
"KX c #EEE5CB",
"LX c #E5E5D9",
"PX c #F3F6EF",
/* pixels */
"A +XGXFXD.%Xq.t.wXL p.V.%._ Y.z.c H.tXS D iX*XE.iXa.a._.o.%.Q N wX+XOXDX}.n.M.sXF. .rX'.G.G.9X9XG.{.",
"N n / eXY.|.'.Y.N.M.`.iXeX@XyXCX[.F.z.[.W.6XaX}.qXiX7XdXLXLXHXHXzX*XnX%X^.uXwX*.K.9XE B 9X;.F dXc.z ",
"! ! k.}.`.rXh.b }.DXh./ ].nXvXCXrXC V qX~.$XnX`.! |.7.3XnXcXvXxX/.uXzXF.} %X].J.G.T.wXG.oXrXG.K.XXZ ",
").zXqXbXsXi.P f.A.nXZX+X0XV.f.m.n.J.=XrXz.( W x.i.a.u.mX@Xu.U.W.^.rXCXS.Z./.R.nXtXT.GX|.L.pXrXrXnX{.",
"! { ~.0X^ x.[.o..X$X,.DXCXK.$XpXJ.{.}. XK.qXJ.*.oXuX1XuXxXW.(.vX`.`.tX{.g.z.V.g.eXvX*.;.^.oXO.Z |.P.",
"Q T &.N.c.k.%Xe.3X6XK.DX*X<.dXrXb 9 8 U #XrX$XK.rXtX^.3XrX7.W.#X[.|.aXT.! z.}.yXvXpXL.*.G.oX{.g.C L.",
"Z B.( v DX%X[ jXJ.&.LXDX}.zX1X^.s 9 x B bXvXeXvXV g.{.V b 0X@X} #XZ.b ,.xX.X(.iXs.N m.'.V h.qXg.s.{.",
"L B m.rX:.5X].!.;.~.G.V |.}.G.cXl H.JX XO.|.9X-.%X$X#.Y.rX~.e.%X'.X.U.z.h.s.S.J.) 9X+.' 8XZ.Z Z.vXZ ",
"R ^ cXMX8.NXnX' /.rXO.z.wXsXqXwXN dXJXdXV rXrXH.oX'.h.~ J.'.uXiX~.uXxXrXK.*.tXoX(.XX1X<.K.G.}.cXpXdX",
"e.NXZXhXVXFXY.[ NX`.l.LXLXPXGXN z 1X1XK.G.^.6XCXA.9XGXJ.g.cXx.I eXCXw.>XZX1.|  X~.;.aXh.C J.vX%XXXaX",
"#X7.=.yX!.8.aX%X~.zXrXnXoX;. XyXj v G.XXK.aXpXE [.G.;.MXmXr.=X$XF.@.'.A.E wXnXJ.x.DXaXV wXBX;X.X|.V ",
"n.Q / +X7.:. X%X@XqXk.C.qX! oX%Xz G fXfX1XpXqXQ G.H.'.+XE.=X;XaX[.U.vX}.v }.qX`.wXpXoXO.iX'.~ s.XXXX",
"C.P l.~ nXHXf.Y.Y.tX|.f.z.f.3X$Xc.A +.P.(.O.`.k.^.*.N.}.g.sX9XFXnX@XnXnX'.k.eXB.c.G.rXh.rXL.E g.XXXX",
"f.C.U H.XX} U.m.d P wX&.E 0Xe.0.-Xk V G.4.o.0.dXg.G [. X} &.@XH.J.C.B m A.,X5XNXS.! G.wXO.! 9XP.F aX",
"^ ].W ^ M.) T.+Xd.Q |.~ O.(.;X XtXZ G 2X<.%XtXnX{.~.iX+XK.$XxX~.E.yX0XN.nXHXzXCX XXX$XtX}.eXtX'.DXqX",
"/ T.m.a.S.eXK.#XnXX.:.aX,X0.dXDX{.l P.1X| nXHXHXHXw.(.aX.X;XAX7X<XVXZXMXzXGXD.ZXdXZXBXdXcXrXK.G.pXg.",
"/ { %X4X>.J.Z.Q z.iX=X7.vX6X0.).u.9 f G ;.u f.k.C $X^.W.qXB.W wX}.! {. X| { %Xh.M c.i.x.G.V |.c.V O.",
"=.].v.z.J.j.f.}.Y.'.Y.qX`.Y.V.9 X = 9 C z @   B `.[.~. X%X].k.OX$X&.].H.-.K.(.'.qXXX'.iXmXXX! ~.qXc.",
"..b.s s d.U x {.l.N z.C.E l   < 4 X X   X w 7 y p V g.yXt.7XZX<X<XjX~ g.rX;Xo.1XMX%.XXdXBXoXT >.{.W ",
") ` >Xd.V Y.;X| ;X1XG D Q.u   4 : : % - > 5 7 5   f.H.B 0XE Z 9X{.V C.cXS.D.~.h G rXW j c.kXq.jXV.{ ",
"C.Q.8.!.}.( ~ z..Xw.W.^.x   = > > > > : * . . 2 &   {.1X#.+.! B.m.N..XU.}.GXHXcXz.F.~ B.'.~.XXfX-X4.",
"N.#X_ 9.}.Q Q N.E.:.3XK.8 X ; * 2 : 2 2 2 4 3 . :   P 4XD <.}.B l nX7Xw.ZXPXPXPXZ.N G.pX+.s.c.K.4.<.",
"M.n.b.7.R.C.[.|.l.x.B.].  + O % 2 2 3 4 5 i i u 4 X q [. XrX^.CXJX=X.X|.|.H.uXdXMXfXoXqXCX1X:XqXz.<X",
"v.bXHXHX$XQ.dX9XU n.zXa   * . O : 3 3 2 5 i i i 7 u   f.MX|.[.iXZX3X>X~.;.G.iX[.}.rXaX X$X%XK. X5Xr.",
"v.8.lXZXlX>.*Xb.W B.yXq $ =   O * > 2 * 3 u u 7 5 r 7 p uXZ.x.f.w.0.4X3X1. .$XW W eXdX^.aXH.C [.kXq.",
"X.R.hXq.NX5Xq.MXaX} | t @ @ q O % % * % % 3 3 > 7 < $ r >X,XMX6X#XuXF.D K.dX3.,XMX-XZXZXfX-X7X$Xb f.",
"j.Q J R.kX,XQ.@X[.=. .c   T Q   > O % + O 3 4 1 ( t   Y w.W.>X(.4.=X~.O.Y N.;Xw.3XXX].qX|.E.6X$X X4X",
"OX! Q OX,Xt.lX#X*X$X] f L <Xc   , O % O O * :   | ].q A 2.) ^ ~. .S dXB.E f.6Xe.r.tXN.P m.3XX.=.BX8X",
"D } $Xj.N W ].;.C.l 1.1.1.;Xf.  2 O % + + :   1 K.2.j f 3.(.zX+XjXNX@X[ >.6Xq.kXA.&.<.dX:X4.vXG.C M ",
"^ =.#.T.U.-.$X>.W.T D 3.~.3XV   > O % + + :   7 O.;.F.{ 2.X.$X`.Y.$XR.*X6XZX7X[.N.#.H. X| E.CX|.z.A.",
"I / Y %.U.=.~.;. .,.n ]  X;Xc   ; % % + o >   q g.nXQ ' ' _ >.rXk.$XlXMXVXVXlXV Y '.z.P m.xXBX,.LXPX",
"C b.L d m.I.Y Y.z.b j ] ' K.^   ; % % O o 3   p ;X ._ 1.c i S.LXc.lXd.s p.$XX.;XcXL i.0X^.} `.c.P i.",
"hX&XP R.CX,X!.3XW.T.0XF r.,.b   = & * O + 4   L F.U %.] Y ,.E.qX`.m.OXjX>X;X,X>X`.W.=X X=.7.F.T }.) ",
"t.jXlXjX,.=X(.>X%.R.iXn :X3XT   - % : % o 3   P 0Xp.-XS Y.BX7X%X XP MXVX(.>X3X6XU.-X!.U.T.T.oX.X~.$X",
"I.hXhXVXI.b -.$Xb ! =.g 4.7XR   = & : % % ,   z 4.<.4.D k h.jXhXAXKX9.R.cX/ o.$X8X' =XBX6.X.lXhXt.kX",
"_ 9...A ,.N.@.7./.&.7.Y 4.:XR 2   % : * ; >   I %X>.1.W H.o.X.8.t.,.~.7X7X+X;Xo.o. X,.:. X].E.X.5X=X",
"Q 5.Y.,.` ..~.7.=.I.U.U. .2XF w $ + : * % 3   M.CX4.<.eX(._ X.jX7.O.%Xt.2.#XW.} *. X} { |.l.V l.qXG ",
"v.k P  X` o.|.n } +XQ >.o.2XfX9   ; % - O ,   ! 8X2X1.H jXKXAXVXNX1.` E.,X2.e.bX#.O.aX-X] Q.ZXmXE.*X",
"E lX6.>.*X} _ *X+XX.1XuXG 1XfXh.$ o 5 7 :   @ K.BX:Xn =..X.X@X+XE.X.^.*X(.T.mXMXW.(.NX^.uX%X*X3X%XzX",
"/ R.Q.E.:._ ;.].T.$.XXDX|.P.1Xz.m 6 r u & u P.2XfXP.x f.}._ / 9X,.X.[.$X#.^ &X[ r.4X .' .X-.S 4.eXP ",
"6.5XZX5X(.5X3X{ _ Y.7.| 5.oXdXE 6 u 7 i @ z N P.4. .,Xr.4.*XhXy.kXAXVXKXjX[ 2.%XF.U &.>.{ ! (.w.-X7X",
"^ S.P K S.P z l./ x I 7.X.9.K.l @ 3 4 2 3   Z P.C :.e.!.6.&X#Xo.8.,X_.>Xw.5.e.6.X./ $.6.,.O.~.X.8.>X",
"d.b.x p.].x I ^ V k =.8.' K.j w 3 5 5 5 $ r ;.j ! &.>.Q.I.$.].M.I Q $X:.%.b.#X0.!.SXSXSXHX} n ) _.<X",
"X.g x qXY _ Q.Y c ! E k p.-X0   : X & #   4 e 9 N =.#._ @.[.X.5.*XX._ ].KXmX_.n.b b ~.7.| R (.4.' >.",
"n.7.).).R.j.n.l.>X%XY.[.uXjXt   - o   o ; $ &   M @X/.-.).&Xv.OXlX5XR.].gXOXgX].Q k.[.R.#.`.3Xr.X.$X",
"( !.jXgX@Xj.v.^ ,XjX/.&X_.>Xp   - % # * - . >   M /._.3XhXI.P NXMXhX).].OXzXZXgXb.*X{ $.V $.X...W.l.",
"R K x K ..Y _ lXlX8.&X/ T j.a   &   . o # o >   l Q.R.n.^ ^ 5.I x 5.I R OXOXf.v.I./ J ZXZXNXNXZX6XE.",
"5.n.M./ R $.%.!.!.%.7.%.8.&Xs   ;   X X o . ,   s _.I.I./ / ).n.Y.U.5.$.5.^ K / / Q / NXNXNXMXmX,X_ ",
"^ x.v.^ J 5...` ..5.J o.6.J t   + . O . o o ;   e { J c $.t.jXNX8.6.6.5.J I.jXy.q.t.6.q.6.0.6.2._./ ",
"gXgX$.gXVXNXI.5.OXlX&X).gXlXs   > % o   o . -   u U.).&X).).jXjXgXgXgXlXlXgX).jX,XjXgX).).&X).7.U.5."
};
