/* XPM */
static char *result[] = {
/* columns rows colors chars-per-pixel */
"64 64 3 1 ",
"  c black",
". c #00A800",
"X c #FCE0A8",
/* pixels */
"................................................................",
"................................................................",
"................................................................",
"................................................................",
"....                                                        ....",
"....                                                        ....",
"....                                                        ....",
"....                                                        ....",
"....XXXXXXXX                                                ....",
"....XXXXXXXX                                                ....",
"....XXXXXXXX                                                ....",
"....XXXXXXXX                                                ....",
"....XXXXXXXX....                                            ....",
"....XXXXXXXX....                                            ....",
"....XXXXXXXX....                                            ....",
"....XXXXXXXX....                                            ....",
"....XXXXXXXX....XXXXXXXXXXXX                                ....",
"....XXXXXXXX....XXXXXXXXXXXX                                ....",
"....XXXXXXXX....XXXXXXXXXXXX                                ....",
"....XXXXXXXX....XXXXXXXXXXXX                                ....",
"....XXXXXXXX....XXXXXXXXXXXX....                            ....",
"....XXXXXXXX....XXXXXXXXXXXX....                            ....",
"....XXXXXXXX....XXXXXXXXXXXX....                            ....",
"....XXXXXXXX....XXXXXXXXXXXX....                            ....",
"....XXXXXXXX....XXXXXXXXXXXX....XXXXXXXXXXXX                ....",
"....XXXXXXXX....XXXXXXXXXXXX....XXXXXXXXXXXX                ....",
"....XXXXXXXX....XXXXXXXXXXXX....XXXXXXXXXXXX                ....",
"....XXXXXXXX....XXXXXXXXXXXX....XXXXXXXXXXXX                ....",
"....XXXXXXXX....XXXXXXXXXXXX....XXXXXXXXXXXX....            ....",
"....XXXXXXXX....XXXXXXXXXXXX....XXXXXXXXXXXX....            ....",
"....XXXXXXXX....XXXXXXXXXXXX....XXXXXXXXXXXX....            ....",
"....XXXXXXXX....XXXXXXXXXXXX....XXXXXXXXXXXX....            ....",
"....XXXXXXXX....XXXXXXXXXXXX....XXXXXXXXXXXX....XXXXXXXXXXXX....",
"....XXXXXXXX....XXXXXXXXXXXX....XXXXXXXXXXXX....XXXXXXXXXXXX....",
"....XXXXXXXX....XXXXXXXXXXXX....XXXXXXXXXXXX....XXXXXXXXXXXX....",
"....XXXXXXXX....XXXXXXXXXXXX....XXXXXXXXXXXX....XXXXXXXXXXXX....",
"....XXXXXXXX....XXXXXXXXXXXX....XXXXXXXXXXXX....XXXXXXXXXXXX....",
"....XXXXXXXX....XXXXXXXXXXXX....XXXXXXXXXXXX....XXXXXXXXXXXX....",
"....XXXXXXXX....XXXXXXXXXXXX....XXXXXXXXXXXX....XXXXXXXXXXXX....",
"....XXXXXXXX....XXXXXXXXXXXX....XXXXXXXXXXXX....XXXXXXXXXXXX....",
"....XXXXXXXX....XXXXXXXXXXXX....XXXXXXXXXXXX....XXXXXXXXXXXX....",
"....XXXXXXXX....XXXXXXXXXXXX....XXXXXXXXXXXX....XXXXXXXXXXXX....",
"....XXXXXXXX....XXXXXXXXXXXX....XXXXXXXXXXXX....XXXXXXXXXXXX....",
"....XXXXXXXX....XXXXXXXXXXXX....XXXXXXXXXXXX....XXXXXXXXXXXX....",
"....XXXXXXXX....XXXXXXXXXXXX....XXXXXXXXXXXX....XXXXXXXXXXXX....",
"....XXXXXXXX....XXXXXXXXXXXX....XXXXXXXXXXXX....XXXXXXXXXXXX....",
"....XXXXXXXX....XXXXXXXXXXXX....XXXXXXXXXXXX....XXXXXXXXXXXX....",
"....XXXXXXXX....XXXXXXXXXXXX....XXXXXXXXXXXX....XXXXXXXXXXXX....",
"....XXXXXXXX....XXXXXXXXXXXX....XXXXXXXXXXXX....XXXXXXXXXXXX....",
"....XXXXXXXX....XXXXXXXXXXXX....XXXXXXXXXXXX....XXXXXXXXXXXX....",
"....XXXXXXXX....XXXXXXXXXXXX....XXXXXXXXXXXX....XXXXXXXXXXXX....",
"....XXXXXXXX....XXXXXXXXXXXX....XXXXXXXXXXXX....XXXXXXXXXXXX....",
"....XXXXXXXX....XXXXXXXXXXXX....XXXXXXXXXXXX....XXXXXXXXXXXX....",
"....XXXXXXXX....XXXXXXXXXXXX....XXXXXXXXXXXX....XXXXXXXXXXXX....",
"....XXXXXXXX....XXXXXXXXXXXX....XXXXXXXXXXXX....XXXXXXXXXXXX....",
"....XXXXXXXX....XXXXXXXXXXXX....XXXXXXXXXXXX....XXXXXXXXXXXX....",
"....XXXXXXXX....XXXXXXXXXXXX....XXXXXXXXXXXX....XXXXXXXXXXXX....",
"....XXXXXXXX....XXXXXXXXXXXX....XXXXXXXXXXXX....XXXXXXXXXXXX....",
"....XXXXXXXX....XXXXXXXXXXXX....XXXXXXXXXXXX....XXXXXXXXXXXX....",
"....XXXXXXXX....XXXXXXXXXXXX....XXXXXXXXXXXX....XXXXXXXXXXXX....",
"................................................................",
"................................................................",
"................................................................",
"................................................................"
};
