/* XPM */
static char *result[] = {
/* columns rows colors chars-per-pixel */
"64 64 3 1 ",
"  c black",
". c #0078F8",
"X c #FCE0A8",
/* pixels */
"................................................................",
"................................................................",
"................................................................",
"................................................................",
"....        ........        ........        ........        ....",
"....        ........        ........        ........        ....",
"....        ........        ........        ........        ....",
"....        ........        ........        ........        ....",
"....XXXXXXXX........        ........        ........        ....",
"....XXXXXXXX........        ........        ........        ....",
"....XXXXXXXX........        ........        ........        ....",
"....XXXXXXXX........        ........        ........        ....",
"....XXXXXXXX........        ........        ........        ....",
"....XXXXXXXX........        ........        ........        ....",
"....XXXXXXXX........        ........        ........        ....",
"....XXXXXXXX........        ........        ........        ....",
"....XXXXXXXX........XXXXXXXX........        ........        ....",
"....XXXXXXXX........XXXXXXXX........        ........        ....",
"....XXXXXXXX........XXXXXXXX........        ........        ....",
"....XXXXXXXX........XXXXXXXX........        ........        ....",
"....XXXXXXXX........XXXXXXXX........        ........        ....",
"....XXXXXXXX........XXXXXXXX........        ........        ....",
"....XXXXXXXX........XXXXXXXX........        ........        ....",
"....XXXXXXXX........XXXXXXXX........        ........        ....",
"....XXXXXXXX........XXXXXXXX........XXXXXXXX........        ....",
"....XXXXXXXX........XXXXXXXX........XXXXXXXX........        ....",
"....XXXXXXXX........XXXXXXXX........XXXXXXXX........        ....",
"....XXXXXXXX........XXXXXXXX........XXXXXXXX........        ....",
"....XXXXXXXX........XXXXXXXX........XXXXXXXX........        ....",
"....XXXXXXXX........XXXXXXXX........XXXXXXXX........        ....",
"....XXXXXXXX........XXXXXXXX........XXXXXXXX........        ....",
"....XXXXXXXX........XXXXXXXX........XXXXXXXX........        ....",
"....XXXXXXXX........XXXXXXXX........XXXXXXXX........XXXXXXXX....",
"....XXXXXXXX........XXXXXXXX........XXXXXXXX........XXXXXXXX....",
"....XXXXXXXX........XXXXXXXX........XXXXXXXX........XXXXXXXX....",
"....XXXXXXXX........XXXXXXXX........XXXXXXXX........XXXXXXXX....",
"....XXXXXXXX........XXXXXXXX........XXXXXXXX........XXXXXXXX....",
"....XXXXXXXX........XXXXXXXX........XXXXXXXX........XXXXXXXX....",
"....XXXXXXXX........XXXXXXXX........XXXXXXXX........XXXXXXXX....",
"....XXXXXXXX........XXXXXXXX........XXXXXXXX........XXXXXXXX....",
"....XXXXXXXX........XXXXXXXX........XXXXXXXX........XXXXXXXX....",
"....XXXXXXXX........XXXXXXXX........XXXXXXXX........XXXXXXXX....",
"....XXXXXXXX........XXXXXXXX........XXXXXXXX........XXXXXXXX....",
"....XXXXXXXX........XXXXXXXX........XXXXXXXX........XXXXXXXX....",
"....XXXXXXXX........XXXXXXXX........XXXXXXXX........XXXXXXXX....",
"....XXXXXXXX........XXXXXXXX........XXXXXXXX........XXXXXXXX....",
"....XXXXXXXX........XXXXXXXX........XXXXXXXX........XXXXXXXX....",
"....XXXXXXXX........XXXXXXXX........XXXXXXXX........XXXXXXXX....",
"....XXXXXXXX........XXXXXXXX........XXXXXXXX........XXXXXXXX....",
"....XXXXXXXX........XXXXXXXX........XXXXXXXX........XXXXXXXX....",
"....XXXXXXXX........XXXXXXXX........XXXXXXXX........XXXXXXXX....",
"....XXXXXXXX........XXXXXXXX........XXXXXXXX........XXXXXXXX....",
"....XXXXXXXX........XXXXXXXX........XXXXXXXX........XXXXXXXX....",
"....XXXXXXXX........XXXXXXXX........XXXXXXXX........XXXXXXXX....",
"....XXXXXXXX........XXXXXXXX........XXXXXXXX........XXXXXXXX....",
"....XXXXXXXX........XXXXXXXX........XXXXXXXX........XXXXXXXX....",
"....XXXXXXXX........XXXXXXXX........XXXXXXXX........XXXXXXXX....",
"....XXXXXXXX........XXXXXXXX........XXXXXXXX........XXXXXXXX....",
"....XXXXXXXX........XXXXXXXX........XXXXXXXX........XXXXXXXX....",
"....XXXXXXXX........XXXXXXXX........XXXXXXXX........XXXXXXXX....",
"................................................................",
"................................................................",
"................................................................",
"................................................................"
};
