/* XPM */
static char *result[] = {
/* columns rows colors chars-per-pixel */
"64 64 3 1 ",
"  c #0078F8",
". c #FCE0A8",
"X c gray99",
/* pixels */
"............................XXXX    ............................",
"............................XXXX    ............................",
"............................XXXX    ............................",
"............................XXXX    ............................",
"........................XXXXXXXX        ........................",
"........................XXXXXXXX        ........................",
"........................XXXXXXXX        ........................",
"........................XXXXXXXX        ........................",
"....................XXXXXXXXXXXX            ....................",
"....................XXXXXXXXXXXX            ....................",
"....................XXXXXXXXXXXX            ....................",
"....................XXXXXXXXXXXX            ....................",
"................XXXX    XXXX    XXXX    XXXX    ................",
"................XXXX    XXXX    XXXX    XXXX    ................",
"................XXXX    XXXX    XXXX    XXXX    ................",
"................XXXX    XXXX    XXXX    XXXX    ................",
"................XXXXXXXX            XXXX        ................",
"................XXXXXXXX            XXXX        ................",
"................XXXXXXXX            XXXX        ................",
"................XXXXXXXX            XXXX        ................",
"................XXXXXXXX            XXXX        ................",
"................XXXXXXXX            XXXX        ................",
"................XXXXXXXX            XXXX        ................",
"................XXXXXXXX            XXXX        ................",
"................XXXXXXXX            XXXX        ................",
"................XXXXXXXX            XXXX        ................",
"................XXXXXXXX            XXXX        ................",
"................XXXXXXXX            XXXX        ................",
"................XXXXXXXX            XXXX        ................",
"................XXXXXXXX            XXXX        ................",
"................XXXXXXXX            XXXX        ................",
"................XXXXXXXX            XXXX        ................",
"................XXXXXXXX            XXXX        ................",
"................XXXXXXXX            XXXX        ................",
"................XXXXXXXX            XXXX        ................",
"................XXXXXXXX            XXXX        ................",
"................XXXXXXXX            XXXX        ................",
"................XXXXXXXX            XXXX        ................",
"................XXXXXXXX            XXXX        ................",
"................XXXXXXXX            XXXX        ................",
"................XXXXXXXX            XXXX        ................",
"................XXXXXXXX            XXXX        ................",
"................XXXXXXXX            XXXX        ................",
"................XXXXXXXX            XXXX        ................",
"................XXXX    XXXX        XXXX        ................",
"................XXXX    XXXX        XXXX        ................",
"................XXXX    XXXX        XXXX        ................",
"................XXXX    XXXX        XXXX        ................",
"................            XXXXXXXX    XXXX    ................",
"................            XXXXXXXX    XXXX    ................",
"................            XXXXXXXX    XXXX    ................",
"................            XXXXXXXX    XXXX    ................",
"....................                        ....................",
"....................                        ....................",
"....................                        ....................",
"....................                        ....................",
"........................                ........................",
"........................                ........................",
"........................                ........................",
"........................                ........................",
"............................        ............................",
"............................        ............................",
"............................        ............................",
"............................        ............................"
};
